<?xml version="1.0" encoding="utf-8"?>
<!-- Generator: Adobe Illustrator 16.0.0, SVG Export Plug-In . SVG Version: 6.00 Build 0)  -->
<!DOCTYPE svg PUBLIC "-//W3C//DTD SVG 1.1//EN" "http://www.w3.org/Graphics/SVG/1.1/DTD/svg11.dtd">
<svg version="1.1" id="Layer_1" xmlns="http://www.w3.org/2000/svg" xmlns:xlink="http://www.w3.org/1999/xlink" x="0px" y="0px"
	 width="612px" height="792px" viewBox="0 0 612 792" enable-background="new 0 0 612 792" xml:space="preserve">
<g id="layout">
	<line fill="none" stroke="#000000" stroke-width="3" stroke-miterlimit="10" x1="393.12" y1="51.48" x2="393.12" y2="796.5"/>
	<line fill="none" stroke="#000000" stroke-width="3" stroke-miterlimit="10" x1="393.12" y1="394.02" x2="9" y2="394.02"/>
	<line fill="none" stroke="#000000" stroke-width="3" stroke-miterlimit="10" x1="9" y1="51.48" x2="603" y2="51.48"/>
</g>
<g id="battery_x5F_display">
	<text id="Sensor00" transform="matrix(0.9091 0 0 1 398.0244 765.5967)" font-family="'ArialMT'" font-size="13.5885">00</text>
	<text id="Sensor01" transform="matrix(0.9091 0 0 1 440.0547 765.5967)" font-family="'ArialMT'" font-size="13.5885">01</text>
	<text id="Sensor02" transform="matrix(0.9091 0 0 1 482.9482 765.5967)" font-family="'ArialMT'" font-size="13.5885">02</text>
	<text id="Sensor03" transform="matrix(0.9091 0 0 1 525.6748 765.5967)" font-family="'ArialMT'" font-size="13.5885">03</text>
	<text id="Sensor04" transform="matrix(0.9091 0 0 1 568.415 765.5967)" font-family="'ArialMT'" font-size="13.5885">04</text>
	<g id="BatSens00">
		<path id="b00Bat4" fill-opacity="0" d="M419.683,756.936v1.03h-2.06c-1.132,0-2.059,0.927-2.059,2.06v26.92
			c-0.052,1.132,0.875,2.059,2.008,2.059h16.521c1.133,0,2.06-0.927,2.06-2.059v-26.817c0-1.133-0.927-2.059-2.06-2.059h-2.059
			v-1.029c0-0.566-0.464-1.03-1.03-1.03H420.66C420.146,755.907,419.683,756.37,419.683,756.936z M433.064,760.076
			c0.566,0,1.029,0.463,1.029,1.027v24.759c0,0.566-0.463,1.029-1.029,1.029H418.6c-0.564,0-1.027-0.463-1.027-1.029v-24.81
			c0-0.564,0.463-1.028,1.027-1.028h14.465V760.076z M431.521,780.716c0.309,0,0.515,0.206,0.515,0.516v3.089
			c0,0.309-0.206,0.515-0.515,0.515h-11.325c-0.309,0-0.515-0.206-0.515-0.515v-3.089c0-0.31,0.206-0.516,0.515-0.516H431.521z
			 M431.521,774.488c0.309,0,0.515,0.206,0.515,0.515v3.087c0,0.312-0.206,0.518-0.515,0.518h-11.325
			c-0.309,0-0.515-0.206-0.515-0.518v-3.087c0-0.309,0.206-0.515,0.515-0.515H431.521z M431.521,768.312
			c0.309,0,0.515,0.205,0.515,0.515v3.089c0,0.309-0.206,0.515-0.515,0.515h-11.325c-0.309,0-0.515-0.206-0.515-0.515v-3.089
			c0-0.31,0.206-0.515,0.515-0.515H431.521z M431.521,762.135c0.309,0,0.515,0.206,0.515,0.516v3.089
			c0,0.309-0.206,0.515-0.515,0.515h-11.325c-0.309,0-0.515-0.206-0.515-0.515v-3.089c0-0.31,0.206-0.516,0.515-0.516H431.521z
			 M420.196,774.488h11.376c0.309,0,0.515,0.206,0.515,0.515v3.087c0,0.312-0.206,0.518-0.515,0.518h-11.376
			c-0.309,0-0.515-0.206-0.515-0.518v-3.087C419.683,774.745,419.889,774.488,420.196,774.488z M420.196,780.716h11.376
			c0.309,0,0.515,0.206,0.515,0.516v3.089c0,0.309-0.206,0.515-0.515,0.515h-11.376c-0.309,0-0.515-0.206-0.515-0.515v-3.089
			C419.683,780.922,419.889,780.716,420.196,780.716z M420.196,762.135h11.376c0.309,0,0.515,0.206,0.515,0.516v3.089
			c0,0.309-0.206,0.515-0.515,0.515h-11.376c-0.309,0-0.515-0.206-0.515-0.515v-3.089
			C419.683,762.341,419.889,762.135,420.196,762.135z M420.196,768.312h11.376c0.309,0,0.515,0.205,0.515,0.515v3.089
			c0,0.309-0.206,0.515-0.515,0.515h-11.376c-0.309,0-0.515-0.206-0.515-0.515v-3.089
			C419.683,768.568,419.889,768.312,420.196,768.312z"/>
		<path id="b00Bat3" d="M419.631,778.143v-3.089c0-0.309,0.206-0.515,0.516-0.515h11.376c0.309,0,0.515,0.206,0.515,0.515v3.089
			c0,0.31-0.206,0.516-0.515,0.516h-11.376C419.837,778.657,419.631,778.4,419.631,778.143z M432.036,784.319v-3.089
			c0-0.31-0.206-0.516-0.515-0.516h-11.377c-0.309,0-0.515,0.206-0.515,0.516v3.089c0,0.309,0.206,0.515,0.515,0.515h11.377
			C431.778,784.834,432.036,784.577,432.036,784.319z M432.036,771.915v-3.089c0-0.31-0.206-0.516-0.515-0.516h-11.377
			c-0.309,0-0.515,0.206-0.515,0.516v3.089c0,0.309,0.206,0.515,0.515,0.515h11.377C431.778,772.43,432.036,772.224,432.036,771.915
			z M419.631,756.988v1.027h-2.059c-1.133,0-2.06,0.928-2.06,2.061v26.815c0,1.134,0.927,2.061,2.06,2.061h16.521
			c1.133,0,2.06-0.927,2.06-2.061v-26.766c0-1.133-0.927-2.059-2.06-2.059h-2.059v-1.029c0-0.566-0.464-1.03-1.03-1.03H420.66
			C420.095,755.958,419.631,756.421,419.631,756.988z M433.064,760.076c0.566,0,1.029,0.463,1.029,1.027v24.759
			c0,0.566-0.463,1.029-1.029,1.029H418.6c-0.564,0-1.027-0.463-1.027-1.029v-24.759c0-0.564,0.463-1.027,1.027-1.027H433.064z"/>
		<path id="b00Bat2" fill-opacity="0" d="M419.631,778.143v-3.089c0-0.309,0.206-0.515,0.516-0.515h11.376
			c0.309,0,0.515,0.206,0.515,0.515v3.089c0,0.31-0.206,0.516-0.515,0.516h-11.376C419.837,778.657,419.631,778.4,419.631,778.143z
			 M432.036,784.319v-3.089c0-0.31-0.206-0.516-0.515-0.516h-11.377c-0.309,0-0.515,0.206-0.515,0.516v3.089
			c0,0.309,0.206,0.515,0.515,0.515h11.377C431.778,784.834,432.036,784.577,432.036,784.319z M419.631,756.988v1.027h-2.059
			c-1.133,0-2.06,0.928-2.06,2.061v26.815c0,1.134,0.927,2.061,2.06,2.061h16.521c1.133,0,2.06-0.927,2.06-2.061v-26.766
			c0-1.133-0.927-2.059-2.06-2.059h-2.059v-1.029c0-0.566-0.464-1.03-1.03-1.03H420.66
			C420.095,755.958,419.631,756.421,419.631,756.988z M433.064,760.076c0.566,0,1.029,0.463,1.029,1.027v24.759
			c0,0.566-0.463,1.029-1.029,1.029H418.6c-0.564,0-1.027-0.463-1.027-1.029v-24.759c0-0.564,0.463-1.027,1.027-1.027H433.064z"/>
		<path id="b00Bat1" fill-opacity="0" d="M432.036,784.319v-3.089c0-0.31-0.206-0.516-0.515-0.516h-11.377
			c-0.309,0-0.515,0.206-0.515,0.516v3.089c0,0.309,0.206,0.515,0.515,0.515h11.377C431.83,784.834,432.036,784.577,432.036,784.319
			z M419.631,756.988v1.027h-2.059c-1.133,0-2.06,0.928-2.06,2.061v26.815c0,1.134,0.927,2.061,2.06,2.061h16.521
			c1.133,0,2.06-0.927,2.06-2.061v-26.766c0-1.133-0.927-2.059-2.06-2.059h-2.059v-1.029c0-0.566-0.464-1.03-1.03-1.03H420.66
			C420.146,755.958,419.631,756.421,419.631,756.988z M433.064,760.076c0.566,0,1.029,0.463,1.029,1.027v24.759
			c0,0.566-0.463,1.029-1.029,1.029H418.6c-0.564,0-1.027-0.463-1.027-1.029v-24.759c0-0.564,0.463-1.027,1.027-1.027H433.064z"/>
		<path id="b00Bat0" fill-opacity="0" d="M419.631,756.988v1.027h-2.059c-1.133,0-2.06,0.928-2.06,2.061v26.815
			c0,1.134,0.927,2.061,2.06,2.061h16.521c1.133,0,2.06-0.927,2.06-2.061v-26.766c0-1.133-0.927-2.059-2.06-2.059h-2.059v-1.029
			c0-0.566-0.464-1.03-1.03-1.03H420.66C420.146,755.958,419.631,756.421,419.631,756.988z M433.064,760.076
			c0.566,0,1.029,0.463,1.029,1.027v24.759c0,0.566-0.463,1.029-1.029,1.029H418.6c-0.564,0-1.027-0.463-1.027-1.029v-24.759
			c0-0.564,0.463-1.027,1.027-1.027H433.064z"/>
	</g>
	<g id="BatSens01">
		<path id="b01Bat4" fill-opacity="0" d="M462.302,756.936v1.03h-2.06c-1.132,0-2.06,0.927-2.06,2.06v26.92
			c-0.053,1.132,0.874,2.059,2.008,2.059h16.521c1.132,0,2.06-0.927,2.06-2.059v-26.817c0-1.133-0.928-2.059-2.06-2.059h-2.06
			v-1.029c0-0.566-0.463-1.03-1.028-1.03h-10.346C462.765,755.907,462.302,756.37,462.302,756.936z M475.684,760.076
			c0.565,0,1.029,0.463,1.029,1.027v24.759c0,0.566-0.464,1.029-1.029,1.029h-14.463c-0.566,0-1.029-0.463-1.029-1.029v-24.81
			c0-0.564,0.463-1.028,1.029-1.028h14.463V760.076z M474.14,780.716c0.309,0,0.515,0.206,0.515,0.516v3.089
			c0,0.309-0.206,0.515-0.515,0.515h-11.322c-0.312,0-0.516-0.206-0.516-0.515v-3.089c0-0.31,0.204-0.516,0.516-0.516H474.14z
			 M474.14,774.488c0.309,0,0.515,0.206,0.515,0.515v3.087c0,0.312-0.206,0.518-0.515,0.518h-11.322
			c-0.312,0-0.516-0.206-0.516-0.518v-3.087c0-0.309,0.204-0.515,0.516-0.515H474.14z M474.14,768.312
			c0.309,0,0.515,0.205,0.515,0.515v3.089c0,0.309-0.206,0.515-0.515,0.515h-11.322c-0.312,0-0.516-0.206-0.516-0.515v-3.089
			c0-0.31,0.204-0.515,0.516-0.515H474.14z M474.14,762.135c0.309,0,0.515,0.206,0.515,0.516v3.089c0,0.309-0.206,0.515-0.515,0.515
			h-11.322c-0.312,0-0.516-0.206-0.516-0.515v-3.089c0-0.31,0.204-0.516,0.516-0.516H474.14z M462.816,774.488h11.374
			c0.31,0,0.516,0.206,0.516,0.515v3.087c0,0.312-0.206,0.518-0.516,0.518h-11.374c-0.312,0-0.516-0.206-0.516-0.518v-3.087
			C462.302,774.745,462.506,774.488,462.816,774.488z M462.816,780.716h11.374c0.31,0,0.516,0.206,0.516,0.516v3.089
			c0,0.309-0.206,0.515-0.516,0.515h-11.374c-0.312,0-0.516-0.206-0.516-0.515v-3.089
			C462.302,780.922,462.506,780.716,462.816,780.716z M462.816,762.135h11.374c0.31,0,0.516,0.206,0.516,0.516v3.089
			c0,0.309-0.206,0.515-0.516,0.515h-11.374c-0.312,0-0.516-0.206-0.516-0.515v-3.089
			C462.302,762.341,462.506,762.135,462.816,762.135z M462.816,768.312h11.374c0.31,0,0.516,0.205,0.516,0.515v3.089
			c0,0.309-0.206,0.515-0.516,0.515h-11.374c-0.312,0-0.516-0.206-0.516-0.515v-3.089
			C462.302,768.568,462.506,768.312,462.816,768.312z"/>
		<path id="b01Bat3" d="M462.249,778.143v-3.089c0-0.309,0.206-0.515,0.516-0.515h11.375c0.309,0,0.515,0.206,0.515,0.515v3.089
			c0,0.31-0.206,0.516-0.515,0.516h-11.375C462.455,778.657,462.249,778.4,462.249,778.143z M474.653,784.319v-3.089
			c0-0.31-0.206-0.516-0.515-0.516h-11.375c-0.31,0-0.516,0.206-0.516,0.516v3.089c0,0.309,0.206,0.515,0.516,0.515h11.375
			C474.396,784.834,474.653,784.577,474.653,784.319z M474.653,771.915v-3.089c0-0.31-0.206-0.516-0.515-0.516h-11.375
			c-0.31,0-0.516,0.206-0.516,0.516v3.089c0,0.309,0.206,0.515,0.516,0.515h11.375C474.396,772.43,474.653,772.224,474.653,771.915z
			 M462.249,756.988v1.027h-2.059c-1.134,0-2.061,0.928-2.061,2.061v26.815c0,1.134,0.927,2.061,2.061,2.061h16.521
			c1.132,0,2.06-0.927,2.06-2.061v-26.766c0-1.133-0.928-2.059-2.06-2.059h-2.06v-1.029c0-0.566-0.463-1.03-1.028-1.03h-10.346
			C462.712,755.958,462.249,756.421,462.249,756.988z M475.684,760.076c0.565,0,1.029,0.463,1.029,1.027v24.759
			c0,0.566-0.464,1.029-1.029,1.029h-14.463c-0.566,0-1.029-0.463-1.029-1.029v-24.759c0-0.564,0.463-1.027,1.029-1.027H475.684z"/>
		<path id="b01Bat2" fill-opacity="0" d="M462.249,778.143v-3.089c0-0.309,0.206-0.515,0.516-0.515h11.375
			c0.309,0,0.515,0.206,0.515,0.515v3.089c0,0.31-0.206,0.516-0.515,0.516h-11.375C462.455,778.657,462.249,778.4,462.249,778.143z
			 M474.653,784.319v-3.089c0-0.31-0.206-0.516-0.515-0.516h-11.375c-0.31,0-0.516,0.206-0.516,0.516v3.089
			c0,0.309,0.206,0.515,0.516,0.515h11.375C474.396,784.834,474.653,784.577,474.653,784.319z M462.249,756.988v1.027h-2.059
			c-1.134,0-2.061,0.928-2.061,2.061v26.815c0,1.134,0.927,2.061,2.061,2.061h16.521c1.132,0,2.06-0.927,2.06-2.061v-26.766
			c0-1.133-0.928-2.059-2.06-2.059h-2.06v-1.029c0-0.566-0.463-1.03-1.028-1.03h-10.346
			C462.712,755.958,462.249,756.421,462.249,756.988z M475.684,760.076c0.565,0,1.029,0.463,1.029,1.027v24.759
			c0,0.566-0.464,1.029-1.029,1.029h-14.463c-0.566,0-1.029-0.463-1.029-1.029v-24.759c0-0.564,0.463-1.027,1.029-1.027H475.684z"/>
		<path id="b01Bat1" fill-opacity="0" d="M474.653,784.319v-3.089c0-0.31-0.206-0.516-0.515-0.516h-11.375
			c-0.31,0-0.516,0.206-0.516,0.516v3.089c0,0.309,0.206,0.515,0.516,0.515h11.375C474.447,784.834,474.653,784.577,474.653,784.319
			z M462.249,756.988v1.027h-2.059c-1.134,0-2.061,0.928-2.061,2.061v26.815c0,1.134,0.927,2.061,2.061,2.061h16.521
			c1.132,0,2.06-0.927,2.06-2.061v-26.766c0-1.133-0.928-2.059-2.06-2.059h-2.06v-1.029c0-0.566-0.463-1.03-1.028-1.03h-10.346
			C462.765,755.958,462.249,756.421,462.249,756.988z M475.684,760.076c0.565,0,1.029,0.463,1.029,1.027v24.759
			c0,0.566-0.464,1.029-1.029,1.029h-14.463c-0.566,0-1.029-0.463-1.029-1.029v-24.759c0-0.564,0.463-1.027,1.029-1.027H475.684z"/>
		<path id="b01Bat0" fill-opacity="0" d="M462.249,756.988v1.027h-2.059c-1.134,0-2.061,0.928-2.061,2.061v26.815
			c0,1.134,0.927,2.061,2.061,2.061h16.521c1.132,0,2.06-0.927,2.06-2.061v-26.766c0-1.133-0.928-2.059-2.06-2.059h-2.06v-1.029
			c0-0.566-0.463-1.03-1.028-1.03h-10.346C462.765,755.958,462.249,756.421,462.249,756.988z M475.684,760.076
			c0.565,0,1.029,0.463,1.029,1.027v24.759c0,0.566-0.464,1.029-1.029,1.029h-14.463c-0.566,0-1.029-0.463-1.029-1.029v-24.759
			c0-0.564,0.463-1.027,1.029-1.027H475.684z"/>
	</g>
	<g id="BatSens02">
		<path id="b02Bat4" fill-opacity="0" d="M505.125,756.936v1.03h-2.059c-1.134,0-2.06,0.927-2.06,2.06v26.92
			c-0.052,1.132,0.875,2.059,2.008,2.059h16.522c1.132,0,2.059-0.927,2.059-2.059v-26.817c0-1.133-0.927-2.059-2.059-2.059h-2.061
			v-1.029c0-0.566-0.463-1.03-1.029-1.03h-10.347C505.589,755.907,505.125,756.37,505.125,756.936z M518.508,760.076
			c0.566,0,1.03,0.463,1.03,1.027v24.759c0,0.566-0.464,1.029-1.03,1.029h-14.463c-0.566,0-1.029-0.463-1.029-1.029v-24.81
			c0-0.564,0.463-1.028,1.029-1.028h14.463V760.076z M516.965,780.716c0.309,0,0.514,0.206,0.514,0.516v3.089
			c0,0.309-0.205,0.515-0.514,0.515H505.64c-0.309,0-0.515-0.206-0.515-0.515v-3.089c0-0.31,0.206-0.516,0.515-0.516H516.965z
			 M516.965,774.488c0.309,0,0.514,0.206,0.514,0.515v3.087c0,0.312-0.205,0.518-0.514,0.518H505.64
			c-0.309,0-0.515-0.206-0.515-0.518v-3.087c0-0.309,0.206-0.515,0.515-0.515H516.965z M516.965,768.312
			c0.309,0,0.514,0.205,0.514,0.515v3.089c0,0.309-0.205,0.515-0.514,0.515H505.64c-0.309,0-0.515-0.206-0.515-0.515v-3.089
			c0-0.31,0.206-0.515,0.515-0.515H516.965z M516.965,762.135c0.309,0,0.514,0.206,0.514,0.516v3.089
			c0,0.309-0.205,0.515-0.514,0.515H505.64c-0.309,0-0.515-0.206-0.515-0.515v-3.089c0-0.31,0.206-0.516,0.515-0.516H516.965z
			 M505.64,774.488h11.376c0.31,0,0.516,0.206,0.516,0.515v3.087c0,0.312-0.206,0.518-0.516,0.518H505.64
			c-0.309,0-0.515-0.206-0.515-0.518v-3.087C505.125,774.745,505.331,774.488,505.64,774.488z M505.64,780.716h11.376
			c0.31,0,0.516,0.206,0.516,0.516v3.089c0,0.309-0.206,0.515-0.516,0.515H505.64c-0.309,0-0.515-0.206-0.515-0.515v-3.089
			C505.125,780.922,505.331,780.716,505.64,780.716z M505.64,762.135h11.376c0.31,0,0.516,0.206,0.516,0.516v3.089
			c0,0.309-0.206,0.515-0.516,0.515H505.64c-0.309,0-0.515-0.206-0.515-0.515v-3.089
			C505.125,762.341,505.331,762.135,505.64,762.135z M505.64,768.312h11.376c0.31,0,0.516,0.205,0.516,0.515v3.089
			c0,0.309-0.206,0.515-0.516,0.515H505.64c-0.309,0-0.515-0.206-0.515-0.515v-3.089
			C505.125,768.568,505.331,768.312,505.64,768.312z"/>
		<path id="b02Bat3" d="M505.074,778.143v-3.089c0-0.309,0.206-0.515,0.515-0.515h11.376c0.309,0,0.514,0.206,0.514,0.515v3.089
			c0,0.31-0.205,0.516-0.514,0.516h-11.376C505.28,778.657,505.074,778.4,505.074,778.143z M517.479,784.319v-3.089
			c0-0.31-0.205-0.516-0.514-0.516h-11.376c-0.309,0-0.515,0.206-0.515,0.516v3.089c0,0.309,0.206,0.515,0.515,0.515h11.376
			C517.222,784.834,517.479,784.577,517.479,784.319z M517.479,771.915v-3.089c0-0.31-0.205-0.516-0.514-0.516h-11.376
			c-0.309,0-0.515,0.206-0.515,0.516v3.089c0,0.309,0.206,0.515,0.515,0.515h11.376C517.222,772.43,517.479,772.224,517.479,771.915
			z M505.074,756.988v1.027h-2.06c-1.133,0-2.06,0.928-2.06,2.061v26.815c0,1.134,0.927,2.061,2.06,2.061h16.522
			c1.132,0,2.059-0.927,2.059-2.061v-26.766c0-1.133-0.927-2.059-2.059-2.059h-2.061v-1.029c0-0.566-0.463-1.03-1.029-1.03h-10.347
			C505.537,755.958,505.074,756.421,505.074,756.988z M518.508,760.076c0.566,0,1.03,0.463,1.03,1.027v24.759
			c0,0.566-0.464,1.029-1.03,1.029h-14.463c-0.566,0-1.029-0.463-1.029-1.029v-24.759c0-0.564,0.463-1.027,1.029-1.027H518.508z"/>
		<path id="b02Bat2" fill-opacity="0" d="M505.074,778.143v-3.089c0-0.309,0.206-0.515,0.515-0.515h11.376
			c0.309,0,0.514,0.206,0.514,0.515v3.089c0,0.31-0.205,0.516-0.514,0.516h-11.376C505.28,778.657,505.074,778.4,505.074,778.143z
			 M517.479,784.319v-3.089c0-0.31-0.205-0.516-0.514-0.516h-11.376c-0.309,0-0.515,0.206-0.515,0.516v3.089
			c0,0.309,0.206,0.515,0.515,0.515h11.376C517.222,784.834,517.479,784.577,517.479,784.319z M505.074,756.988v1.027h-2.06
			c-1.133,0-2.06,0.928-2.06,2.061v26.815c0,1.134,0.927,2.061,2.06,2.061h16.522c1.132,0,2.059-0.927,2.059-2.061v-26.766
			c0-1.133-0.927-2.059-2.059-2.059h-2.061v-1.029c0-0.566-0.463-1.03-1.029-1.03h-10.347
			C505.537,755.958,505.074,756.421,505.074,756.988z M518.508,760.076c0.566,0,1.03,0.463,1.03,1.027v24.759
			c0,0.566-0.464,1.029-1.03,1.029h-14.463c-0.566,0-1.029-0.463-1.029-1.029v-24.759c0-0.564,0.463-1.027,1.029-1.027H518.508z"/>
		<path id="b02Bat1" fill-opacity="0" d="M517.479,784.319v-3.089c0-0.31-0.205-0.516-0.514-0.516h-11.376
			c-0.309,0-0.515,0.206-0.515,0.516v3.089c0,0.309,0.206,0.515,0.515,0.515h11.376
			C517.271,784.834,517.479,784.577,517.479,784.319z M505.074,756.988v1.027h-2.06c-1.133,0-2.06,0.928-2.06,2.061v26.815
			c0,1.134,0.927,2.061,2.06,2.061h16.522c1.132,0,2.059-0.927,2.059-2.061v-26.766c0-1.133-0.927-2.059-2.059-2.059h-2.061v-1.029
			c0-0.566-0.463-1.03-1.029-1.03h-10.347C505.589,755.958,505.074,756.421,505.074,756.988z M518.508,760.076
			c0.566,0,1.03,0.463,1.03,1.027v24.759c0,0.566-0.464,1.029-1.03,1.029h-14.463c-0.566,0-1.029-0.463-1.029-1.029v-24.759
			c0-0.564,0.463-1.027,1.029-1.027H518.508z"/>
		<path id="b02Bat0" fill-opacity="0" d="M505.074,756.988v1.027h-2.06c-1.133,0-2.06,0.928-2.06,2.061v26.815
			c0,1.134,0.927,2.061,2.06,2.061h16.522c1.132,0,2.059-0.927,2.059-2.061v-26.766c0-1.133-0.927-2.059-2.059-2.059h-2.061v-1.029
			c0-0.566-0.463-1.03-1.029-1.03h-10.347C505.589,755.958,505.074,756.421,505.074,756.988z M518.508,760.076
			c0.566,0,1.03,0.463,1.03,1.027v24.759c0,0.566-0.464,1.029-1.03,1.029h-14.463c-0.566,0-1.029-0.463-1.029-1.029v-24.759
			c0-0.564,0.463-1.027,1.029-1.027H518.508z"/>
	</g>
	<g id="BatSens03">
		<path id="b03Bat4" fill-opacity="0" d="M547.847,756.936v1.03h-2.059c-1.133,0-2.061,0.927-2.061,2.06v26.92
			c-0.051,1.132,0.876,2.059,2.009,2.059h16.521c1.133,0,2.061-0.927,2.061-2.059v-26.817c0-1.133-0.928-2.059-2.061-2.059H560.2
			v-1.029c0-0.566-0.463-1.03-1.03-1.03h-10.346C548.31,755.907,547.847,756.37,547.847,756.936z M561.229,760.076
			c0.567,0,1.03,0.463,1.03,1.027v24.759c0,0.566-0.463,1.029-1.03,1.029h-14.462c-0.565,0-1.029-0.463-1.029-1.029v-24.81
			c0-0.564,0.464-1.028,1.029-1.028h14.462V760.076z M559.686,780.716c0.31,0,0.516,0.206,0.516,0.516v3.089
			c0,0.309-0.206,0.515-0.516,0.515h-11.323c-0.31,0-0.516-0.206-0.516-0.515v-3.089c0-0.31,0.206-0.516,0.516-0.516H559.686z
			 M559.686,774.488c0.31,0,0.516,0.206,0.516,0.515v3.087c0,0.312-0.206,0.518-0.516,0.518h-11.323
			c-0.31,0-0.516-0.206-0.516-0.518v-3.087c0-0.309,0.206-0.515,0.516-0.515H559.686z M559.686,768.312
			c0.31,0,0.516,0.205,0.516,0.515v3.089c0,0.309-0.206,0.515-0.516,0.515h-11.323c-0.31,0-0.516-0.206-0.516-0.515v-3.089
			c0-0.31,0.206-0.515,0.516-0.515H559.686z M559.686,762.135c0.31,0,0.516,0.206,0.516,0.516v3.089
			c0,0.309-0.206,0.515-0.516,0.515h-11.323c-0.31,0-0.516-0.206-0.516-0.515v-3.089c0-0.31,0.206-0.516,0.516-0.516H559.686z
			 M548.361,774.488h11.376c0.308,0,0.514,0.206,0.514,0.515v3.087c0,0.312-0.206,0.518-0.514,0.518h-11.376
			c-0.31,0-0.516-0.206-0.516-0.518v-3.087C547.847,774.745,548.053,774.488,548.361,774.488z M548.361,780.716h11.376
			c0.308,0,0.514,0.206,0.514,0.516v3.089c0,0.309-0.206,0.515-0.514,0.515h-11.376c-0.31,0-0.516-0.206-0.516-0.515v-3.089
			C547.847,780.922,548.053,780.716,548.361,780.716z M548.361,762.135h11.376c0.308,0,0.514,0.206,0.514,0.516v3.089
			c0,0.309-0.206,0.515-0.514,0.515h-11.376c-0.31,0-0.516-0.206-0.516-0.515v-3.089
			C547.847,762.341,548.053,762.135,548.361,762.135z M548.361,768.312h11.376c0.308,0,0.514,0.205,0.514,0.515v3.089
			c0,0.309-0.206,0.515-0.514,0.515h-11.376c-0.31,0-0.516-0.206-0.516-0.515v-3.089
			C547.847,768.568,548.053,768.312,548.361,768.312z"/>
		<path id="b03Bat3" d="M547.796,778.143v-3.089c0-0.309,0.206-0.515,0.514-0.515h11.376c0.31,0,0.516,0.206,0.516,0.515v3.089
			c0,0.31-0.206,0.516-0.516,0.516H548.31C548.002,778.657,547.796,778.4,547.796,778.143z M560.2,784.319v-3.089
			c0-0.31-0.206-0.516-0.516-0.516H548.31c-0.308,0-0.514,0.206-0.514,0.516v3.089c0,0.309,0.206,0.515,0.514,0.515h11.376
			C559.943,784.834,560.2,784.577,560.2,784.319z M560.2,771.915v-3.089c0-0.31-0.206-0.516-0.516-0.516H548.31
			c-0.308,0-0.514,0.206-0.514,0.516v3.089c0,0.309,0.206,0.515,0.514,0.515h11.376C559.943,772.43,560.2,772.224,560.2,771.915z
			 M547.796,756.988v1.027h-2.06c-1.133,0-2.06,0.928-2.06,2.061v26.815c0,1.134,0.927,2.061,2.06,2.061h16.521
			c1.133,0,2.061-0.927,2.061-2.061v-26.766c0-1.133-0.928-2.059-2.061-2.059H560.2v-1.029c0-0.566-0.463-1.03-1.03-1.03h-10.346
			C548.259,755.958,547.796,756.421,547.796,756.988z M561.229,760.076c0.567,0,1.03,0.463,1.03,1.027v24.759
			c0,0.566-0.463,1.029-1.03,1.029h-14.462c-0.565,0-1.029-0.463-1.029-1.029v-24.759c0-0.564,0.464-1.027,1.029-1.027H561.229z"/>
		<path id="b03Bat2" fill-opacity="0" d="M547.796,778.143v-3.089c0-0.309,0.206-0.515,0.514-0.515h11.376
			c0.31,0,0.516,0.206,0.516,0.515v3.089c0,0.31-0.206,0.516-0.516,0.516H548.31C548.002,778.657,547.796,778.4,547.796,778.143z
			 M560.2,784.319v-3.089c0-0.31-0.206-0.516-0.516-0.516H548.31c-0.308,0-0.514,0.206-0.514,0.516v3.089
			c0,0.309,0.206,0.515,0.514,0.515h11.376C559.943,784.834,560.2,784.577,560.2,784.319z M547.796,756.988v1.027h-2.06
			c-1.133,0-2.06,0.928-2.06,2.061v26.815c0,1.134,0.927,2.061,2.06,2.061h16.521c1.133,0,2.061-0.927,2.061-2.061v-26.766
			c0-1.133-0.928-2.059-2.061-2.059H560.2v-1.029c0-0.566-0.463-1.03-1.03-1.03h-10.346
			C548.259,755.958,547.796,756.421,547.796,756.988z M561.229,760.076c0.567,0,1.03,0.463,1.03,1.027v24.759
			c0,0.566-0.463,1.029-1.03,1.029h-14.462c-0.565,0-1.029-0.463-1.029-1.029v-24.759c0-0.564,0.464-1.027,1.029-1.027H561.229z"/>
		<path id="b03Bat1" fill-opacity="0" d="M560.2,784.319v-3.089c0-0.31-0.206-0.516-0.516-0.516H548.31
			c-0.308,0-0.514,0.206-0.514,0.516v3.089c0,0.309,0.206,0.515,0.514,0.515h11.376C559.994,784.834,560.2,784.577,560.2,784.319z
			 M547.796,756.988v1.027h-2.06c-1.133,0-2.06,0.928-2.06,2.061v26.815c0,1.134,0.927,2.061,2.06,2.061h16.521
			c1.133,0,2.061-0.927,2.061-2.061v-26.766c0-1.133-0.928-2.059-2.061-2.059H560.2v-1.029c0-0.566-0.463-1.03-1.03-1.03h-10.346
			C548.31,755.958,547.796,756.421,547.796,756.988z M561.229,760.076c0.567,0,1.03,0.463,1.03,1.027v24.759
			c0,0.566-0.463,1.029-1.03,1.029h-14.462c-0.565,0-1.029-0.463-1.029-1.029v-24.759c0-0.564,0.464-1.027,1.029-1.027H561.229z"/>
		<path id="b03Bat0" d="M547.796,756.988v1.027h-2.06c-1.133,0-2.06,0.928-2.06,2.061v26.815c0,1.134,0.927,2.061,2.06,2.061h16.521
			c1.133,0,2.061-0.927,2.061-2.061v-26.766c0-1.133-0.928-2.059-2.061-2.059H560.2v-1.029c0-0.566-0.463-1.03-1.03-1.03h-10.346
			C548.31,755.958,547.796,756.421,547.796,756.988z M561.229,760.076c0.567,0,1.03,0.463,1.03,1.027v24.759
			c0,0.566-0.463,1.029-1.03,1.029h-14.462c-0.565,0-1.029-0.463-1.029-1.029v-24.759c0-0.564,0.464-1.027,1.029-1.027H561.229z"/>
	</g>
	<g id="BatSens04">
		<path id="b04Bat4" fill-opacity="0" d="M589.898,756.936v1.03h-2.06c-1.133,0-2.059,0.927-2.059,2.06v26.92
			c-0.053,1.132,0.875,2.059,2.008,2.059h16.521c1.133,0,2.06-0.927,2.06-2.059v-26.817c0-1.133-0.927-2.059-2.06-2.059h-2.06
			v-1.029c0-0.566-0.463-1.03-1.029-1.03h-10.345C590.362,755.907,589.898,756.37,589.898,756.936z M603.281,760.076
			c0.565,0,1.029,0.463,1.029,1.027v24.759c0,0.566-0.464,1.029-1.029,1.029h-14.462c-0.567,0-1.03-0.463-1.03-1.029v-24.81
			c0-0.564,0.463-1.028,1.03-1.028h14.462V760.076z M601.738,780.716c0.309,0,0.514,0.206,0.514,0.516v3.089
			c0,0.309-0.205,0.515-0.514,0.515h-11.325c-0.31,0-0.515-0.206-0.515-0.515v-3.089c0-0.31,0.205-0.516,0.515-0.516H601.738z
			 M601.738,774.488c0.309,0,0.514,0.206,0.514,0.515v3.087c0,0.312-0.205,0.518-0.514,0.518h-11.325
			c-0.31,0-0.515-0.206-0.515-0.518v-3.087c0-0.309,0.205-0.515,0.515-0.515H601.738z M601.738,768.312
			c0.309,0,0.514,0.205,0.514,0.515v3.089c0,0.309-0.205,0.515-0.514,0.515h-11.325c-0.31,0-0.515-0.206-0.515-0.515v-3.089
			c0-0.31,0.205-0.515,0.515-0.515H601.738z M601.738,762.135c0.309,0,0.514,0.206,0.514,0.516v3.089
			c0,0.309-0.205,0.515-0.514,0.515h-11.325c-0.31,0-0.515-0.206-0.515-0.515v-3.089c0-0.31,0.205-0.516,0.515-0.516H601.738z
			 M590.413,774.488h11.376c0.309,0,0.515,0.206,0.515,0.515v3.087c0,0.312-0.206,0.518-0.515,0.518h-11.376
			c-0.31,0-0.515-0.206-0.515-0.518v-3.087C589.898,774.745,590.104,774.488,590.413,774.488z M590.413,780.716h11.376
			c0.309,0,0.515,0.206,0.515,0.516v3.089c0,0.309-0.206,0.515-0.515,0.515h-11.376c-0.31,0-0.515-0.206-0.515-0.515v-3.089
			C589.898,780.922,590.104,780.716,590.413,780.716z M590.413,762.135h11.376c0.309,0,0.515,0.206,0.515,0.516v3.089
			c0,0.309-0.206,0.515-0.515,0.515h-11.376c-0.31,0-0.515-0.206-0.515-0.515v-3.089
			C589.898,762.341,590.104,762.135,590.413,762.135z M590.413,768.312h11.376c0.309,0,0.515,0.205,0.515,0.515v3.089
			c0,0.309-0.206,0.515-0.515,0.515h-11.376c-0.31,0-0.515-0.206-0.515-0.515v-3.089
			C589.898,768.568,590.104,768.312,590.413,768.312z"/>
		<path id="b04Bat3" d="M589.848,778.143v-3.089c0-0.309,0.206-0.515,0.516-0.515h11.376c0.309,0,0.514,0.206,0.514,0.515v3.089
			c0,0.31-0.205,0.516-0.514,0.516h-11.376C590.054,778.657,589.848,778.4,589.848,778.143z M602.252,784.319v-3.089
			c0-0.31-0.205-0.516-0.514-0.516h-11.376c-0.31,0-0.516,0.206-0.516,0.516v3.089c0,0.309,0.206,0.515,0.516,0.515h11.376
			C601.995,784.834,602.252,784.577,602.252,784.319z M602.252,771.915v-3.089c0-0.31-0.205-0.516-0.514-0.516h-11.376
			c-0.31,0-0.516,0.206-0.516,0.516v3.089c0,0.309,0.206,0.515,0.516,0.515h11.376C601.995,772.43,602.252,772.224,602.252,771.915z
			 M589.848,756.988v1.027h-2.059c-1.133,0-2.061,0.928-2.061,2.061v26.815c0,1.134,0.928,2.061,2.061,2.061h16.521
			c1.133,0,2.06-0.927,2.06-2.061v-26.766c0-1.133-0.927-2.059-2.06-2.059h-2.06v-1.029c0-0.566-0.463-1.03-1.029-1.03h-10.345
			C590.311,755.958,589.848,756.421,589.848,756.988z M603.281,760.076c0.565,0,1.029,0.463,1.029,1.027v24.759
			c0,0.566-0.464,1.029-1.029,1.029h-14.462c-0.567,0-1.03-0.463-1.03-1.029v-24.759c0-0.564,0.463-1.027,1.03-1.027H603.281z"/>
		<path id="b04Bat2" fill-opacity="0" d="M589.848,778.143v-3.089c0-0.309,0.206-0.515,0.516-0.515h11.376
			c0.309,0,0.514,0.206,0.514,0.515v3.089c0,0.31-0.205,0.516-0.514,0.516h-11.376C590.054,778.657,589.848,778.4,589.848,778.143z
			 M602.252,784.319v-3.089c0-0.31-0.205-0.516-0.514-0.516h-11.376c-0.31,0-0.516,0.206-0.516,0.516v3.089
			c0,0.309,0.206,0.515,0.516,0.515h11.376C601.995,784.834,602.252,784.577,602.252,784.319z M589.848,756.988v1.027h-2.059
			c-1.133,0-2.061,0.928-2.061,2.061v26.815c0,1.134,0.928,2.061,2.061,2.061h16.521c1.133,0,2.06-0.927,2.06-2.061v-26.766
			c0-1.133-0.927-2.059-2.06-2.059h-2.06v-1.029c0-0.566-0.463-1.03-1.029-1.03h-10.345
			C590.311,755.958,589.848,756.421,589.848,756.988z M603.281,760.076c0.565,0,1.029,0.463,1.029,1.027v24.759
			c0,0.566-0.464,1.029-1.029,1.029h-14.462c-0.567,0-1.03-0.463-1.03-1.029v-24.759c0-0.564,0.463-1.027,1.03-1.027H603.281z"/>
		<path id="b04Bat1" fill-opacity="0" d="M602.252,784.319v-3.089c0-0.31-0.205-0.516-0.514-0.516h-11.376
			c-0.31,0-0.516,0.206-0.516,0.516v3.089c0,0.309,0.206,0.515,0.516,0.515h11.376C602.047,784.834,602.252,784.577,602.252,784.319
			z M589.848,756.988v1.027h-2.059c-1.133,0-2.061,0.928-2.061,2.061v26.815c0,1.134,0.928,2.061,2.061,2.061h16.521
			c1.133,0,2.06-0.927,2.06-2.061v-26.766c0-1.133-0.927-2.059-2.06-2.059h-2.06v-1.029c0-0.566-0.463-1.03-1.029-1.03h-10.345
			C590.362,755.958,589.848,756.421,589.848,756.988z M603.281,760.076c0.565,0,1.029,0.463,1.029,1.027v24.759
			c0,0.566-0.464,1.029-1.029,1.029h-14.462c-0.567,0-1.03-0.463-1.03-1.029v-24.759c0-0.564,0.463-1.027,1.03-1.027H603.281z"/>
		<path id="b04Bat0" fill-opacity="0" d="M589.848,756.988v1.027h-2.059c-1.133,0-2.061,0.928-2.061,2.061v26.815
			c0,1.134,0.928,2.061,2.061,2.061h16.521c1.133,0,2.06-0.927,2.06-2.061v-26.766c0-1.133-0.927-2.059-2.06-2.059h-2.06v-1.029
			c0-0.566-0.463-1.03-1.029-1.03h-10.345C590.362,755.958,589.848,756.421,589.848,756.988z M603.281,760.076
			c0.565,0,1.029,0.463,1.029,1.027v24.759c0,0.566-0.464,1.029-1.029,1.029h-14.462c-0.567,0-1.03-0.463-1.03-1.029v-24.759
			c0-0.564,0.463-1.027,1.03-1.027H603.281z"/>
	</g>
</g>
<g id="wind_x5F_display">
	<g id="Windmill_x5F_Gfx">
		<circle cx="331.019" cy="744.827" r="2.833"/>
		<path d="M335.818,741.994c7.711-13.848,8.97-19.354,8.262-19.828c-0.709-0.393-4.88,3.463-12.981,16.996
			C333.062,739.241,334.875,740.343,335.818,741.994z"/>
		<path d="M325.431,744.828c0-1.022,0.238-1.969,0.71-2.754c-15.815,0.313-21.247,1.888-21.247,2.754
			c0,0.865,5.43,2.438,21.247,2.753C325.669,746.716,325.431,745.771,325.431,744.828z"/>
		<path d="M335.818,747.581c-0.943,1.652-2.757,2.754-4.721,2.754c8.184,13.535,12.272,17.468,12.981,16.996
			C344.788,767.016,343.45,761.43,335.818,747.581z"/>
		<path d="M328.188,751.043v1.18v37.297h5.586v-29.584C332.198,757.574,330.31,754.662,328.188,751.043z"/>
	</g>
	<path id="wdno" fill-opacity="0" d="M219.682,561.812l-12.195-12.195c0,0,0,0,0-0.078c-0.472-0.473-0.944-0.709-1.573-0.867
		c0,0,0,0-0.079,0c-0.236-0.077-0.393-0.077-0.629-0.077l0,0l0,0c-0.236,0-0.394,0-0.629,0.077c0,0,0,0-0.08,0
		c-0.55,0.158-1.102,0.396-1.574,0.867c0,0,0,0,0,0.078l-12.195,12.195c-1.259,1.26-1.259,3.227,0,4.484
		c1.259,1.26,3.226,1.26,4.485,0l6.846-6.846v21.479c0,1.731,1.416,3.147,3.147,3.147c1.73,0,3.147-1.416,3.147-3.147v-21.479
		l6.845,6.846c1.259,1.26,3.227,1.26,4.484,0C220.941,565.038,220.862,563.071,219.682,561.812z"/>
	<path id="wdso" fill-opacity="0" d="M190.728,770.006l12.195,12.195c0,0,0,0,0,0.079c0.473,0.472,0.944,0.708,1.574,0.864
		c0,0,0,0,0.08,0c0.235,0.079,0.393,0.079,0.629,0.079l0,0l0,0c0.236,0,0.393,0,0.629-0.079c0,0,0,0,0.079,0
		c0.551-0.156,1.102-0.394,1.573-0.864c0,0,0,0,0-0.079l12.195-12.195c1.26-1.259,1.26-3.226,0-4.482
		c-1.258-1.263-3.226-1.261-4.484,0l-6.845,6.843v-21.479c0-1.73-1.417-3.146-3.147-3.146c-1.731,0-3.147,1.416-3.147,3.146v21.479
		l-6.846-6.843c-1.259-1.261-3.226-1.261-4.485,0C189.547,766.78,189.547,768.747,190.728,770.006z"/>
	<path id="wdse" fill-opacity="0" d="M267.521,747.738h17.234c0,0,0,0,0.077,0c0.63,0,1.181-0.157,1.652-0.473c0,0,0,0,0.077,0
		c0.159-0.078,0.317-0.235,0.474-0.395l0,0l0,0c0.156-0.156,0.315-0.313,0.393-0.471c0,0,0,0,0-0.079
		c0.315-0.474,0.472-1.102,0.472-1.652c0,0,0,0,0-0.078V727.28c0-1.73-1.417-3.147-3.146-3.147c-1.733,0-3.15,1.417-3.15,3.147
		v9.678l-15.184-15.186c-1.26-1.259-3.226-1.259-4.486,0c-1.259,1.259-1.259,3.227,0,4.483l15.185,15.188h-9.677
		c-1.73,0-3.146,1.415-3.146,3.146C264.374,746.322,265.791,747.738,267.521,747.738z"/>
	<path id="wdnw" fill-opacity="0" d="M142.888,583.136h-17.231c0,0,0,0-0.079,0c-0.629,0-1.18,0.156-1.653,0.473c0,0,0,0-0.079,0
		c-0.158,0.078-0.315,0.234-0.472,0.393l0,0l0,0c-0.157,0.158-0.314,0.315-0.393,0.473c0,0,0,0,0,0.079
		c-0.315,0.473-0.473,1.102-0.473,1.652c0,0,0,0,0,0.079v17.229c0,1.732,1.417,3.148,3.148,3.148c1.73,0,3.147-1.416,3.147-3.148
		v-9.677l15.186,15.185c1.258,1.261,3.226,1.261,4.484,0c1.259-1.259,1.259-3.226,0-4.482l-15.185-15.188h9.677
		c1.731,0,3.147-1.415,3.147-3.146C146.035,584.552,144.619,583.136,142.888,583.136z"/>
	<path id="wdsw" fill-opacity="0" d="M122.353,728.382v17.232c0,0,0,0,0,0.079c0,0.629,0.157,1.179,0.471,1.651c0,0,0,0,0,0.077
		c0.079,0.158,0.237,0.315,0.394,0.472l0,0l0,0c0.157,0.159,0.314,0.316,0.472,0.396c0,0,0,0,0.079,0
		c0.473,0.314,1.102,0.473,1.652,0.473c0,0,0,0,0.079,0h17.231c1.731,0,3.148-1.416,3.148-3.146c0-1.731-1.417-3.147-3.148-3.147
		h-9.678l15.186-15.186c1.259-1.26,1.259-3.229,0-4.485c-1.259-1.26-3.226-1.26-4.485,0l-15.186,15.187v-9.679
		c0-1.73-1.416-3.146-3.147-3.146C123.769,725.235,122.353,726.651,122.353,728.382z"/>
	<path id="wdea" fill-opacity="0" d="M309.302,680.387l12.196-12.196c0,0,0,0,0.077,0c0.473-0.473,0.708-0.943,0.866-1.572
		c0,0,0,0,0-0.078c0.08-0.235,0.08-0.396,0.08-0.63l0,0l0,0c0-0.236,0-0.395-0.08-0.63c0,0,0,0,0-0.079
		c-0.158-0.549-0.395-1.101-0.866-1.573c0,0,0,0-0.077,0l-12.196-12.195c-1.258-1.26-3.226-1.26-4.485,0
		c-1.258,1.261-1.258,3.226,0,4.484l6.845,6.845h-21.479c-1.733,0-3.147,1.417-3.147,3.148c0,1.73,1.414,3.146,3.147,3.146h21.479
		l-6.845,6.846c-1.258,1.259-1.258,3.228,0,4.484C306.076,681.566,308.044,681.566,309.302,680.387z"/>
	<path id="wdwe" fill-opacity="0" d="M101.108,651.432l-12.196,12.195c0,0,0,0-0.079,0c-0.472,0.474-0.708,0.945-0.866,1.573
		c0,0,0,0,0,0.079c-0.078,0.235-0.078,0.394-0.078,0.63l0,0l0,0c0,0.234,0,0.393,0.078,0.63c0,0,0,0,0,0.078
		c0.158,0.55,0.394,1.101,0.866,1.572c0,0,0,0,0.079,0l12.196,12.196c1.259,1.259,3.226,1.259,4.485,0
		c1.259-1.258,1.259-3.227,0-4.484l-6.845-6.846h21.481c1.73,0,3.146-1.416,3.146-3.146c0-1.731-1.416-3.148-3.146-3.148H98.748
		l6.845-6.845c1.259-1.26,1.259-3.227,0-4.484C104.334,650.251,102.367,650.251,101.108,651.432z"/>
	<path id="wdne" fill-opacity="0" d="M287.979,603.593V586.36c0,0,0,0,0-0.077c0-0.631-0.158-1.184-0.474-1.654c0,0,0,0,0-0.077
		c-0.078-0.157-0.236-0.314-0.392-0.473l0,0l0,0c-0.159-0.157-0.315-0.315-0.472-0.394c0,0,0,0-0.082,0
		c-0.472-0.314-1.099-0.474-1.65-0.474c0,0,0,0-0.08,0h-17.231c-1.731,0-3.148,1.416-3.148,3.147c0,1.73,1.417,3.147,3.148,3.147
		h9.678l-15.187,15.185c-1.258,1.261-1.258,3.227,0,4.485c1.26,1.259,3.227,1.259,4.484,0l15.187-15.186v9.678
		c0,1.729,1.416,3.146,3.148,3.146C286.561,606.74,287.979,605.324,287.979,603.593z"/>
	<text transform="matrix(1 0 0 1 201.0601 660.2705)" font-family="'ArialMT'" font-size="61.3723" text-anchor="middle">WSP</text>
	<text transform="matrix(1 0 0 1 201.7451 715.3594)" font-family="'ArialMT'" font-size="61.3723" text-anchor="middle">WGUS</text>
	<text transform="matrix(1 0 0 1 173.2715 610.0352)" font-family="'ArialMT'" font-size="14.1628">Wind (mph)</text>
	<text transform="matrix(1 0 0 1 174.2056 729.1357)" font-family="'ArialMT'" font-size="14.1628">Gust (mph)</text>
	<text transform="matrix(1 0 0 1 90.7432 670.0918)" font-family="'ArialMT'" font-size="11.0155">W</text>
	<text transform="matrix(1 0 0 1 201.7451 780.2803)" font-family="'ArialMT'" font-size="11.0155">S</text>
	<text transform="matrix(1 0 0 1 201.1709 560.709)" font-family="'ArialMT'" font-size="11.0155">N</text>
	<text transform="matrix(1 0 0 1 311.8994 670.123)" font-family="'ArialMT'" font-size="11.0155">E</text>
	
		<line fill="none" stroke="#000000" stroke-width="2" stroke-miterlimit="10" x1="139.505" y1="665.909" x2="274.524" y2="665.909"/>
	
		<circle id="Wind_x5F_Circle" fill="none" stroke="#000000" stroke-width="3" stroke-miterlimit="10" cx="205.205" cy="665.908" r="117.237"/>
	<text transform="matrix(1 0 0 1 58.0693 782.3594)" font-family="'ArialMT'" font-size="28.3257">WDIRECT</text>
</g>
<g id="temp_x5F_display">
	<path id="ple" fill-opacity="0" d="M429.255,732.997l15.345-15.345c0,0,0,0,0.101,0c0.594-0.595,0.891-1.188,1.089-1.979
		c0,0,0,0,0-0.1c0.099-0.297,0.099-0.495,0.099-0.792l0,0l0,0c0-0.297,0-0.495-0.099-0.792c0,0,0,0,0-0.1
		c-0.198-0.692-0.495-1.386-1.089-1.979c0,0,0,0-0.101,0l-15.345-15.345c-1.584-1.584-4.059-1.584-5.643,0s-1.584,4.059,0,5.644
		l8.611,8.612h-27.025c-2.18,0-3.96,1.782-3.96,3.96c0,2.179,1.78,3.96,3.96,3.96h27.025l-8.611,8.613
		c-1.584,1.584-1.584,4.059,0,5.644C425.196,734.581,427.671,734.581,429.255,732.997z"/>
	<path id="pup" fill-opacity="0" d="M441.828,709.139l-15.345-15.345c0,0,0,0,0-0.1c-0.596-0.595-1.188-0.892-1.98-1.089
		c0,0,0,0-0.099,0c-0.297-0.1-0.495-0.1-0.792-0.1l0,0l0,0c-0.297,0-0.495,0-0.792,0.1c0,0,0,0-0.101,0
		c-0.691,0.197-1.386,0.494-1.979,1.089c0,0,0,0,0,0.1l-15.345,15.345c-1.585,1.584-1.585,4.06,0,5.644
		c1.584,1.584,4.059,1.584,5.643,0l8.613-8.612v27.026c0,2.178,1.78,3.96,3.96,3.96c2.178,0,3.96-1.782,3.96-3.96V706.17
		l8.612,8.612c1.584,1.584,4.06,1.584,5.644,0S443.412,710.723,441.828,709.139z"/>
	<path id="pdn" fill-opacity="0" d="M405.396,720.523l15.345,15.345c0,0,0,0,0,0.1c0.594,0.594,1.188,0.892,1.979,1.089
		c0,0,0,0,0.101,0c0.297,0.1,0.495,0.1,0.792,0.1l0,0l0,0c0.297,0,0.495,0,0.792-0.1c0,0,0,0,0.099,0
		c0.693-0.197,1.386-0.495,1.98-1.089c0,0,0,0,0-0.1l15.345-15.345c1.584-1.584,1.584-4.06,0-5.644s-4.061-1.584-5.645,0
		l-8.611,8.612v-27.026c0-2.179-1.782-3.96-3.96-3.96c-2.18,0-3.96,1.781-3.96,3.96v27.026l-8.613-8.612
		c-1.584-1.584-4.061-1.584-5.645,0S403.812,718.939,405.396,720.523z"/>
	<text transform="matrix(1 0 0 1 16.9199 248.9111)" font-family="'ArialMT'" font-size="17.82">TMP1LABEL (F)</text>
	<text transform="matrix(1 0 0 1 401.04 341.9238)" font-family="'ArialMT'" font-size="17.82">TMP4LABEL (F)</text>
	<text transform="matrix(1 0 0 1 401.04 386.5498)" font-family="'ArialMT'" font-size="55">TMP4TMP</text>
	<text transform="matrix(1 0 0 1 499.376 643.3789)" font-family="'ArialMT'" font-size="14">Dew Point (F)</text>
	<text transform="matrix(1 0 0 1 496.376 673.4395)" font-family="'ArialMT'" font-size="33">DWPNT</text>
	<text transform="matrix(1 0 0 1 401.04 643.3789)" font-family="'ArialMT'" font-size="14">Rel Hum (%)</text>
	<text transform="matrix(1 0 0 1 400.1992 673.9854)" font-family="'ArialMT'" font-size="33">RELHUM</text>
	<text transform="matrix(1 0 0 1 456 701.6641)" font-family="'ArialMT'" font-size="17.82">Pressure (hPa)</text>
	<text transform="matrix(1 0 0 1 452 738.8857)" font-family="'ArialMT'" font-size="44">PRESS</text>
	<text transform="matrix(1 0 0 1 401.2383 116.4346)" font-family="'ArialMT'" font-size="48">FORHI</text>
	<text transform="matrix(1 0 0 1 511.376 116.4346)" font-family="'ArialMT'" font-size="48">FORLO</text>
	<text transform="matrix(1 0 0 1 16.9199 72.6914)" font-family="'ArialMT'" font-size="17.82">TMP0LABEL (F)</text>
	<text transform="matrix(1 0 0 1 16.9199 201.3916)" font-family="'ArialMT'" font-size="17.82">TMP0TIME</text>
	<text transform="matrix(1 0 0 1 16.9199 227.1318)" font-family="'ArialMT'" font-size="23.76">H:</text>
	<text transform="matrix(1 0 0 1 46.6201 227.1318)" font-family="'ArialMT'" font-size="23.76">TMP0HI</text>
	<text transform="matrix(1 0 0 1 205.02 227.1318)" font-family="'ArialMT'" font-size="23.76">L:</text>
	<text transform="matrix(1 0 0 1 234.7202 227.1318)" font-family="'ArialMT'" font-size="23.76">TMP0LO</text>
	<text transform="matrix(1 0 0 1 405 401.2129)" font-family="'ArialMT'" font-size="13.86">TMP4TIME</text>
	<text transform="matrix(1 0 0 1 405 415.0732)" font-family="'ArialMT'" font-size="13.86">H:</text>
	<text transform="matrix(1 0 0 1 419.8496 415.0732)" font-family="'ArialMT'" font-size="13.86">TMP4HI</text>
	<text transform="matrix(1 0 0 1 507.96 415.0732)" font-family="'ArialMT'" font-size="13.86">L:</text>
	<text transform="matrix(1 0 0 1 520.8301 415.0732)" font-family="'ArialMT'" font-size="13.86">TMP4LO</text>
	<text transform="matrix(1 0 0 1 401.04 442.292)" font-family="'ArialMT'" font-size="17.82">TMP5LABEL (F)</text>
	<text transform="matrix(1 0 0 1 401.04 487.918)" font-family="'ArialMT'" font-size="55">TMP5TMP</text>
	<text transform="matrix(1 0 0 1 405 502.5811)" font-family="'ArialMT'" font-size="13.86">TMP5TIME</text>
	<text transform="matrix(1 0 0 1 405 516.4414)" font-family="'ArialMT'" font-size="13.86">H:</text>
	<text transform="matrix(1 0 0 1 419.8496 516.4414)" font-family="'ArialMT'" font-size="13.86">TMP5HI</text>
	<text transform="matrix(1 0 0 1 507.96 516.4414)" font-family="'ArialMT'" font-size="13.86">L:</text>
	<text transform="matrix(1 0 0 1 520.8301 516.4414)" font-family="'ArialMT'" font-size="13.86">TMP5LO</text>
	<text transform="matrix(1 0 0 1 401.04 543.4717)" font-family="'ArialMT'" font-size="17.82">TMP6LABEL (F)</text>
	<text transform="matrix(1 0 0 1 401.04 589.0977)" font-family="'ArialMT'" font-size="55">TMP6TMP</text>
	<text transform="matrix(1 0 0 1 405 603.7607)" font-family="'ArialMT'" font-size="13.86">TMP6TIME</text>
	<text transform="matrix(1 0 0 1 405 617.6211)" font-family="'ArialMT'" font-size="13.86">H:</text>
	<text transform="matrix(1 0 0 1 419.8496 617.6211)" font-family="'ArialMT'" font-size="13.86">TMP6HI</text>
	<text transform="matrix(1 0 0 1 507.96 617.6211)" font-family="'ArialMT'" font-size="13.86">L:</text>
	<text transform="matrix(1 0 0 1 520.8301 617.6211)" font-family="'ArialMT'" font-size="13.86">TMP6LO</text>
	<text transform="matrix(1 0 0 1 401.04 241.9639)" font-family="'ArialMT'" font-size="17.82">TMP3LABEL (F)</text>
	<text transform="matrix(1 0 0 1 401.04 286.5898)" font-family="'ArialMT'" font-size="55">TMP3TMP</text>
	<text transform="matrix(1 0 0 1 405 301.2529)" font-family="'ArialMT'" font-size="13.86">TMP3TIME</text>
	<text transform="matrix(1 0 0 1 405 315.1133)" font-family="'ArialMT'" font-size="13.86">H:</text>
	<text transform="matrix(1 0 0 1 419.8496 315.1133)" font-family="'ArialMT'" font-size="13.86">TMP3HI</text>
	<text transform="matrix(1 0 0 1 507.96 315.1133)" font-family="'ArialMT'" font-size="13.86">L:</text>
	<text transform="matrix(1 0 0 1 520.8301 315.1133)" font-family="'ArialMT'" font-size="13.86">TMP3LO</text>
	<text transform="matrix(1 0 0 1 401.04 142.043)" font-family="'ArialMT'" font-size="17.82">TMP2LABEL (F)</text>
	<text transform="matrix(1 0 0 1 401.2383 72.6914)" font-family="'ArialMT'" font-size="17.82">Fcst H:</text>
	<text transform="matrix(1 0 0 1 499.376 72.6914)" font-family="'ArialMT'" font-size="17.82">Fcst L:</text>
	<text transform="matrix(1 0 0 1 401.04 187.6699)" font-family="'ArialMT'" font-size="55">TMP2TMP</text>
	<text transform="matrix(1 0 0 1 405 202.333)" font-family="'ArialMT'" font-size="13.86">TMP2TIME</text>
	<text transform="matrix(1 0 0 1 405 216.1934)" font-family="'ArialMT'" font-size="13.86">H:</text>
	<text transform="matrix(1 0 0 1 419.8496 216.1934)" font-family="'ArialMT'" font-size="13.86">TMP2HI</text>
	<text transform="matrix(1 0 0 1 507.96 216.1934)" font-family="'ArialMT'" font-size="13.86">L:</text>
	<text transform="matrix(1 0 0 1 520.8301 216.1934)" font-family="'ArialMT'" font-size="13.86">TMP2LO</text>
	<text transform="matrix(1 0 0 1 16.9199 360.7812)" font-family="'ArialMT'" font-size="17.82">TMP1TIME</text>
	<text transform="matrix(1 0 0 1 16.9199 386.5215)" font-family="'ArialMT'" font-size="23.76">H:</text>
	<text transform="matrix(1 0 0 1 46.6201 386.5215)" font-family="'ArialMT'" font-size="23.76">TMP1HI</text>
	<text transform="matrix(1 0 0 1 205.02 386.5215)" font-family="'ArialMT'" font-size="23.76">L:</text>
	<text transform="matrix(1 0 0 1 234.7202 386.5215)" font-family="'ArialMT'" font-size="23.76">TMP1LO</text>
	<text transform="matrix(1 0 0 1 8.0098 179.1777)" font-family="'ArialMT'" font-size="133.65">TMP0TMP</text>
	<text transform="matrix(1 0 0 1 8.0098 339.835)" font-family="'ArialMT'" font-size="113.85">TMP1TMP</text>
	<g>
		<rect x="365.994" y="315.612" width="5.445" height="1.485"/>
		<rect x="365.994" y="329.571" width="5.445" height="1.485"/>
		<rect x="365.994" y="343.629" width="5.445" height="1.485"/>
		<path d="M378.963,356.697V308.88c0-5.643-4.554-10.296-10.296-10.296c-5.643,0-10.692,4.554-10.692,10.296v48.213
			c-3.562,3.069-5.841,7.524-5.841,12.573c0,9.108,7.425,16.434,16.436,16.434c9.106,0,16.434-7.425,16.434-16.434
			C385.2,364.419,382.725,359.766,378.963,356.697z M368.766,380.556c-6.039,0-10.89-4.851-10.89-10.89
			c0-4.059,2.277-7.524,5.544-9.405V310.86c0-2.97,2.475-5.346,5.445-5.346c2.97,0,5.443,2.376,5.443,5.346v49.401
			c3.269,1.881,5.445,5.346,5.445,9.405C379.656,375.705,374.805,380.556,368.766,380.556z"/>
		<path d="M371.637,362.439v-10.593h-5.841v10.593c-2.871,1.188-4.851,3.96-4.851,7.128c0,4.257,3.465,7.722,7.722,7.722
			s7.722-3.465,7.722-7.722C376.488,366.399,374.508,363.627,371.637,362.439z"/>
	</g>
</g>
<g id="time_x5F_display">
	<text transform="matrix(1 0 0 1 363.5225 38.8564)" font-family="'ArialMT'" font-size="32.67">SNRISE</text>
	<text transform="matrix(1 0 0 1 16.9199 39.4531)" font-family="'ArialMT'" font-size="35.64">CURTIME</text>
	<text transform="matrix(1 0 0 1 127.5522 36.4834)" font-family="'ArialMT'" font-size="29.7">CURDATE</text>
	<text transform="matrix(1 0 0 1 508.9502 38.8564)" font-family="'ArialMT'" font-size="32.67">SNSET</text>
	<path d="M496.179,29.304c-0.594,0-1.287,0-1.979,0.297c-0.693-4.752-4.853-8.316-9.604-8.316c-0.988,0-1.881,0.198-2.771,0.495
		c0-0.495,0.099-0.891,0.099-1.386c0-4.95-3.168-9.999-7.623-12.375c-0.396-0.198-0.691-0.099-0.99,0.099
		c-0.297,0.297-0.396,0.594-0.297,0.99c0,0,0.792,2.079,0.792,4.158c0,5.841-5.346,10.692-11.583,10.692
		c-2.871,0-5.841-1.584-5.841-1.683c-0.297-0.198-0.692-0.198-0.99,0.099c-0.297,0.198-0.493,0.495-0.396,0.891
		c0.792,3.168,2.97,6.138,5.841,8.118c-1.386,1.485-2.277,3.465-2.277,5.643c0,4.059,3.269,7.623,7.13,7.623h30.393
		c3.861,0,7.128-3.564,7.128-7.623C503.406,32.769,500.04,29.304,496.179,29.304z M457.569,24.75c1.287,0.495,2.97,0.99,4.752,0.99
		c7.227,0,13.363-5.742,13.363-12.474c0-0.792-0.099-1.584-0.297-2.277c2.871,2.277,4.752,5.94,4.752,9.504
		c0,0.693-0.099,1.386-0.196,2.079c-1.388,0.693-2.477,1.683-3.366,2.97c-0.792-0.396-1.685-0.594-2.673-0.594
		c-2.972,0-5.348,1.979-6.039,4.752c-0.595-0.099-1.287-0.198-1.98-0.198c-1.287,0-2.275,0.396-3.365,0.891
		C460.341,28.908,458.559,26.928,457.569,24.75z M496.179,42.669h-30.393c-2.871,0-5.346-2.673-5.346-5.841s2.475-5.841,5.346-5.841
		c0.792,0,1.584,0.198,2.275,0.495c0.299,0.099,0.596,0.099,0.794,0c0.297-0.198,0.493-0.495,0.493-0.693
		c0.101-2.277,2.079-4.158,4.455-4.158c0.893,0,1.782,0.297,2.477,0.693c0.196,0.099,0.495,0.099,0.691,0.099
		c0.297-0.099,0.495-0.198,0.495-0.495c1.386-2.475,4.158-4.059,6.932-4.059c4.257,0,7.819,3.564,8.019,7.821
		c0,0.396,0.198,0.594,0.495,0.792c0.297,0.198,0.594,0.099,0.891-0.099c0.495-0.396,1.089-0.495,2.18-0.495
		c2.869,0,5.346,2.673,5.346,5.841S499.05,42.669,496.179,42.669z"/>
	<g>
		<path d="M355.599,35.442h-8.314c0.099-0.693,0.099-1.287,0.099-1.98c0-8.712-7.027-15.741-15.741-15.741
			c-8.712,0-15.739,7.029-15.739,15.741c0,0.693,0,1.287,0.099,1.98h-8.613c-0.396,0-0.691,0.297-0.691,0.693
			c0,0.396,0.297,0.693,0.691,0.693h48.213c0.396,0,0.693-0.297,0.693-0.693C356.193,35.739,355.896,35.442,355.599,35.442z
			 M317.286,35.442c-0.101-0.693-0.101-1.287-0.101-1.98c0-7.92,6.437-14.454,14.454-14.454c7.92,0,14.454,6.435,14.454,14.454
			c0,0.693,0,1.287-0.099,1.98H317.286z"/>
		<path d="M351.045,39.303h-39.501c-0.396,0-0.693,0.297-0.693,0.693s0.299,0.693,0.693,0.693h39.501
			c0.396,0,0.693-0.297,0.693-0.693C351.639,39.6,351.342,39.303,351.045,39.303z"/>
		<path d="M344.115,43.263H318.87c-0.396,0-0.693,0.297-0.693,0.693s0.297,0.693,0.693,0.693h25.245
			c0.396,0,0.691-0.297,0.691-0.693C344.709,43.56,344.412,43.263,344.115,43.263z"/>
		<path d="M331.443,15.939c0.396,0,0.691-0.297,0.691-0.693V8.613c0-0.396-0.297-0.693-0.691-0.693
			c-0.396,0-0.693,0.297-0.693,0.693v6.732C330.849,15.642,331.146,15.939,331.443,15.939z"/>
		<path d="M356.49,30.888h-5.841c-0.396,0-0.693,0.297-0.693,0.693s0.297,0.693,0.693,0.693h5.841c0.396,0,0.691-0.297,0.691-0.693
			S356.886,30.888,356.49,30.888z"/>
		<path d="M312.93,31.581c0-0.396-0.297-0.693-0.691-0.693h-5.841c-0.396,0-0.693,0.297-0.693,0.693s0.297,0.693,0.693,0.693h5.841
			C312.633,32.175,312.93,31.878,312.93,31.581z"/>
		<path d="M344.709,21.186c0.198,0,0.297-0.099,0.495-0.198l4.752-4.752c0.297-0.297,0.297-0.693,0-0.891
			c-0.297-0.297-0.693-0.297-0.891,0l-4.752,4.752c-0.299,0.297-0.299,0.693,0,0.891C344.412,21.087,344.61,21.186,344.709,21.186z"
			/>
		<path d="M317.88,20.988c0.099,0.099,0.297,0.198,0.495,0.198s0.297-0.099,0.495-0.198c0.297-0.297,0.297-0.693,0-0.891
			l-4.752-4.752c-0.297-0.297-0.693-0.297-0.893,0c-0.297,0.297-0.297,0.693,0,0.891L317.88,20.988z"/>
		<path d="M324.018,16.731c0.101,0.198,0.299,0.396,0.596,0.396c0.099,0,0.196,0,0.297-0.099c0.297-0.198,0.495-0.594,0.297-0.891
			l-2.079-4.158c-0.198-0.297-0.594-0.495-0.891-0.297c-0.297,0.198-0.495,0.594-0.297,0.891L324.018,16.731z"/>
		<path d="M338.274,17.028c0.099,0,0.196,0.099,0.297,0.099c0.196,0,0.495-0.099,0.594-0.396l2.079-4.158
			c0.198-0.297,0-0.693-0.297-0.891c-0.297-0.198-0.693,0-0.893,0.297l-2.079,4.158C337.779,16.533,337.878,16.929,338.274,17.028z"
			/>
		<path d="M348.273,26.136c0.099,0.297,0.396,0.396,0.594,0.396c0.099,0,0.198,0,0.198,0l4.354-1.584
			c0.297-0.099,0.495-0.495,0.396-0.792c-0.101-0.297-0.495-0.495-0.792-0.396l-4.356,1.584
			C348.372,25.443,348.174,25.839,348.273,26.136z"/>
		<path d="M309.663,24.948l4.354,1.584c0.101,0,0.101,0,0.198,0c0.297,0,0.495-0.198,0.594-0.396
			c0.101-0.297-0.099-0.693-0.396-0.792l-4.356-1.584c-0.297-0.099-0.691,0.099-0.792,0.396
			C309.168,24.453,309.366,24.849,309.663,24.948z"/>
	</g>
</g>
<g id="tides_x5F_display">
	<text transform="matrix(1 0 0 1 50 542.4658)" font-family="'ArialMT'" font-size="55">TDAFTM</text>
	<text transform="matrix(1 0 0 1 211.9302 520.6602)" font-family="'ArialMT'" font-size="21">TDAFTYP</text>
	<text transform="matrix(1 0 0 1 192.9302 540.4658)" font-family="'ArialMT'" font-size="21">TDAFHGT</text>
	<text transform="matrix(1 0 0 1 9 516.4414)" font-family="'ArialMT'" font-size="17.82">After:</text>
	<text transform="matrix(1 0 0 1 249.9199 536.4658)" font-family="'ArialMT'" font-size="36">TDAFCNT</text>
	<text transform="matrix(1 0 0 1 50 491.0977)" font-family="'ArialMT'" font-size="55">TDNXTM</text>
	<text transform="matrix(1 0 0 1 211.9302 469.292)" font-family="'ArialMT'" font-size="21">TDNXTYP</text>
	<text transform="matrix(1 0 0 1 192.9302 489.0977)" font-family="'ArialMT'" font-size="21">TDNXHGT</text>
	<text transform="matrix(1 0 0 1 9 465.0732)" font-family="'ArialMT'" font-size="17.82">Next:</text>
	<text transform="matrix(1 0 0 1 249.9199 485.0977)" font-family="'ArialMT'" font-size="36">TDNXCNT</text>
	<text transform="matrix(1 0 0 1 50 441.0977)" font-family="'ArialMT'" font-size="55">TDLSTM</text>
	<text transform="matrix(1 0 0 1 211.9302 419.292)" font-family="'ArialMT'" font-size="21">TDLSTYP</text>
	<text transform="matrix(1 0 0 1 192.9302 439.0977)" font-family="'ArialMT'" font-size="21">TDLSHGT</text>
	<text transform="matrix(1 0 0 1 9 415.0732)" font-family="'ArialMT'" font-size="17.82">Last:</text>
	<text transform="matrix(1 0 0 1 249.9199 435.0977)" font-family="'ArialMT'" font-size="36">TDLSCNT</text>
</g>
</svg>
