<?xml version="1.0" encoding="utf-8"?>
<!-- Generator: Adobe Illustrator 16.0.0, SVG Export Plug-In . SVG Version: 6.00 Build 0)  -->
<!DOCTYPE svg PUBLIC "-//W3C//DTD SVG 1.1//EN" "http://www.w3.org/Graphics/SVG/1.1/DTD/svg11.dtd">
<svg version="1.1" id="Layer_1" xmlns="http://www.w3.org/2000/svg" xmlns:xlink="http://www.w3.org/1999/xlink" x="0px" y="0px"
	 width="612px" height="792px" viewBox="0 0 612 792" enable-background="new 0 0 612 792" xml:space="preserve">
<g id="layout">
	<line fill="none" stroke="#000000" stroke-width="3" stroke-miterlimit="10" x1="393.12" y1="51.48" x2="393.12" y2="796.5"/>
	<line fill="none" stroke="#000000" stroke-width="3" stroke-miterlimit="10" x1="393.12" y1="405.5" x2="0" y2="405.5"/>
	<line fill="none" stroke="#000000" stroke-width="3" stroke-miterlimit="10" x1="393.12" y1="486.497" x2="0" y2="486.497"/>
	<line fill="none" stroke="#000000" stroke-width="3" stroke-miterlimit="10" x1="0" y1="51.48" x2="612" y2="51.48"/>
	<line fill="none" stroke="#000000" stroke-width="3" stroke-miterlimit="10" x1="393.12" y1="626.83" x2="0" y2="626.83"/>
</g>
<g id="wind_x5F_display">
	<g id="Windmill_x5F_Gfx">
		<circle cx="49.567" cy="545.33" r="5.146"/>
		<path d="M58.287,540.183c14.012-25.165,16.299-35.172,15.013-36.032c-1.289-0.714-8.868,6.292-23.587,30.887
			C53.281,535.181,56.573,537.182,58.287,540.183z"/>
		<path d="M39.414,545.332c0-1.858,0.433-3.573,1.289-5.005c-28.736,0.572-38.604,3.43-38.604,5.005
			c0,1.571,9.868,4.43,38.604,5.001C39.847,548.762,39.414,547.044,39.414,545.332z"/>
		<path d="M58.287,550.333c-1.714,3.007-5.01,5.009-8.574,5.009c14.863,24.589,22.298,31.737,23.587,30.882
			C74.586,585.646,72.154,575.495,58.287,550.333z"/>
		<path d="M44.421,556.624v2.146v67.764h10.148v-53.755C51.709,568.491,48.279,563.199,44.421,556.624z"/>
	</g>
	<text transform="matrix(1 0 0 1 220.5601 537.9971)" font-family="'ArialMT'" font-size="60">WSP</text>
	<text transform="matrix(1 0 0 1 220.5601 581.0234)" font-family="'ArialMT'" font-size="48">WGUS</text>
	<text transform="matrix(1 0 0 1 85.1328 540.7207)" font-family="'ArialMT'" font-size="19.7363">Wind (mph):</text>
	<text transform="matrix(1 0 0 1 87.1328 582.0234)" font-family="'ArialMT'" font-size="19.7363">Gust (mph):</text>
	<text transform="matrix(1 0 0 1 87.1328 620.9854)" font-family="'ArialMT'" font-size="19.7363">Direction:</text>
	<text transform="matrix(1 0 0 1 220.5601 620.9854)" font-family="'ArialMT'" font-size="48">WDIRECT</text>
</g>
<g id="temp_x5F_display">
	<text transform="matrix(1 0 0 1 16.9199 253.9111)" font-family="'ArialMT'" font-size="17.82">TMP1LABEL (F)</text>
	<text transform="matrix(1 0 0 1 401.04 281.9238)" font-family="'ArialMT'" font-size="17.82">TMP4LABEL (F)</text>
	<text transform="matrix(1 0 0 1 401.04 329.5498)" font-family="'ArialMT'" font-size="55">TMP4TMP</text>
	<text transform="matrix(1 0 0 1 406.0234 661.7119)" font-family="'ArialMT'" font-size="14">Dew Point (F)</text>
	<text transform="matrix(1 0 0 1 403.0234 709.9854)" font-family="'ArialMT'" font-size="60">DWPNT</text>
	<text transform="matrix(1 0 0 1 403.04 590.0449)" font-family="'ArialMT'" font-size="14">Rel Hum (%)</text>
	<text transform="matrix(1 0 0 1 402.1992 639.9854)" font-family="'ArialMT'" font-size="60">RELHUM</text>
	<text transform="matrix(1 0 0 1 406.04 734.6641)" font-family="'ArialMT'" font-size="17.82">Pressure (hPa)</text>
	<text transform="matrix(1 0 0 1 402.04 782.8857)" font-family="'ArialMT'" font-size="60">PRESS</text>
	<text transform="matrix(1 0 0 1 85.1328 480.4336)" font-family="'ArialMT'" font-size="60">FORHI</text>
	<text transform="matrix(1 0 0 1 268.1475 480.4336)" font-family="'ArialMT'" font-size="60">FORLO</text>
	<text transform="matrix(1 0 0 1 16.9199 70.6914)" font-family="'ArialMT'" font-size="17.82">TMP0LABEL (F)</text>
	<text transform="matrix(1 0 0 1 16.9199 201.3916)" font-family="'ArialMT'" font-size="17.82">TMP0TIME</text>
	<text transform="matrix(1 0 0 1 16.9199 225.1318)" font-family="'ArialMT'" font-size="23.76">H:</text>
	<text transform="matrix(1 0 0 1 46.6201 225.1318)" font-family="'ArialMT'" font-size="23.76">TMP0HI</text>
	<text transform="matrix(1 0 0 1 205.02 225.1318)" font-family="'ArialMT'" font-size="23.76">L:</text>
	<text transform="matrix(1 0 0 1 234.7202 225.1318)" font-family="'ArialMT'" font-size="23.76">TMP0LO</text>
	<text transform="matrix(1 0 0 1 405 344.2129)" font-family="'ArialMT'" font-size="13.86">TMP4TIME</text>
	<text transform="matrix(1 0 0 1 405 358.0732)" font-family="'ArialMT'" font-size="13.86">H:</text>
	<text transform="matrix(1 0 0 1 419.8496 358.0732)" font-family="'ArialMT'" font-size="13.86">TMP4HI</text>
	<text transform="matrix(1 0 0 1 507.96 358.0732)" font-family="'ArialMT'" font-size="13.86">L:</text>
	<text transform="matrix(1 0 0 1 520.8301 358.0732)" font-family="'ArialMT'" font-size="13.86">TMP4LO</text>
	<text transform="matrix(1 0 0 1 401.04 386.292)" font-family="'ArialMT'" font-size="17.82">TMP5LABEL (F)</text>
	<text transform="matrix(1 0 0 1 401.04 433.918)" font-family="'ArialMT'" font-size="55">TMP5TMP</text>
	<text transform="matrix(1 0 0 1 405 448.5811)" font-family="'ArialMT'" font-size="13.86">TMP5TIME</text>
	<text transform="matrix(1 0 0 1 405 462.4414)" font-family="'ArialMT'" font-size="13.86">H:</text>
	<text transform="matrix(1 0 0 1 419.8496 462.4414)" font-family="'ArialMT'" font-size="13.86">TMP5HI</text>
	<text transform="matrix(1 0 0 1 507.96 462.4414)" font-family="'ArialMT'" font-size="13.86">L:</text>
	<text transform="matrix(1 0 0 1 520.8301 462.4414)" font-family="'ArialMT'" font-size="13.86">TMP5LO</text>
	<text transform="matrix(1 0 0 1 401.04 490.8047)" font-family="'ArialMT'" font-size="17.82">TMP6LABEL (F)</text>
	<text transform="matrix(1 0 0 1 401.04 539.4307)" font-family="'ArialMT'" font-size="55">TMP6TMP</text>
	<text transform="matrix(1 0 0 1 405 554.0938)" font-family="'ArialMT'" font-size="13.86">TMP6TIME</text>
	<text transform="matrix(1 0 0 1 405 567.9541)" font-family="'ArialMT'" font-size="13.86">H:</text>
	<text transform="matrix(1 0 0 1 419.8496 567.9541)" font-family="'ArialMT'" font-size="13.86">TMP6HI</text>
	<text transform="matrix(1 0 0 1 507.96 567.9541)" font-family="'ArialMT'" font-size="13.86">L:</text>
	<text transform="matrix(1 0 0 1 520.8301 567.9541)" font-family="'ArialMT'" font-size="13.86">TMP6LO</text>
	<text transform="matrix(1 0 0 1 401.04 181.9639)" font-family="'ArialMT'" font-size="17.82">TMP3LABEL (F)</text>
	<text transform="matrix(1 0 0 1 401.04 229.5898)" font-family="'ArialMT'" font-size="55">TMP3TMP</text>
	<text transform="matrix(1 0 0 1 405 244.2529)" font-family="'ArialMT'" font-size="13.86">TMP3TIME</text>
	<text transform="matrix(1 0 0 1 405 258.1133)" font-family="'ArialMT'" font-size="13.86">H:</text>
	<text transform="matrix(1 0 0 1 419.8496 258.1133)" font-family="'ArialMT'" font-size="13.86">TMP3HI</text>
	<text transform="matrix(1 0 0 1 507.96 258.1133)" font-family="'ArialMT'" font-size="13.86">L:</text>
	<text transform="matrix(1 0 0 1 520.8301 258.1133)" font-family="'ArialMT'" font-size="13.86">TMP3LO</text>
	<text transform="matrix(1 0 0 1 401.04 72.043)" font-family="'ArialMT'" font-size="17.82">TMP2LABEL (F)</text>
	<text transform="matrix(1 0 0 1 8.0098 426.6914)" font-family="'ArialMT'" font-size="17.82">Forcast High:</text>
	<text transform="matrix(1 0 0 1 195.1475 426.6914)" font-family="'ArialMT'" font-size="17.82">Forcast Low:</text>
	<text transform="matrix(1 0 0 1 401.04 120.6699)" font-family="'ArialMT'" font-size="55">TMP2TMP</text>
	<text transform="matrix(1 0 0 1 405 135.333)" font-family="'ArialMT'" font-size="13.86">TMP2TIME</text>
	<text transform="matrix(1 0 0 1 405 149.1934)" font-family="'ArialMT'" font-size="13.86">H:</text>
	<text transform="matrix(1 0 0 1 419.8496 149.1934)" font-family="'ArialMT'" font-size="13.86">TMP2HI</text>
	<text transform="matrix(1 0 0 1 507.96 149.1934)" font-family="'ArialMT'" font-size="13.86">L:</text>
	<text transform="matrix(1 0 0 1 520.8301 149.1934)" font-family="'ArialMT'" font-size="13.86">TMP2LO</text>
	<text transform="matrix(1 0 0 1 16.9199 365.7812)" font-family="'ArialMT'" font-size="17.82">TMP1TIME</text>
	<text transform="matrix(1 0 0 1 16.9199 391.5215)" font-family="'ArialMT'" font-size="23.76">H:</text>
	<text transform="matrix(1 0 0 1 46.6201 391.5215)" font-family="'ArialMT'" font-size="23.76">TMP1HI</text>
	<text transform="matrix(1 0 0 1 205.02 391.5215)" font-family="'ArialMT'" font-size="23.76">L:</text>
	<text transform="matrix(1 0 0 1 234.7202 391.5215)" font-family="'ArialMT'" font-size="23.76">TMP1LO</text>
	<text transform="matrix(1 0 0 1 8.0098 177.1777)" font-family="'ArialMT'" font-size="133.65">TMP0TMP</text>
	<text transform="matrix(1 0 0 1 8.0098 344.835)" font-family="'ArialMT'" font-size="113.85">TMP1TMP</text>
	<g>
		<rect x="365.994" y="323.612" width="5.445" height="1.485"/>
		<rect x="365.994" y="337.571" width="5.445" height="1.485"/>
		<rect x="365.994" y="351.629" width="5.445" height="1.485"/>
		<path d="M378.963,364.697V316.88c0-5.643-4.554-10.296-10.296-10.296c-5.643,0-10.692,4.554-10.692,10.296v48.213
			c-3.562,3.069-5.841,7.524-5.841,12.573c0,9.107,7.425,16.434,16.438,16.434c9.104,0,16.434-7.425,16.434-16.434
			C385.2,372.419,382.725,367.766,378.963,364.697z M368.766,388.557c-6.039,0-10.89-4.852-10.89-10.891
			c0-4.059,2.277-7.524,5.544-9.405V318.86c0-2.97,2.475-5.346,5.445-5.346c2.97,0,5.441,2.376,5.441,5.346v49.401
			c3.271,1.881,5.445,5.346,5.445,9.405C379.656,383.705,374.805,388.557,368.766,388.557z"/>
		<path d="M371.637,370.439v-10.593h-5.841v10.593c-2.871,1.188-4.851,3.96-4.851,7.127c0,4.258,3.465,7.723,7.722,7.723
			s7.722-3.465,7.722-7.723C376.488,374.399,374.508,371.627,371.637,370.439z"/>
	</g>
</g>
<g id="time_x5F_display">
	<text transform="matrix(1 0 0 1 363.5225 38.8564)" font-family="'ArialMT'" font-size="32.67">SNRISE</text>
	<text transform="matrix(1 0 0 1 16.9199 39.4531)" font-family="'ArialMT'" font-size="35.64">CURTIME</text>
	<text transform="matrix(1 0 0 1 127.5522 36.4834)" font-family="'ArialMT'" font-size="29.7">CURDATE</text>
	<text transform="matrix(1 0 0 1 508.9502 38.8564)" font-family="'ArialMT'" font-size="32.67">SNSET</text>
	<path d="M496.179,29.304c-0.594,0-1.287,0-1.979,0.297c-0.693-4.752-4.854-8.316-9.604-8.316c-0.986,0-1.881,0.198-2.771,0.495
		c0-0.495,0.099-0.891,0.099-1.386c0-4.95-3.168-9.999-7.623-12.375c-0.396-0.198-0.689-0.099-0.99,0.099
		c-0.297,0.297-0.396,0.594-0.297,0.99c0,0,0.792,2.079,0.792,4.158c0,5.841-5.346,10.692-11.583,10.692
		c-2.871,0-5.841-1.584-5.841-1.683c-0.297-0.198-0.69-0.198-0.99,0.099c-0.297,0.198-0.491,0.495-0.396,0.891
		c0.792,3.168,2.97,6.138,5.841,8.118c-1.386,1.485-2.277,3.465-2.277,5.643c0,4.059,3.271,7.623,7.132,7.623h30.393
		c3.861,0,7.128-3.564,7.128-7.623C503.406,32.769,500.04,29.304,496.179,29.304z M457.569,24.75c1.287,0.495,2.97,0.99,4.752,0.99
		c7.227,0,13.361-5.742,13.361-12.474c0-0.792-0.099-1.584-0.297-2.277c2.871,2.277,4.752,5.94,4.752,9.504
		c0,0.693-0.099,1.386-0.194,2.079c-1.39,0.693-2.479,1.683-3.366,2.97c-0.792-0.396-1.687-0.594-2.673-0.594
		c-2.974,0-5.35,1.979-6.039,4.752c-0.597-0.099-1.287-0.198-1.98-0.198c-1.287,0-2.273,0.396-3.365,0.891
		C460.341,28.908,458.559,26.928,457.569,24.75z M496.179,42.669h-30.393c-2.871,0-5.346-2.673-5.346-5.841s2.475-5.841,5.346-5.841
		c0.792,0,1.584,0.198,2.273,0.495c0.301,0.099,0.598,0.099,0.796,0c0.297-0.198,0.491-0.495,0.491-0.693
		c0.103-2.277,2.079-4.158,4.455-4.158c0.895,0,1.782,0.297,2.479,0.693c0.194,0.099,0.495,0.099,0.689,0.099
		c0.297-0.099,0.495-0.198,0.495-0.495c1.386-2.475,4.158-4.059,6.934-4.059c4.257,0,7.817,3.564,8.019,7.821
		c0,0.396,0.198,0.594,0.495,0.792c0.297,0.198,0.594,0.099,0.891-0.099c0.495-0.396,1.089-0.495,2.182-0.495
		c2.867,0,5.346,2.673,5.346,5.841S499.05,42.669,496.179,42.669z"/>
	<g>
		<path d="M355.599,35.442h-8.312c0.099-0.693,0.099-1.287,0.099-1.98c0-8.712-7.025-15.741-15.741-15.741
			c-8.712,0-15.737,7.029-15.737,15.741c0,0.693,0,1.287,0.099,1.98h-8.613c-0.396,0-0.689,0.297-0.689,0.693
			c0,0.396,0.297,0.693,0.689,0.693h48.214c0.396,0,0.692-0.297,0.692-0.693C356.193,35.739,355.896,35.442,355.599,35.442z
			 M317.286,35.442c-0.103-0.693-0.103-1.287-0.103-1.98c0-7.92,6.438-14.454,14.454-14.454c7.92,0,14.454,6.435,14.454,14.454
			c0,0.693,0,1.287-0.099,1.98H317.286z"/>
		<path d="M351.045,39.303h-39.501c-0.396,0-0.693,0.297-0.693,0.693s0.301,0.693,0.693,0.693h39.501
			c0.396,0,0.693-0.297,0.693-0.693C351.639,39.6,351.342,39.303,351.045,39.303z"/>
		<path d="M344.115,43.263H318.87c-0.396,0-0.693,0.297-0.693,0.693s0.297,0.693,0.693,0.693h25.245
			c0.396,0,0.689-0.297,0.689-0.693C344.709,43.56,344.412,43.263,344.115,43.263z"/>
		<path d="M331.443,15.939c0.396,0,0.689-0.297,0.689-0.693V8.613c0-0.396-0.297-0.693-0.689-0.693
			c-0.396,0-0.693,0.297-0.693,0.693v6.732C330.849,15.642,331.146,15.939,331.443,15.939z"/>
		<path d="M356.49,30.888h-5.841c-0.396,0-0.693,0.297-0.693,0.693s0.297,0.693,0.693,0.693h5.841c0.396,0,0.689-0.297,0.689-0.693
			S356.886,30.888,356.49,30.888z"/>
		<path d="M312.93,31.581c0-0.396-0.297-0.693-0.689-0.693h-5.841c-0.396,0-0.693,0.297-0.693,0.693s0.297,0.693,0.693,0.693h5.841
			C312.633,32.175,312.93,31.878,312.93,31.581z"/>
		<path d="M344.709,21.186c0.198,0,0.297-0.099,0.495-0.198l4.752-4.752c0.297-0.297,0.297-0.693,0-0.891
			c-0.297-0.297-0.693-0.297-0.891,0l-4.752,4.752c-0.301,0.297-0.301,0.693,0,0.891C344.412,21.087,344.61,21.186,344.709,21.186z"
			/>
		<path d="M317.88,20.988c0.099,0.099,0.297,0.198,0.495,0.198s0.297-0.099,0.495-0.198c0.297-0.297,0.297-0.693,0-0.891
			l-4.752-4.752c-0.297-0.297-0.693-0.297-0.895,0c-0.297,0.297-0.297,0.693,0,0.891L317.88,20.988z"/>
		<path d="M324.018,16.731c0.103,0.198,0.301,0.396,0.598,0.396c0.099,0,0.194,0,0.297-0.099c0.297-0.198,0.495-0.594,0.297-0.891
			l-2.079-4.158c-0.198-0.297-0.594-0.495-0.891-0.297c-0.297,0.198-0.495,0.594-0.297,0.891L324.018,16.731z"/>
		<path d="M338.274,17.028c0.099,0,0.194,0.099,0.297,0.099c0.194,0,0.495-0.099,0.594-0.396l2.079-4.158
			c0.198-0.297,0-0.693-0.297-0.891c-0.297-0.198-0.693,0-0.895,0.297l-2.079,4.158C337.779,16.533,337.878,16.929,338.274,17.028z"
			/>
		<path d="M348.273,26.136c0.099,0.297,0.396,0.396,0.594,0.396c0.099,0,0.198,0,0.198,0l4.354-1.584
			c0.297-0.099,0.495-0.495,0.396-0.792c-0.103-0.297-0.495-0.495-0.792-0.396l-4.356,1.584
			C348.372,25.443,348.174,25.839,348.273,26.136z"/>
		<path d="M309.663,24.948l4.354,1.584c0.103,0,0.103,0,0.198,0c0.297,0,0.495-0.198,0.594-0.396
			c0.103-0.297-0.099-0.693-0.396-0.792l-4.356-1.584c-0.297-0.099-0.689,0.099-0.792,0.396
			C309.168,24.453,309.366,24.849,309.663,24.948z"/>
	</g>
</g>
</svg>
