<?xml version="1.0" encoding="utf-8"?>
<!-- Generator: Adobe Illustrator 19.2.0, SVG Export Plug-In . SVG Version: 6.00 Build 0)  -->
<svg version="1.1" id="Layer_1" xmlns="http://www.w3.org/2000/svg" xmlns:xlink="http://www.w3.org/1999/xlink" x="0px" y="0px"
	 viewBox="0 0 600 800" style="enable-background:new 0 0 600 800;" xml:space="preserve">
<style type="text/css">
	.st0{fill:none;stroke:#000000;stroke-width:3;stroke-miterlimit:10;}
	.st1{font-family:'ArialMT';}
	.st2{font-size:26.4px;}
	.st3{fill-opacity:0;}
	.st4{font-size:78px;}
	.st5{font-size:18px;}
	.st6{font-size:14px;}
	.st7{fill:none;stroke:#000000;stroke-width:2;stroke-miterlimit:10;}
	.st8{font-size:36px;}
	.st9{font-size:69px;}
	.st10{font-size:54px;}
	.st11{font-size:58px;}
	.st12{font-size:24px;}
	.st13{font-size:135px;}
	.st14{font-size:115px;}
	.st15{font-size:33px;}
	.st16{font-size:30px;}
</style>
<g id="layout">
	<line class="st0" x1="388" y1="52" x2="388" y2="713"/>
	<line class="st0" x1="388" y1="398" x2="0" y2="398"/>
	<line class="st0" x1="0" y1="714" x2="600" y2="714"/>
	<line class="st0" x1="0" y1="52" x2="600" y2="52"/>
</g>
<g id="battery_x5F_display">
	<text id="Sensor00" transform="matrix(0.9091 0 0 1 97.625 743.625)" class="st1 st2">00</text>
	<text id="Sensor01" transform="matrix(0.9091 0 0 1 179.2812 743.625)" class="st1 st2">01</text>
	<text id="Sensor02" transform="matrix(0.9091 0 0 1 262.6172 743.625)" class="st1 st2">02</text>
	<text id="Sensor03" transform="matrix(0.9091 0 0 1 345.625 743.625)" class="st1 st2">03</text>
	<text id="Sensor04" transform="matrix(0.9091 0 0 1 428.6641 743.625)" class="st1 st2">04</text>
	<g id="BatSens00">
		<path id="b00Bat4" class="st3" d="M139.7,726.8v2h-4c-2.2,0-4,1.8-4,4v52.3c-0.1,2.2,1.7,4,3.9,4h32.1c2.2,0,4-1.8,4-4V733
			c0-2.2-1.8-4-4-4h-4v-2c0-1.1-0.9-2-2-2h-20.1C140.6,724.8,139.7,725.7,139.7,726.8z M165.7,732.9c1.1,0,2,0.9,2,2V783
			c0,1.1-0.9,2-2,2h-28.1c-1.1,0-2-0.9-2-2v-48.2c0-1.1,0.9-2,2-2h28.1V732.9z M162.7,773c0.6,0,1,0.4,1,1v6c0,0.6-0.4,1-1,1h-22
			c-0.6,0-1-0.4-1-1v-6c0-0.6,0.4-1,1-1H162.7z M162.7,760.9c0.6,0,1,0.4,1,1v6c0,0.6-0.4,1-1,1h-22c-0.6,0-1-0.4-1-1v-6
			c0-0.6,0.4-1,1-1H162.7z M162.7,748.9c0.6,0,1,0.4,1,1v6c0,0.6-0.4,1-1,1h-22c-0.6,0-1-0.4-1-1v-6c0-0.6,0.4-1,1-1H162.7z
			 M162.7,736.9c0.6,0,1,0.4,1,1v6c0,0.6-0.4,1-1,1h-22c-0.6,0-1-0.4-1-1v-6c0-0.6,0.4-1,1-1H162.7z M140.7,760.9h22.1
			c0.6,0,1,0.4,1,1v6c0,0.6-0.4,1-1,1h-22.1c-0.6,0-1-0.4-1-1v-6C139.7,761.4,140.1,760.9,140.7,760.9z M140.7,773h22.1
			c0.6,0,1,0.4,1,1v6c0,0.6-0.4,1-1,1h-22.1c-0.6,0-1-0.4-1-1v-6C139.7,773.4,140.1,773,140.7,773z M140.7,736.9h22.1
			c0.6,0,1,0.4,1,1v6c0,0.6-0.4,1-1,1h-22.1c-0.6,0-1-0.4-1-1v-6C139.7,737.3,140.1,736.9,140.7,736.9z M140.7,748.9h22.1
			c0.6,0,1,0.4,1,1v6c0,0.6-0.4,1-1,1h-22.1c-0.6,0-1-0.4-1-1v-6C139.7,749.4,140.1,748.9,140.7,748.9z"/>
		<path id="b00Bat3" d="M139.6,768v-6c0-0.6,0.4-1,1-1h22.1c0.6,0,1,0.4,1,1v6c0,0.6-0.4,1-1,1h-22.1C140,769,139.6,768.5,139.6,768
			z M163.7,780v-6c0-0.6-0.4-1-1-1h-22.1c-0.6,0-1,0.4-1,1v6c0,0.6,0.4,1,1,1h22.1C163.2,781,163.7,780.5,163.7,780z M163.7,755.9
			v-6c0-0.6-0.4-1-1-1h-22.1c-0.6,0-1,0.4-1,1v6c0,0.6,0.4,1,1,1h22.1C163.2,756.9,163.7,756.5,163.7,755.9z M139.6,726.9v2h-4
			c-2.2,0-4,1.8-4,4V785c0,2.2,1.8,4,4,4h32.1c2.2,0,4-1.8,4-4v-52c0-2.2-1.8-4-4-4h-4v-2c0-1.1-0.9-2-2-2h-20.1
			C140.5,724.9,139.6,725.8,139.6,726.9z M165.7,732.9c1.1,0,2,0.9,2,2V783c0,1.1-0.9,2-2,2h-28.1c-1.1,0-2-0.9-2-2v-48.1
			c0-1.1,0.9-2,2-2H165.7z"/>
		<path id="b00Bat2" class="st3" d="M139.6,768v-6c0-0.6,0.4-1,1-1h22.1c0.6,0,1,0.4,1,1v6c0,0.6-0.4,1-1,1h-22.1
			C140,769,139.6,768.5,139.6,768z M163.7,780v-6c0-0.6-0.4-1-1-1h-22.1c-0.6,0-1,0.4-1,1v6c0,0.6,0.4,1,1,1h22.1
			C163.2,781,163.7,780.5,163.7,780z M139.6,726.9v2h-4c-2.2,0-4,1.8-4,4V785c0,2.2,1.8,4,4,4h32.1c2.2,0,4-1.8,4-4v-52
			c0-2.2-1.8-4-4-4h-4v-2c0-1.1-0.9-2-2-2h-20.1C140.5,724.9,139.6,725.8,139.6,726.9z M165.7,732.9c1.1,0,2,0.9,2,2V783
			c0,1.1-0.9,2-2,2h-28.1c-1.1,0-2-0.9-2-2v-48.1c0-1.1,0.9-2,2-2H165.7z"/>
		<path id="b00Bat1" class="st3" d="M163.7,780v-6c0-0.6-0.4-1-1-1h-22.1c-0.6,0-1,0.4-1,1v6c0,0.6,0.4,1,1,1h22.1
			C163.3,781,163.7,780.5,163.7,780z M139.6,726.9v2h-4c-2.2,0-4,1.8-4,4V785c0,2.2,1.8,4,4,4h32.1c2.2,0,4-1.8,4-4v-52
			c0-2.2-1.8-4-4-4h-4v-2c0-1.1-0.9-2-2-2h-20.1C140.6,724.9,139.6,725.8,139.6,726.9z M165.7,732.9c1.1,0,2,0.9,2,2V783
			c0,1.1-0.9,2-2,2h-28.1c-1.1,0-2-0.9-2-2v-48.1c0-1.1,0.9-2,2-2H165.7z"/>
		<path id="b00Bat0" class="st3" d="M139.6,726.9v2h-4c-2.2,0-4,1.8-4,4V785c0,2.2,1.8,4,4,4h32.1c2.2,0,4-1.8,4-4v-52
			c0-2.2-1.8-4-4-4h-4v-2c0-1.1-0.9-2-2-2h-20.1C140.6,724.9,139.6,725.8,139.6,726.9z M165.7,732.9c1.1,0,2,0.9,2,2V783
			c0,1.1-0.9,2-2,2h-28.1c-1.1,0-2-0.9-2-2v-48.1c0-1.1,0.9-2,2-2H165.7z"/>
	</g>
	<g id="BatSens01">
		<path id="b01Bat4" class="st3" d="M222.5,726.8v2h-4c-2.2,0-4,1.8-4,4v52.3c-0.1,2.2,1.7,4,3.9,4h32.1c2.2,0,4-1.8,4-4V733
			c0-2.2-1.8-4-4-4h-4v-2c0-1.1-0.9-2-2-2h-20.1C223.4,724.8,222.5,725.7,222.5,726.8z M248.5,732.9c1.1,0,2,0.9,2,2V783
			c0,1.1-0.9,2-2,2h-28.1c-1.1,0-2-0.9-2-2v-48.2c0-1.1,0.9-2,2-2h28.1V732.9z M245.5,773c0.6,0,1,0.4,1,1v6c0,0.6-0.4,1-1,1h-22
			c-0.6,0-1-0.4-1-1v-6c0-0.6,0.4-1,1-1H245.5z M245.5,760.9c0.6,0,1,0.4,1,1v6c0,0.6-0.4,1-1,1h-22c-0.6,0-1-0.4-1-1v-6
			c0-0.6,0.4-1,1-1H245.5z M245.5,748.9c0.6,0,1,0.4,1,1v6c0,0.6-0.4,1-1,1h-22c-0.6,0-1-0.4-1-1v-6c0-0.6,0.4-1,1-1H245.5z
			 M245.5,736.9c0.6,0,1,0.4,1,1v6c0,0.6-0.4,1-1,1h-22c-0.6,0-1-0.4-1-1v-6c0-0.6,0.4-1,1-1H245.5z M223.5,760.9h22.1
			c0.6,0,1,0.4,1,1v6c0,0.6-0.4,1-1,1h-22.1c-0.6,0-1-0.4-1-1v-6C222.5,761.4,222.9,760.9,223.5,760.9z M223.5,773h22.1
			c0.6,0,1,0.4,1,1v6c0,0.6-0.4,1-1,1h-22.1c-0.6,0-1-0.4-1-1v-6C222.5,773.4,222.9,773,223.5,773z M223.5,736.9h22.1
			c0.6,0,1,0.4,1,1v6c0,0.6-0.4,1-1,1h-22.1c-0.6,0-1-0.4-1-1v-6C222.5,737.3,222.9,736.9,223.5,736.9z M223.5,748.9h22.1
			c0.6,0,1,0.4,1,1v6c0,0.6-0.4,1-1,1h-22.1c-0.6,0-1-0.4-1-1v-6C222.5,749.4,222.9,748.9,223.5,748.9z"/>
		<path id="b01Bat3" d="M222.4,768v-6c0-0.6,0.4-1,1-1h22.1c0.6,0,1,0.4,1,1v6c0,0.6-0.4,1-1,1h-22.1
			C222.8,769,222.4,768.5,222.4,768z M246.5,780v-6c0-0.6-0.4-1-1-1h-22.1c-0.6,0-1,0.4-1,1v6c0,0.6,0.4,1,1,1h22.1
			C246,781,246.5,780.5,246.5,780z M246.5,755.9v-6c0-0.6-0.4-1-1-1h-22.1c-0.6,0-1,0.4-1,1v6c0,0.6,0.4,1,1,1h22.1
			C246,756.9,246.5,756.5,246.5,755.9z M222.4,726.9v2h-4c-2.2,0-4,1.8-4,4V785c0,2.2,1.8,4,4,4h32.1c2.2,0,4-1.8,4-4v-52
			c0-2.2-1.8-4-4-4h-4v-2c0-1.1-0.9-2-2-2h-20.1C223.3,724.9,222.4,725.8,222.4,726.9z M248.5,732.9c1.1,0,2,0.9,2,2V783
			c0,1.1-0.9,2-2,2h-28.1c-1.1,0-2-0.9-2-2v-48.1c0-1.1,0.9-2,2-2H248.5z"/>
		<path id="b01Bat2" class="st3" d="M222.4,768v-6c0-0.6,0.4-1,1-1h22.1c0.6,0,1,0.4,1,1v6c0,0.6-0.4,1-1,1h-22.1
			C222.8,769,222.4,768.5,222.4,768z M246.5,780v-6c0-0.6-0.4-1-1-1h-22.1c-0.6,0-1,0.4-1,1v6c0,0.6,0.4,1,1,1h22.1
			C246,781,246.5,780.5,246.5,780z M222.4,726.9v2h-4c-2.2,0-4,1.8-4,4V785c0,2.2,1.8,4,4,4h32.1c2.2,0,4-1.8,4-4v-52
			c0-2.2-1.8-4-4-4h-4v-2c0-1.1-0.9-2-2-2h-20.1C223.3,724.9,222.4,725.8,222.4,726.9z M248.5,732.9c1.1,0,2,0.9,2,2V783
			c0,1.1-0.9,2-2,2h-28.1c-1.1,0-2-0.9-2-2v-48.1c0-1.1,0.9-2,2-2H248.5z"/>
		<path id="b01Bat1" class="st3" d="M246.5,780v-6c0-0.6-0.4-1-1-1h-22.1c-0.6,0-1,0.4-1,1v6c0,0.6,0.4,1,1,1h22.1
			C246.1,781,246.5,780.5,246.5,780z M222.4,726.9v2h-4c-2.2,0-4,1.8-4,4V785c0,2.2,1.8,4,4,4h32.1c2.2,0,4-1.8,4-4v-52
			c0-2.2-1.8-4-4-4h-4v-2c0-1.1-0.9-2-2-2h-20.1C223.4,724.9,222.4,725.8,222.4,726.9z M248.5,732.9c1.1,0,2,0.9,2,2V783
			c0,1.1-0.9,2-2,2h-28.1c-1.1,0-2-0.9-2-2v-48.1c0-1.1,0.9-2,2-2H248.5z"/>
		<path id="b01Bat0" class="st3" d="M222.4,726.9v2h-4c-2.2,0-4,1.8-4,4V785c0,2.2,1.8,4,4,4h32.1c2.2,0,4-1.8,4-4v-52
			c0-2.2-1.8-4-4-4h-4v-2c0-1.1-0.9-2-2-2h-20.1C223.4,724.9,222.4,725.8,222.4,726.9z M248.5,732.9c1.1,0,2,0.9,2,2V783
			c0,1.1-0.9,2-2,2h-28.1c-1.1,0-2-0.9-2-2v-48.1c0-1.1,0.9-2,2-2H248.5z"/>
	</g>
	<g id="BatSens02">
		<path id="b02Bat4" class="st3" d="M305.7,726.8v2h-4c-2.2,0-4,1.8-4,4v52.3c-0.1,2.2,1.7,4,3.9,4h32.1c2.2,0,4-1.8,4-4V733
			c0-2.2-1.8-4-4-4h-4v-2c0-1.1-0.9-2-2-2h-20.1C306.6,724.8,305.7,725.7,305.7,726.8z M331.7,732.9c1.1,0,2,0.9,2,2V783
			c0,1.1-0.9,2-2,2h-28.1c-1.1,0-2-0.9-2-2v-48.2c0-1.1,0.9-2,2-2h28.1V732.9z M328.7,773c0.6,0,1,0.4,1,1v6c0,0.6-0.4,1-1,1h-22
			c-0.6,0-1-0.4-1-1v-6c0-0.6,0.4-1,1-1H328.7z M328.7,760.9c0.6,0,1,0.4,1,1v6c0,0.6-0.4,1-1,1h-22c-0.6,0-1-0.4-1-1v-6
			c0-0.6,0.4-1,1-1H328.7z M328.7,748.9c0.6,0,1,0.4,1,1v6c0,0.6-0.4,1-1,1h-22c-0.6,0-1-0.4-1-1v-6c0-0.6,0.4-1,1-1H328.7z
			 M328.7,736.9c0.6,0,1,0.4,1,1v6c0,0.6-0.4,1-1,1h-22c-0.6,0-1-0.4-1-1v-6c0-0.6,0.4-1,1-1H328.7z M306.7,760.9h22.1
			c0.6,0,1,0.4,1,1v6c0,0.6-0.4,1-1,1h-22.1c-0.6,0-1-0.4-1-1v-6C305.7,761.4,306.1,760.9,306.7,760.9z M306.7,773h22.1
			c0.6,0,1,0.4,1,1v6c0,0.6-0.4,1-1,1h-22.1c-0.6,0-1-0.4-1-1v-6C305.7,773.4,306.1,773,306.7,773z M306.7,736.9h22.1
			c0.6,0,1,0.4,1,1v6c0,0.6-0.4,1-1,1h-22.1c-0.6,0-1-0.4-1-1v-6C305.7,737.3,306.1,736.9,306.7,736.9z M306.7,748.9h22.1
			c0.6,0,1,0.4,1,1v6c0,0.6-0.4,1-1,1h-22.1c-0.6,0-1-0.4-1-1v-6C305.7,749.4,306.1,748.9,306.7,748.9z"/>
		<path id="b02Bat3" d="M305.6,768v-6c0-0.6,0.4-1,1-1h22.1c0.6,0,1,0.4,1,1v6c0,0.6-0.4,1-1,1h-22.1C306,769,305.6,768.5,305.6,768
			z M329.7,780v-6c0-0.6-0.4-1-1-1h-22.1c-0.6,0-1,0.4-1,1v6c0,0.6,0.4,1,1,1h22.1C329.2,781,329.7,780.5,329.7,780z M329.7,755.9
			v-6c0-0.6-0.4-1-1-1h-22.1c-0.6,0-1,0.4-1,1v6c0,0.6,0.4,1,1,1h22.1C329.2,756.9,329.7,756.5,329.7,755.9z M305.6,726.9v2h-4
			c-2.2,0-4,1.8-4,4V785c0,2.2,1.8,4,4,4h32.1c2.2,0,4-1.8,4-4v-52c0-2.2-1.8-4-4-4h-4v-2c0-1.1-0.9-2-2-2h-20.1
			C306.5,724.9,305.6,725.8,305.6,726.9z M331.7,732.9c1.1,0,2,0.9,2,2V783c0,1.1-0.9,2-2,2h-28.1c-1.1,0-2-0.9-2-2v-48.1
			c0-1.1,0.9-2,2-2H331.7z"/>
		<path id="b02Bat2" class="st3" d="M305.6,768v-6c0-0.6,0.4-1,1-1h22.1c0.6,0,1,0.4,1,1v6c0,0.6-0.4,1-1,1h-22.1
			C306,769,305.6,768.5,305.6,768z M329.7,780v-6c0-0.6-0.4-1-1-1h-22.1c-0.6,0-1,0.4-1,1v6c0,0.6,0.4,1,1,1h22.1
			C329.2,781,329.7,780.5,329.7,780z M305.6,726.9v2h-4c-2.2,0-4,1.8-4,4V785c0,2.2,1.8,4,4,4h32.1c2.2,0,4-1.8,4-4v-52
			c0-2.2-1.8-4-4-4h-4v-2c0-1.1-0.9-2-2-2h-20.1C306.5,724.9,305.6,725.8,305.6,726.9z M331.7,732.9c1.1,0,2,0.9,2,2V783
			c0,1.1-0.9,2-2,2h-28.1c-1.1,0-2-0.9-2-2v-48.1c0-1.1,0.9-2,2-2H331.7z"/>
		<path id="b02Bat1" class="st3" d="M329.7,780v-6c0-0.6-0.4-1-1-1h-22.1c-0.6,0-1,0.4-1,1v6c0,0.6,0.4,1,1,1h22.1
			C329.3,781,329.7,780.5,329.7,780z M305.6,726.9v2h-4c-2.2,0-4,1.8-4,4V785c0,2.2,1.8,4,4,4h32.1c2.2,0,4-1.8,4-4v-52
			c0-2.2-1.8-4-4-4h-4v-2c0-1.1-0.9-2-2-2h-20.1C306.6,724.9,305.6,725.8,305.6,726.9z M331.7,732.9c1.1,0,2,0.9,2,2V783
			c0,1.1-0.9,2-2,2h-28.1c-1.1,0-2-0.9-2-2v-48.1c0-1.1,0.9-2,2-2H331.7z"/>
		<path id="b02Bat0" class="st3" d="M305.6,726.9v2h-4c-2.2,0-4,1.8-4,4V785c0,2.2,1.8,4,4,4h32.1c2.2,0,4-1.8,4-4v-52
			c0-2.2-1.8-4-4-4h-4v-2c0-1.1-0.9-2-2-2h-20.1C306.6,724.9,305.6,725.8,305.6,726.9z M331.7,732.9c1.1,0,2,0.9,2,2V783
			c0,1.1-0.9,2-2,2h-28.1c-1.1,0-2-0.9-2-2v-48.1c0-1.1,0.9-2,2-2H331.7z"/>
	</g>
	<g id="BatSens03">
		<path id="b03Bat4" class="st3" d="M388.7,726.8v2h-4c-2.2,0-4,1.8-4,4v52.3c-0.1,2.2,1.7,4,3.9,4h32.1c2.2,0,4-1.8,4-4V733
			c0-2.2-1.8-4-4-4h-4v-2c0-1.1-0.9-2-2-2h-20.1C389.6,724.8,388.7,725.7,388.7,726.8z M414.7,732.9c1.1,0,2,0.9,2,2V783
			c0,1.1-0.9,2-2,2h-28.1c-1.1,0-2-0.9-2-2v-48.2c0-1.1,0.9-2,2-2h28.1V732.9z M411.7,773c0.6,0,1,0.4,1,1v6c0,0.6-0.4,1-1,1h-22
			c-0.6,0-1-0.4-1-1v-6c0-0.6,0.4-1,1-1H411.7z M411.7,760.9c0.6,0,1,0.4,1,1v6c0,0.6-0.4,1-1,1h-22c-0.6,0-1-0.4-1-1v-6
			c0-0.6,0.4-1,1-1H411.7z M411.7,748.9c0.6,0,1,0.4,1,1v6c0,0.6-0.4,1-1,1h-22c-0.6,0-1-0.4-1-1v-6c0-0.6,0.4-1,1-1H411.7z
			 M411.7,736.9c0.6,0,1,0.4,1,1v6c0,0.6-0.4,1-1,1h-22c-0.6,0-1-0.4-1-1v-6c0-0.6,0.4-1,1-1H411.7z M389.7,760.9h22.1
			c0.6,0,1,0.4,1,1v6c0,0.6-0.4,1-1,1h-22.1c-0.6,0-1-0.4-1-1v-6C388.7,761.4,389.1,760.9,389.7,760.9z M389.7,773h22.1
			c0.6,0,1,0.4,1,1v6c0,0.6-0.4,1-1,1h-22.1c-0.6,0-1-0.4-1-1v-6C388.7,773.4,389.1,773,389.7,773z M389.7,736.9h22.1
			c0.6,0,1,0.4,1,1v6c0,0.6-0.4,1-1,1h-22.1c-0.6,0-1-0.4-1-1v-6C388.7,737.3,389.1,736.9,389.7,736.9z M389.7,748.9h22.1
			c0.6,0,1,0.4,1,1v6c0,0.6-0.4,1-1,1h-22.1c-0.6,0-1-0.4-1-1v-6C388.7,749.4,389.1,748.9,389.7,748.9z"/>
		<path id="b03Bat3" d="M388.6,768v-6c0-0.6,0.4-1,1-1h22.1c0.6,0,1,0.4,1,1v6c0,0.6-0.4,1-1,1h-22.1C389,769,388.6,768.5,388.6,768
			z M412.7,780v-6c0-0.6-0.4-1-1-1h-22.1c-0.6,0-1,0.4-1,1v6c0,0.6,0.4,1,1,1h22.1C412.2,781,412.7,780.5,412.7,780z M412.7,755.9
			v-6c0-0.6-0.4-1-1-1h-22.1c-0.6,0-1,0.4-1,1v6c0,0.6,0.4,1,1,1h22.1C412.2,756.9,412.7,756.5,412.7,755.9z M388.6,726.9v2h-4
			c-2.2,0-4,1.8-4,4V785c0,2.2,1.8,4,4,4h32.1c2.2,0,4-1.8,4-4v-52c0-2.2-1.8-4-4-4h-4v-2c0-1.1-0.9-2-2-2h-20.1
			C389.5,724.9,388.6,725.8,388.6,726.9z M414.7,732.9c1.1,0,2,0.9,2,2V783c0,1.1-0.9,2-2,2h-28.1c-1.1,0-2-0.9-2-2v-48.1
			c0-1.1,0.9-2,2-2H414.7z"/>
		<path id="b03Bat2" class="st3" d="M388.6,768v-6c0-0.6,0.4-1,1-1h22.1c0.6,0,1,0.4,1,1v6c0,0.6-0.4,1-1,1h-22.1
			C389,769,388.6,768.5,388.6,768z M412.7,780v-6c0-0.6-0.4-1-1-1h-22.1c-0.6,0-1,0.4-1,1v6c0,0.6,0.4,1,1,1h22.1
			C412.2,781,412.7,780.5,412.7,780z M388.6,726.9v2h-4c-2.2,0-4,1.8-4,4V785c0,2.2,1.8,4,4,4h32.1c2.2,0,4-1.8,4-4v-52
			c0-2.2-1.8-4-4-4h-4v-2c0-1.1-0.9-2-2-2h-20.1C389.5,724.9,388.6,725.8,388.6,726.9z M414.7,732.9c1.1,0,2,0.9,2,2V783
			c0,1.1-0.9,2-2,2h-28.1c-1.1,0-2-0.9-2-2v-48.1c0-1.1,0.9-2,2-2H414.7z"/>
		<path id="b03Bat1" class="st3" d="M412.7,780v-6c0-0.6-0.4-1-1-1h-22.1c-0.6,0-1,0.4-1,1v6c0,0.6,0.4,1,1,1h22.1
			C412.3,781,412.7,780.5,412.7,780z M388.6,726.9v2h-4c-2.2,0-4,1.8-4,4V785c0,2.2,1.8,4,4,4h32.1c2.2,0,4-1.8,4-4v-52
			c0-2.2-1.8-4-4-4h-4v-2c0-1.1-0.9-2-2-2h-20.1C389.6,724.9,388.6,725.8,388.6,726.9z M414.7,732.9c1.1,0,2,0.9,2,2V783
			c0,1.1-0.9,2-2,2h-28.1c-1.1,0-2-0.9-2-2v-48.1c0-1.1,0.9-2,2-2H414.7z"/>
		<path id="b03Bat0" d="M388.6,726.9v2h-4c-2.2,0-4,1.8-4,4V785c0,2.2,1.8,4,4,4h32.1c2.2,0,4-1.8,4-4v-52c0-2.2-1.8-4-4-4h-4v-2
			c0-1.1-0.9-2-2-2h-20.1C389.6,724.9,388.6,725.8,388.6,726.9z M414.7,732.9c1.1,0,2,0.9,2,2V783c0,1.1-0.9,2-2,2h-28.1
			c-1.1,0-2-0.9-2-2v-48.1c0-1.1,0.9-2,2-2H414.7z"/>
	</g>
	<g id="BatSens04">
		<path id="b04Bat4" class="st3" d="M470.4,726.8v2h-4c-2.2,0-4,1.8-4,4v52.3c-0.1,2.2,1.7,4,3.9,4h32.1c2.2,0,4-1.8,4-4V733
			c0-2.2-1.8-4-4-4h-4v-2c0-1.1-0.9-2-2-2h-20.1C471.3,724.8,470.4,725.7,470.4,726.8z M496.4,732.9c1.1,0,2,0.9,2,2V783
			c0,1.1-0.9,2-2,2h-28.1c-1.1,0-2-0.9-2-2v-48.2c0-1.1,0.9-2,2-2h28.1V732.9z M493.4,773c0.6,0,1,0.4,1,1v6c0,0.6-0.4,1-1,1h-22
			c-0.6,0-1-0.4-1-1v-6c0-0.6,0.4-1,1-1H493.4z M493.4,760.9c0.6,0,1,0.4,1,1v6c0,0.6-0.4,1-1,1h-22c-0.6,0-1-0.4-1-1v-6
			c0-0.6,0.4-1,1-1H493.4z M493.4,748.9c0.6,0,1,0.4,1,1v6c0,0.6-0.4,1-1,1h-22c-0.6,0-1-0.4-1-1v-6c0-0.6,0.4-1,1-1H493.4z
			 M493.4,736.9c0.6,0,1,0.4,1,1v6c0,0.6-0.4,1-1,1h-22c-0.6,0-1-0.4-1-1v-6c0-0.6,0.4-1,1-1H493.4z M471.4,760.9h22.1
			c0.6,0,1,0.4,1,1v6c0,0.6-0.4,1-1,1h-22.1c-0.6,0-1-0.4-1-1v-6C470.4,761.4,470.8,760.9,471.4,760.9z M471.4,773h22.1
			c0.6,0,1,0.4,1,1v6c0,0.6-0.4,1-1,1h-22.1c-0.6,0-1-0.4-1-1v-6C470.4,773.4,470.8,773,471.4,773z M471.4,736.9h22.1
			c0.6,0,1,0.4,1,1v6c0,0.6-0.4,1-1,1h-22.1c-0.6,0-1-0.4-1-1v-6C470.4,737.3,470.8,736.9,471.4,736.9z M471.4,748.9h22.1
			c0.6,0,1,0.4,1,1v6c0,0.6-0.4,1-1,1h-22.1c-0.6,0-1-0.4-1-1v-6C470.4,749.4,470.8,748.9,471.4,748.9z"/>
		<path id="b04Bat3" d="M470.3,768v-6c0-0.6,0.4-1,1-1h22.1c0.6,0,1,0.4,1,1v6c0,0.6-0.4,1-1,1h-22.1
			C470.7,769,470.3,768.5,470.3,768z M494.4,780v-6c0-0.6-0.4-1-1-1h-22.1c-0.6,0-1,0.4-1,1v6c0,0.6,0.4,1,1,1h22.1
			C493.9,781,494.4,780.5,494.4,780z M494.4,755.9v-6c0-0.6-0.4-1-1-1h-22.1c-0.6,0-1,0.4-1,1v6c0,0.6,0.4,1,1,1h22.1
			C493.9,756.9,494.4,756.5,494.4,755.9z M470.3,726.9v2h-4c-2.2,0-4,1.8-4,4V785c0,2.2,1.8,4,4,4h32.1c2.2,0,4-1.8,4-4v-52
			c0-2.2-1.8-4-4-4h-4v-2c0-1.1-0.9-2-2-2h-20.1C471.2,724.9,470.3,725.8,470.3,726.9z M496.4,732.9c1.1,0,2,0.9,2,2V783
			c0,1.1-0.9,2-2,2h-28.1c-1.1,0-2-0.9-2-2v-48.1c0-1.1,0.9-2,2-2H496.4z"/>
		<path id="b04Bat2" class="st3" d="M470.3,768v-6c0-0.6,0.4-1,1-1h22.1c0.6,0,1,0.4,1,1v6c0,0.6-0.4,1-1,1h-22.1
			C470.7,769,470.3,768.5,470.3,768z M494.4,780v-6c0-0.6-0.4-1-1-1h-22.1c-0.6,0-1,0.4-1,1v6c0,0.6,0.4,1,1,1h22.1
			C493.9,781,494.4,780.5,494.4,780z M470.3,726.9v2h-4c-2.2,0-4,1.8-4,4V785c0,2.2,1.8,4,4,4h32.1c2.2,0,4-1.8,4-4v-52
			c0-2.2-1.8-4-4-4h-4v-2c0-1.1-0.9-2-2-2h-20.1C471.2,724.9,470.3,725.8,470.3,726.9z M496.4,732.9c1.1,0,2,0.9,2,2V783
			c0,1.1-0.9,2-2,2h-28.1c-1.1,0-2-0.9-2-2v-48.1c0-1.1,0.9-2,2-2H496.4z"/>
		<path id="b04Bat1" class="st3" d="M494.4,780v-6c0-0.6-0.4-1-1-1h-22.1c-0.6,0-1,0.4-1,1v6c0,0.6,0.4,1,1,1h22.1
			C494,781,494.4,780.5,494.4,780z M470.3,726.9v2h-4c-2.2,0-4,1.8-4,4V785c0,2.2,1.8,4,4,4h32.1c2.2,0,4-1.8,4-4v-52
			c0-2.2-1.8-4-4-4h-4v-2c0-1.1-0.9-2-2-2h-20.1C471.3,724.9,470.3,725.8,470.3,726.9z M496.4,732.9c1.1,0,2,0.9,2,2V783
			c0,1.1-0.9,2-2,2h-28.1c-1.1,0-2-0.9-2-2v-48.1c0-1.1,0.9-2,2-2H496.4z"/>
		<path id="b04Bat0" class="st3" d="M470.3,726.9v2h-4c-2.2,0-4,1.8-4,4V785c0,2.2,1.8,4,4,4h32.1c2.2,0,4-1.8,4-4v-52
			c0-2.2-1.8-4-4-4h-4v-2c0-1.1-0.9-2-2-2h-20.1C471.3,724.9,470.3,725.8,470.3,726.9z M496.4,732.9c1.1,0,2,0.9,2,2V783
			c0,1.1-0.9,2-2,2h-28.1c-1.1,0-2-0.9-2-2v-48.1c0-1.1,0.9-2,2-2H496.4z"/>
	</g>
</g>
<g id="wind_x5F_display">
	<g id="Windmill_x5F_Gfx">
		<circle cx="351.9" cy="656.3" r="3.6"/>
		<path d="M358,652.7c9.8-17.6,11.4-24.6,10.5-25.2c-0.9-0.5-6.2,4.4-16.5,21.6C354.5,649.2,356.8,650.6,358,652.7z"/>
		<path d="M344.8,656.3c0-1.3,0.3-2.5,0.9-3.5c-20.1,0.4-27,2.4-27,3.5s6.9,3.1,27,3.5C345.1,658.7,344.8,657.5,344.8,656.3z"/>
		<path d="M358,659.8c-1.2,2.1-3.5,3.5-6,3.5c10.4,17.2,15.6,22.2,16.5,21.6C369.4,684.5,367.7,677.4,358,659.8z"/>
		<path d="M348.3,664.2v1.5v47.4h7.1v-37.6C353.4,672.5,351,668.8,348.3,664.2z"/>
	</g>
	<path id="wdno" class="st3" d="M210.4,423.7l-15.5-15.5c0,0,0,0,0-0.1c-0.6-0.6-1.2-0.9-2-1.1c0,0,0,0-0.1,0
		c-0.3-0.1-0.5-0.1-0.8-0.1l0,0l0,0c-0.3,0-0.5,0-0.8,0.1c0,0,0,0-0.1,0c-0.7,0.2-1.4,0.5-2,1.1c0,0,0,0,0,0.1l-15.5,15.5
		c-1.6,1.6-1.6,4.1,0,5.7s4.1,1.6,5.7,0l8.7-8.7V448c0,2.2,1.8,4,4,4s4-1.8,4-4v-27.3l8.7,8.7c1.6,1.6,4.1,1.6,5.7,0
		S211.9,425.3,210.4,423.7z"/>
	<path id="wdso" class="st3" d="M173.6,688.3l15.5,15.5c0,0,0,0,0,0.1c0.6,0.6,1.2,0.9,2,1.1c0,0,0,0,0.1,0c0.3,0.1,0.5,0.1,0.8,0.1
		l0,0l0,0c0.3,0,0.5,0,0.8-0.1c0,0,0,0,0.1,0c0.7-0.2,1.4-0.5,2-1.1c0,0,0,0,0-0.1l15.5-15.5c1.6-1.6,1.6-4.1,0-5.7s-4.1-1.6-5.7,0
		l-8.7,8.7V664c0-2.2-1.8-4-4-4s-4,1.8-4,4v27.3l-8.7-8.7c-1.6-1.6-4.1-1.6-5.7,0C172.1,684.2,172.1,686.7,173.6,688.3z"/>
	<path id="wdse" class="st3" d="M271.2,660h21.9c0,0,0,0,0.1,0c0.8,0,1.5-0.2,2.1-0.6c0,0,0,0,0.1,0c0.2-0.1,0.4-0.3,0.6-0.5l0,0
		l0,0c0.2-0.2,0.4-0.4,0.5-0.6c0,0,0,0,0-0.1c0.4-0.6,0.6-1.4,0.6-2.1c0,0,0,0,0-0.1v-22c0-2.2-1.8-4-4-4s-4,1.8-4,4v12.3L269.8,627
		c-1.6-1.6-4.1-1.6-5.7,0s-1.6,4.1,0,5.7l19.3,19.3h-12.3c-2.2,0-4,1.8-4,4C267.2,658.2,269,660,271.2,660z"/>
	<path id="wdnw" class="st3" d="M112.8,450.8H90.9c0,0,0,0-0.1,0c-0.8,0-1.5,0.2-2.1,0.6c0,0,0,0-0.1,0c-0.2,0.1-0.4,0.3-0.6,0.5
		l0,0l0,0c-0.2,0.2-0.4,0.4-0.5,0.6c0,0,0,0,0,0.1c-0.4,0.6-0.6,1.4-0.6,2.1c0,0,0,0,0,0.1v21.9c0,2.2,1.8,4,4,4s4-1.8,4-4v-12.3
		l19.3,19.3c1.6,1.6,4.1,1.6,5.7,0s1.6-4.1,0-5.7l-19.3-19.3h12.3c2.2,0,4-1.8,4-4C116.8,452.6,115,450.8,112.8,450.8z"/>
	<path id="wdsw" class="st3" d="M86.7,635.4v21.9c0,0,0,0,0,0.1c0,0.8,0.2,1.5,0.6,2.1c0,0,0,0,0,0.1c0.1,0.2,0.3,0.4,0.5,0.6l0,0
		l0,0c0.2,0.2,0.4,0.4,0.6,0.5c0,0,0,0,0.1,0c0.6,0.4,1.4,0.6,2.1,0.6c0,0,0,0,0.1,0h21.9c2.2,0,4-1.8,4-4s-1.8-4-4-4h-12.3
		l19.3-19.3c1.6-1.6,1.6-4.1,0-5.7c-1.6-1.6-4.1-1.6-5.7,0l-19.3,19.3v-12.3c0-2.2-1.8-4-4-4C88.5,631.4,86.7,633.2,86.7,635.4z"/>
	<path id="wdea" class="st3" d="M324.3,574.4l15.5-15.5c0,0,0,0,0.1,0c0.6-0.6,0.9-1.2,1.1-2c0,0,0,0,0-0.1c0.1-0.3,0.1-0.5,0.1-0.8
		l0,0l0,0c0-0.3,0-0.5-0.1-0.8c0,0,0,0,0-0.1c-0.2-0.7-0.5-1.4-1.1-2c0,0,0,0-0.1,0l-15.5-15.5c-1.6-1.6-4.1-1.6-5.7,0
		s-1.6,4.1,0,5.7l8.7,8.7H300c-2.2,0-4,1.8-4,4s1.8,4,4,4h27.3l-8.7,8.7c-1.6,1.6-1.6,4.1,0,5.7
		C320.2,575.9,322.7,575.9,324.3,574.4z"/>
	<path id="wdwe" class="st3" d="M59.7,537.6l-15.5,15.5c0,0,0,0-0.1,0c-0.6,0.6-0.9,1.2-1.1,2c0,0,0,0,0,0.1
		c-0.1,0.3-0.1,0.5-0.1,0.8l0,0l0,0c0,0.3,0,0.5,0.1,0.8c0,0,0,0,0,0.1c0.2,0.7,0.5,1.4,1.1,2c0,0,0,0,0.1,0l15.5,15.5
		c1.6,1.6,4.1,1.6,5.7,0c1.6-1.6,1.6-4.1,0-5.7l-8.7-8.7H84c2.2,0,4-1.8,4-4s-1.8-4-4-4H56.7l8.7-8.7c1.6-1.6,1.6-4.1,0-5.7
		C63.8,536.1,61.3,536.1,59.7,537.6z"/>
	<path id="wdne" class="st3" d="M297.2,476.8v-21.9c0,0,0,0,0-0.1c0-0.8-0.2-1.5-0.6-2.1c0,0,0,0,0-0.1c-0.1-0.2-0.3-0.4-0.5-0.6
		l0,0l0,0c-0.2-0.2-0.4-0.4-0.6-0.5c0,0,0,0-0.1,0c-0.6-0.4-1.4-0.6-2.1-0.6c0,0,0,0-0.1,0h-21.9c-2.2,0-4,1.8-4,4s1.8,4,4,4h12.3
		l-19.3,19.3c-1.6,1.6-1.6,4.1,0,5.7s4.1,1.6,5.7,0l19.3-19.3v12.3c0,2.2,1.8,4,4,4C295.4,480.8,297.2,479,297.2,476.8z"/>
	<text transform="matrix(1 0 0 1 190 548.833)" text-anchor="middle" class="st1 st4">WSP</text>
	<text transform="matrix(1 0 0 1 190 618.8466)" text-anchor="middle" class="st1 st4">WGUS</text>
	<text transform="matrix(1 0 0 1 151.4142 484.9879)" class="st1 st5">Wind (mph)</text>
	<text transform="matrix(1 0 0 1 152.6021 636.3571)" class="st1 st5">Gust (mph)</text>
	<text transform="matrix(1 0 0 1 46.5274 561.3147)" class="st1 st6">W</text>
	<text transform="matrix(1 0 0 1 187.6021 701.3571)" class="st1 st6">S</text>
	<text transform="matrix(1 0 0 1 186.8728 422.2964)" class="st1 st6">N</text>
	<text transform="matrix(1 0 0 1 327.6021 561.3571)" class="st1 st6">E</text>
	<line class="st7" x1="108.5" y1="556" x2="280.1" y2="556"/>
	<circle id="Wind_x5F_Circle" class="st0" cx="192" cy="556" r="149"/>
	<text transform="matrix(1 0 0 1 5 704)" class="st1 st8">WDIRECT</text>
</g>
<g id="temp_x5F_display">
	<path id="ple" class="st3" d="M424.5,700.9l15.5-15.5c0,0,0,0,0.1,0c0.6-0.6,0.9-1.2,1.1-2c0,0,0,0,0-0.1c0.1-0.3,0.1-0.5,0.1-0.8
		l0,0l0,0c0-0.3,0-0.5-0.1-0.8c0,0,0,0,0-0.1c-0.2-0.7-0.5-1.4-1.1-2c0,0,0,0-0.1,0l-15.5-15.5c-1.6-1.6-4.1-1.6-5.7,0
		s-1.6,4.1,0,5.7l8.7,8.7h-27.3c-2.2,0-4,1.8-4,4s1.8,4,4,4h27.3l-8.7,8.7c-1.6,1.6-1.6,4.1,0,5.7
		C420.4,702.5,422.9,702.5,424.5,700.9z"/>
	<path id="pup" class="st3" d="M437.2,676.8l-15.5-15.5c0,0,0,0,0-0.1c-0.6-0.6-1.2-0.9-2-1.1c0,0,0,0-0.1,0
		c-0.3-0.1-0.5-0.1-0.8-0.1l0,0l0,0c-0.3,0-0.5,0-0.8,0.1c0,0,0,0-0.1,0c-0.7,0.2-1.4,0.5-2,1.1c0,0,0,0,0,0.1l-15.5,15.5
		c-1.6,1.6-1.6,4.1,0,5.7c1.6,1.6,4.1,1.6,5.7,0l8.7-8.7v27.3c0,2.2,1.8,4,4,4s4-1.8,4-4v-27.3l8.7,8.7c1.6,1.6,4.1,1.6,5.7,0
		C438.8,680.9,438.8,678.4,437.2,676.8z"/>
	<path id="pdn" class="st3" d="M400.4,688.3l15.5,15.5c0,0,0,0,0,0.1c0.6,0.6,1.2,0.9,2,1.1c0,0,0,0,0.1,0c0.3,0.1,0.5,0.1,0.8,0.1
		l0,0l0,0c0.3,0,0.5,0,0.8-0.1c0,0,0,0,0.1,0c0.7-0.2,1.4-0.5,2-1.1c0,0,0,0,0-0.1l15.5-15.5c1.6-1.6,1.6-4.1,0-5.7
		c-1.6-1.6-4.1-1.6-5.7,0l-8.7,8.7V664c0-2.2-1.8-4-4-4s-4,1.8-4,4v27.3l-8.7-8.7c-1.6-1.6-4.1-1.6-5.7,0
		C398.8,684.2,398.8,686.7,400.4,688.3z"/>
	<text transform="matrix(1 0 0 1 8 251.4259)" class="st1 st5">Interior Temp (F)</text>
	<text transform="matrix(1 0 0 1 396 393.426)" class="st1 st5">Guest Room Temp (F)</text>
	<text transform="matrix(1 0 0 1 396 449.614)" class="st1 st9">TMP4TMP</text>
	<text transform="matrix(1 0 0 1 396 501.4258)" class="st1 st5">Dew Point (F)</text>
	<text transform="matrix(1 0 0 1 396 558.6137)" class="st1 st9">DWPNT</text>
	<text transform="matrix(1 0 0 1 396 580.4256)" class="st1 st5">Rel Humidity (%)</text>
	<text transform="matrix(1 0 0 1 395.1501 638.6135)" class="st1 st9">RLHUM</text>
	<text transform="matrix(1 0 0 1 396 657.9193)" class="st1 st5">Pressure (hPa)</text>
	<text transform="matrix(1 0 0 1 447.474 706.8477)" class="st1 st10">PRESS</text>
	<text transform="matrix(1 0 0 1 491.3176 109.5298)" class="st1 st11">FORHI</text>
	<text transform="matrix(1 0 0 1 491.376 160.6878)" class="st1 st11">FORLO</text>
	<text transform="matrix(1 0 0 1 8 73.4258)" class="st1 st5">Exterior Temp (F)</text>
	<text transform="matrix(1 0 0 1 8 203.4258)" class="st1 st5">TMP0TIME</text>
	<text transform="matrix(1 0 0 1 8 229.4258)" class="st1 st12">H:</text>
	<text transform="matrix(1 0 0 1 38 229.4258)" class="st1 st12">TMP0HI</text>
	<text transform="matrix(1 0 0 1 198 229.4258)" class="st1 st12">L:</text>
	<text transform="matrix(1 0 0 1 228 229.4258)" class="st1 st12">TMP0LO</text>
	<text transform="matrix(1 0 0 1 400 464.4258)" class="st1 st6">TMP4TIME</text>
	<text transform="matrix(1 0 0 1 400 478.4258)" class="st1 st6">H:</text>
	<text transform="matrix(1 0 0 1 415 478.4258)" class="st1 st6">TMP4HI</text>
	<text transform="matrix(1 0 0 1 504 478.4258)" class="st1 st6">L:</text>
	<text transform="matrix(1 0 0 1 517 478.4258)" class="st1 st6">TMP4LO</text>
	<text transform="matrix(1 0 0 1 396 289.426)" class="st1 st5">Garage Temp (F)</text>
	<text transform="matrix(1 0 0 1 396 345.614)" class="st1 st9">TMP3TMP</text>
	<text transform="matrix(1 0 0 1 400 360.4258)" class="st1 st6">TMP3TIME</text>
	<text transform="matrix(1 0 0 1 400 374.4258)" class="st1 st6">H:</text>
	<text transform="matrix(1 0 0 1 415 374.4258)" class="st1 st6">TMP3HI</text>
	<text transform="matrix(1 0 0 1 504 374.4258)" class="st1 st6">L:</text>
	<text transform="matrix(1 0 0 1 517 374.4258)" class="st1 st6">TMP3LO</text>
	<text transform="matrix(1 0 0 1 396 181.426)" class="st1 st5">Master Bed Temp (F)</text>
	<text transform="matrix(1 0 0 1 396 86.6287)" class="st1 st5">Forecast</text>
	<text transform="matrix(1 0 0 1 396 108.2287)" class="st1 st5">High:</text>
	<text transform="matrix(1 0 0 1 396 131.3976)" class="st1 st5">Forecast</text>
	<text transform="matrix(1 0 0 1 396 152.9976)" class="st1 st5">Low:</text>
	<text transform="matrix(1 0 0 1 396 237.614)" class="st1 st9">TMP2TMP</text>
	<text transform="matrix(1 0 0 1 400 252.4258)" class="st1 st6">TMP2TIME</text>
	<text transform="matrix(1 0 0 1 400 266.4258)" class="st1 st6">H:</text>
	<text transform="matrix(1 0 0 1 415 266.4258)" class="st1 st6">TMP2HI</text>
	<text transform="matrix(1 0 0 1 504 266.4258)" class="st1 st6">L:</text>
	<text transform="matrix(1 0 0 1 517 266.4258)" class="st1 st6">TMP2LO</text>
	<text transform="matrix(1 0 0 1 8 364.4258)" class="st1 st5">TMP1TIME</text>
	<text transform="matrix(1 0 0 1 8 390.4258)" class="st1 st12">H:</text>
	<text transform="matrix(1 0 0 1 38 390.4258)" class="st1 st12">TMP1HI</text>
	<text transform="matrix(1 0 0 1 198 390.4258)" class="st1 st12">L:</text>
	<text transform="matrix(1 0 0 1 228 390.4258)" class="st1 st12">TMP1LO</text>
	<text transform="matrix(1 0 0 1 -1 180.9874)" class="st1 st13">TMP0TMP</text>
	<text transform="matrix(1 0 0 1 -1 343.2676)" class="st1 st14">TMP1TMP</text>
	<g>
		<rect x="360.6" y="318.8" width="5.5" height="1.5"/>
		<rect x="360.6" y="332.9" width="5.5" height="1.5"/>
		<rect x="360.6" y="347.1" width="5.5" height="1.5"/>
		<path d="M373.7,360.3V312c0-5.7-4.6-10.4-10.4-10.4c-5.7,0-10.8,4.6-10.8,10.4v48.7c-3.6,3.1-5.9,7.6-5.9,12.7
			c0,9.2,7.5,16.6,16.6,16.6c9.2,0,16.6-7.5,16.6-16.6C380,368.1,377.5,363.4,373.7,360.3z M363.4,384.4c-6.1,0-11-4.9-11-11
			c0-4.1,2.3-7.6,5.6-9.5V314c0-3,2.5-5.4,5.5-5.4s5.5,2.4,5.5,5.4v49.9c3.3,1.9,5.5,5.4,5.5,9.5
			C374.4,379.5,369.5,384.4,363.4,384.4z"/>
		<path d="M366.3,366.1v-10.7h-5.9v10.7c-2.9,1.2-4.9,4-4.9,7.2c0,4.3,3.5,7.8,7.8,7.8s7.8-3.5,7.8-7.8
			C371.2,370.1,369.2,367.3,366.3,366.1z"/>
	</g>
</g>
<g id="time_x5F_display">
	<text transform="matrix(1 0 0 1 358.1036 39.2488)" class="st1 st15">SNRISE</text>
	<text transform="matrix(1 0 0 1 7.9998 39.8514)" class="st1 st8">CURTIME</text>
	<text transform="matrix(1 0 0 1 119.7499 36.8514)" class="st1 st16">CURDATE</text>
	<text transform="matrix(1 0 0 1 505.0002 39.2489)" class="st1 st15">SNSET</text>
	<path d="M492.1,29.6c-0.6,0-1.3,0-2,0.3c-0.7-4.8-4.9-8.4-9.7-8.4c-1,0-1.9,0.2-2.8,0.5c0-0.5,0.1-0.9,0.1-1.4
		c0-5-3.2-10.1-7.7-12.5c-0.4-0.2-0.7-0.1-1,0.1c-0.3,0.3-0.4,0.6-0.3,1c0,0,0.8,2.1,0.8,4.2c0,5.9-5.4,10.8-11.7,10.8
		c-2.9,0-5.9-1.6-5.9-1.7c-0.3-0.2-0.7-0.2-1,0.1c-0.3,0.2-0.5,0.5-0.4,0.9c0.8,3.2,3,6.2,5.9,8.2c-1.4,1.5-2.3,3.5-2.3,5.7
		c0,4.1,3.3,7.7,7.2,7.7H492c3.9,0,7.2-3.6,7.2-7.7C499.4,33.1,496,29.6,492.1,29.6z M453.1,25c1.3,0.5,3,1,4.8,1
		c7.3,0,13.5-5.8,13.5-12.6c0-0.8-0.1-1.6-0.3-2.3c2.9,2.3,4.8,6,4.8,9.6c0,0.7-0.1,1.4-0.2,2.1c-1.4,0.7-2.5,1.7-3.4,3
		c-0.8-0.4-1.7-0.6-2.7-0.6c-3,0-5.4,2-6.1,4.8c-0.6-0.1-1.3-0.2-2-0.2c-1.3,0-2.3,0.4-3.4,0.9C455.9,29.2,454.1,27.2,453.1,25z
		 M492.1,43.1h-30.7c-2.9,0-5.4-2.7-5.4-5.9s2.5-5.9,5.4-5.9c0.8,0,1.6,0.2,2.3,0.5c0.3,0.1,0.6,0.1,0.8,0c0.3-0.2,0.5-0.5,0.5-0.7
		c0.1-2.3,2.1-4.2,4.5-4.2c0.9,0,1.8,0.3,2.5,0.7c0.2,0.1,0.5,0.1,0.7,0.1c0.3-0.1,0.5-0.2,0.5-0.5c1.4-2.5,4.2-4.1,7-4.1
		c4.3,0,7.9,3.6,8.1,7.9c0,0.4,0.2,0.6,0.5,0.8c0.3,0.2,0.6,0.1,0.9-0.1c0.5-0.4,1.1-0.5,2.2-0.5c2.9,0,5.4,2.7,5.4,5.9
		S495,43.1,492.1,43.1z"/>
	<g>
		<path d="M350.1,35.8h-8.4c0.1-0.7,0.1-1.3,0.1-2c0-8.8-7.1-15.9-15.9-15.9S310,25,310,33.8c0,0.7,0,1.3,0.1,2h-8.7
			c-0.4,0-0.7,0.3-0.7,0.7s0.3,0.7,0.7,0.7h48.7c0.4,0,0.7-0.3,0.7-0.7C350.7,36.1,350.4,35.8,350.1,35.8z M311.4,35.8
			c-0.1-0.7-0.1-1.3-0.1-2c0-8,6.5-14.6,14.6-14.6c8,0,14.6,6.5,14.6,14.6c0,0.7,0,1.3-0.1,2H311.4z"/>
		<path d="M345.5,39.7h-39.9c-0.4,0-0.7,0.3-0.7,0.7s0.3,0.7,0.7,0.7h39.9c0.4,0,0.7-0.3,0.7-0.7C346.1,40,345.8,39.7,345.5,39.7z"
			/>
		<path d="M338.5,43.7H313c-0.4,0-0.7,0.3-0.7,0.7s0.3,0.7,0.7,0.7h25.5c0.4,0,0.7-0.3,0.7-0.7C339.1,44,338.8,43.7,338.5,43.7z"/>
		<path d="M325.7,16.1c0.4,0,0.7-0.3,0.7-0.7V8.7c0-0.4-0.3-0.7-0.7-0.7c-0.4,0-0.7,0.3-0.7,0.7v6.8
			C325.1,15.8,325.4,16.1,325.7,16.1z"/>
		<path d="M351,31.2h-5.9c-0.4,0-0.7,0.3-0.7,0.7s0.3,0.7,0.7,0.7h5.9c0.4,0,0.7-0.3,0.7-0.7S351.4,31.2,351,31.2z"/>
		<path d="M307,31.9c0-0.4-0.3-0.7-0.7-0.7h-5.9c-0.4,0-0.7,0.3-0.7,0.7c0,0.4,0.3,0.7,0.7,0.7h5.9C306.7,32.5,307,32.2,307,31.9z"
			/>
		<path d="M339.1,21.4c0.2,0,0.3-0.1,0.5-0.2l4.8-4.8c0.3-0.3,0.3-0.7,0-0.9c-0.3-0.3-0.7-0.3-0.9,0l-4.8,4.8
			c-0.3,0.3-0.3,0.7,0,0.9C338.8,21.3,339,21.4,339.1,21.4z"/>
		<path d="M312,21.2c0.1,0.1,0.3,0.2,0.5,0.2s0.3-0.1,0.5-0.2c0.3-0.3,0.3-0.7,0-0.9l-4.8-4.8c-0.3-0.3-0.7-0.3-0.9,0
			c-0.3,0.3-0.3,0.7,0,0.9L312,21.2z"/>
		<path d="M318.2,16.9c0.1,0.2,0.3,0.4,0.6,0.4c0.1,0,0.2,0,0.3-0.1c0.3-0.2,0.5-0.6,0.3-0.9l-2.1-4.2c-0.2-0.3-0.6-0.5-0.9-0.3
			s-0.5,0.6-0.3,0.9L318.2,16.9z"/>
		<path d="M332.6,17.2c0.1,0,0.2,0.1,0.3,0.1c0.2,0,0.5-0.1,0.6-0.4l2.1-4.2c0.2-0.3,0-0.7-0.3-0.9s-0.7,0-0.9,0.3l-2.1,4.2
			C332.1,16.7,332.2,17.1,332.6,17.2z"/>
		<path d="M342.7,26.4c0.1,0.3,0.4,0.4,0.6,0.4c0.1,0,0.2,0,0.2,0l4.4-1.6c0.3-0.1,0.5-0.5,0.4-0.8s-0.5-0.5-0.8-0.4l-4.4,1.6
			C342.8,25.7,342.6,26.1,342.7,26.4z"/>
		<path d="M303.7,25.2l4.4,1.6c0.1,0,0.1,0,0.2,0c0.3,0,0.5-0.2,0.6-0.4c0.1-0.3-0.1-0.7-0.4-0.8l-4.4-1.6c-0.3-0.1-0.7,0.1-0.8,0.4
			C303.2,24.7,303.4,25.1,303.7,25.2z"/>
	</g>
</g>
</svg>
