<?xml version="1.0" encoding="utf-8"?>
<!-- Generator: Adobe Illustrator 16.0.0, SVG Export Plug-In . SVG Version: 6.00 Build 0)  -->
<!DOCTYPE svg PUBLIC "-//W3C//DTD SVG 1.1//EN" "http://www.w3.org/Graphics/SVG/1.1/DTD/svg11.dtd">
<svg version="1.1" id="Layer_1" xmlns="http://www.w3.org/2000/svg" xmlns:xlink="http://www.w3.org/1999/xlink" x="0px" y="0px"
	 width="612px" height="792px" viewBox="0 0 612 792" enable-background="new 0 0 612 792" xml:space="preserve">
<g id="layout">
	<line fill="none" stroke="#000000" stroke-width="3" stroke-miterlimit="10" x1="393.12" y1="51.48" x2="393.12" y2="796.5"/>
	<line fill="none" stroke="#000000" stroke-width="3" stroke-miterlimit="10" x1="393.12" y1="405.5" x2="0" y2="405.5"/>
	<line fill="none" stroke="#000000" stroke-width="3" stroke-miterlimit="10" x1="393.12" y1="486.497" x2="0" y2="486.497"/>
	<line fill="none" stroke="#000000" stroke-width="3" stroke-miterlimit="10" x1="0" y1="51.48" x2="612" y2="51.48"/>
	<line fill="none" stroke="#000000" stroke-width="3" stroke-miterlimit="10" x1="393.12" y1="626.83" x2="0" y2="626.83"/>
</g>
<g id="battery_x5F_display">
	<text id="Sensor00" transform="matrix(0.9091 0 0 1 398.0234 765.5967)" font-family="'ArialMT'" font-size="13.5885">00</text>
	<text id="Sensor01" transform="matrix(0.9091 0 0 1 440.0547 765.5967)" font-family="'ArialMT'" font-size="13.5885">01</text>
	<text id="Sensor02" transform="matrix(0.9091 0 0 1 482.9473 765.5967)" font-family="'ArialMT'" font-size="13.5885">02</text>
	<text id="Sensor03" transform="matrix(0.9091 0 0 1 525.6729 765.5967)" font-family="'ArialMT'" font-size="13.5885">03</text>
	<text id="Sensor04" transform="matrix(0.9091 0 0 1 568.4131 765.5967)" font-family="'ArialMT'" font-size="13.5885">04</text>
	<g id="BatSens00">
		<path id="b00Bat4" fill-opacity="0" d="M419.683,756.936v1.03h-2.06c-1.132,0-2.059,0.927-2.059,2.062v26.92
			c-0.054,1.132,0.875,2.059,2.008,2.059h16.521c1.133,0,2.062-0.927,2.062-2.059V760.13c0-1.133-0.929-2.059-2.062-2.059h-2.059
			v-1.029c0-0.566-0.464-1.03-1.03-1.03H420.66C420.146,755.907,419.683,756.37,419.683,756.936z M433.064,760.076
			c0.564,0,1.027,0.463,1.027,1.025v24.761c0,0.564-0.463,1.027-1.027,1.027H418.6c-0.562,0-1.025-0.463-1.025-1.027v-24.812
			c0-0.562,0.463-1.027,1.025-1.027h14.467L433.064,760.076L433.064,760.076z M431.521,780.716c0.309,0,0.515,0.206,0.515,0.518
			v3.089c0,0.309-0.206,0.515-0.515,0.515h-11.325c-0.311,0-0.517-0.206-0.517-0.515v-3.089c0-0.312,0.206-0.518,0.517-0.518
			H431.521z M431.521,774.488c0.309,0,0.515,0.206,0.515,0.515v3.087c0,0.312-0.206,0.52-0.515,0.52h-11.325
			c-0.311,0-0.517-0.206-0.517-0.52v-3.087c0-0.309,0.206-0.515,0.517-0.515H431.521z M431.521,768.312
			c0.309,0,0.515,0.203,0.515,0.515v3.089c0,0.309-0.206,0.515-0.515,0.515h-11.325c-0.311,0-0.517-0.206-0.517-0.515v-3.089
			c0-0.312,0.206-0.515,0.517-0.515H431.521z M431.521,762.135c0.309,0,0.515,0.206,0.515,0.518v3.089
			c0,0.309-0.206,0.515-0.515,0.515h-11.325c-0.311,0-0.517-0.206-0.517-0.515v-3.089c0-0.312,0.206-0.518,0.517-0.518H431.521z
			 M420.196,774.488h11.376c0.309,0,0.515,0.206,0.515,0.515v3.087c0,0.312-0.206,0.52-0.515,0.52h-11.376
			c-0.311,0-0.517-0.206-0.517-0.52v-3.087C419.683,774.745,419.889,774.488,420.196,774.488z M420.196,780.716h11.376
			c0.309,0,0.515,0.206,0.515,0.518v3.089c0,0.309-0.206,0.515-0.515,0.515h-11.376c-0.311,0-0.517-0.206-0.517-0.515v-3.089
			C419.683,780.922,419.889,780.716,420.196,780.716z M420.196,762.135h11.376c0.309,0,0.515,0.206,0.515,0.518v3.089
			c0,0.309-0.206,0.515-0.515,0.515h-11.376c-0.311,0-0.517-0.206-0.517-0.515v-3.089
			C419.683,762.341,419.889,762.135,420.196,762.135z M420.196,768.312h11.376c0.309,0,0.515,0.203,0.515,0.515v3.089
			c0,0.309-0.206,0.515-0.515,0.515h-11.376c-0.311,0-0.517-0.206-0.517-0.515v-3.089
			C419.683,768.568,419.889,768.312,420.196,768.312z"/>
		<path id="b00Bat3" d="M419.631,778.143v-3.089c0-0.309,0.206-0.515,0.518-0.515h11.376c0.309,0,0.515,0.206,0.515,0.515v3.089
			c0,0.312-0.206,0.518-0.515,0.518h-11.376C419.837,778.657,419.631,778.4,419.631,778.143z M432.036,784.319v-3.089
			c0-0.312-0.206-0.518-0.515-0.518h-11.379c-0.309,0-0.515,0.206-0.515,0.518v3.089c0,0.309,0.206,0.515,0.515,0.515h11.379
			C431.778,784.834,432.036,784.577,432.036,784.319z M432.036,771.915v-3.089c0-0.312-0.206-0.518-0.515-0.518h-11.379
			c-0.309,0-0.515,0.206-0.515,0.518v3.089c0,0.309,0.206,0.515,0.515,0.515h11.379C431.778,772.43,432.036,772.224,432.036,771.915
			z M419.631,756.988v1.025h-2.059c-1.133,0-2.062,0.93-2.062,2.062v26.813c0,1.136,0.929,2.062,2.062,2.062h16.521
			c1.133,0,2.062-0.927,2.062-2.062v-26.766c0-1.133-0.929-2.059-2.062-2.059h-2.059v-1.029c0-0.566-0.464-1.03-1.03-1.03H420.66
			C420.095,755.958,419.631,756.421,419.631,756.988z M433.064,760.076c0.564,0,1.027,0.463,1.027,1.025v24.761
			c0,0.564-0.463,1.027-1.027,1.027H418.6c-0.562,0-1.025-0.463-1.025-1.027v-24.761c0-0.562,0.463-1.025,1.025-1.025H433.064z"/>
		<path id="b00Bat2" fill-opacity="0" d="M419.631,778.143v-3.089c0-0.309,0.206-0.515,0.518-0.515h11.376
			c0.309,0,0.515,0.206,0.515,0.515v3.089c0,0.312-0.206,0.518-0.515,0.518h-11.376C419.837,778.657,419.631,778.4,419.631,778.143z
			 M432.036,784.319v-3.089c0-0.312-0.206-0.518-0.515-0.518h-11.379c-0.309,0-0.515,0.206-0.515,0.518v3.089
			c0,0.309,0.206,0.515,0.515,0.515h11.379C431.778,784.834,432.036,784.577,432.036,784.319z M419.631,756.988v1.025h-2.059
			c-1.133,0-2.062,0.93-2.062,2.062v26.813c0,1.136,0.929,2.062,2.062,2.062h16.521c1.133,0,2.062-0.927,2.062-2.062v-26.766
			c0-1.133-0.929-2.059-2.062-2.059h-2.059v-1.029c0-0.566-0.464-1.03-1.03-1.03H420.66
			C420.095,755.958,419.631,756.421,419.631,756.988z M433.064,760.076c0.564,0,1.027,0.463,1.027,1.025v24.761
			c0,0.564-0.463,1.027-1.027,1.027H418.6c-0.562,0-1.025-0.463-1.025-1.027v-24.761c0-0.562,0.463-1.025,1.025-1.025H433.064z"/>
		<path id="b00Bat1" fill-opacity="0" d="M432.036,784.319v-3.089c0-0.312-0.206-0.518-0.515-0.518h-11.379
			c-0.309,0-0.515,0.206-0.515,0.518v3.089c0,0.309,0.206,0.515,0.515,0.515h11.379C431.83,784.834,432.036,784.577,432.036,784.319
			z M419.631,756.988v1.025h-2.059c-1.133,0-2.062,0.93-2.062,2.062v26.813c0,1.136,0.929,2.062,2.062,2.062h16.521
			c1.133,0,2.062-0.927,2.062-2.062v-26.766c0-1.133-0.929-2.059-2.062-2.059h-2.059v-1.029c0-0.566-0.464-1.03-1.03-1.03H420.66
			C420.146,755.958,419.631,756.421,419.631,756.988z M433.064,760.076c0.564,0,1.027,0.463,1.027,1.025v24.761
			c0,0.564-0.463,1.027-1.027,1.027H418.6c-0.562,0-1.025-0.463-1.025-1.027v-24.761c0-0.562,0.463-1.025,1.025-1.025H433.064z"/>
		<path id="b00Bat0" fill-opacity="0" d="M419.631,756.988v1.025h-2.059c-1.133,0-2.062,0.93-2.062,2.062v26.813
			c0,1.136,0.929,2.062,2.062,2.062h16.521c1.133,0,2.062-0.927,2.062-2.062v-26.766c0-1.133-0.929-2.059-2.062-2.059h-2.059v-1.029
			c0-0.566-0.464-1.03-1.03-1.03H420.66C420.146,755.958,419.631,756.421,419.631,756.988z M433.064,760.076
			c0.564,0,1.027,0.463,1.027,1.025v24.761c0,0.564-0.463,1.027-1.027,1.027H418.6c-0.562,0-1.025-0.463-1.025-1.027v-24.761
			c0-0.562,0.463-1.025,1.025-1.025H433.064z"/>
	</g>
	<g id="BatSens01">
		<path id="b01Bat4" fill-opacity="0" d="M462.302,756.936v1.03h-2.06c-1.132,0-2.062,0.927-2.062,2.062v26.92
			c-0.053,1.132,0.874,2.059,2.01,2.059h16.521c1.132,0,2.062-0.927,2.062-2.059V760.13c0-1.133-0.93-2.059-2.062-2.059h-2.06
			v-1.029c0-0.566-0.464-1.03-1.028-1.03h-10.346C462.765,755.907,462.302,756.37,462.302,756.936z M475.684,760.076
			c0.565,0,1.029,0.463,1.029,1.025v24.761c0,0.564-0.464,1.027-1.029,1.027h-14.463c-0.564,0-1.027-0.463-1.027-1.027v-24.812
			c0-0.562,0.463-1.027,1.027-1.027h14.463V760.076z M474.14,780.716c0.311,0,0.517,0.206,0.517,0.518v3.089
			c0,0.309-0.206,0.515-0.517,0.515h-11.32c-0.312,0-0.518-0.206-0.518-0.515v-3.089c0-0.312,0.204-0.518,0.518-0.518H474.14z
			 M474.14,774.488c0.311,0,0.517,0.206,0.517,0.515v3.087c0,0.312-0.206,0.52-0.517,0.52h-11.32c-0.312,0-0.518-0.206-0.518-0.52
			v-3.087c0-0.309,0.204-0.515,0.518-0.515H474.14z M474.14,768.312c0.311,0,0.517,0.203,0.517,0.515v3.089
			c0,0.309-0.206,0.515-0.517,0.515h-11.32c-0.312,0-0.518-0.206-0.518-0.515v-3.089c0-0.312,0.204-0.515,0.518-0.515H474.14z
			 M474.14,762.135c0.311,0,0.517,0.206,0.517,0.518v3.089c0,0.309-0.206,0.515-0.517,0.515h-11.32
			c-0.312,0-0.518-0.206-0.518-0.515v-3.089c0-0.312,0.204-0.518,0.518-0.518H474.14z M462.816,774.488h11.374
			c0.31,0,0.516,0.206,0.516,0.515v3.087c0,0.312-0.206,0.52-0.516,0.52h-11.374c-0.312,0-0.518-0.206-0.518-0.52v-3.087
			C462.302,774.745,462.506,774.488,462.816,774.488z M462.816,780.716h11.374c0.31,0,0.516,0.206,0.516,0.518v3.089
			c0,0.309-0.206,0.515-0.516,0.515h-11.374c-0.312,0-0.518-0.206-0.518-0.515v-3.089
			C462.302,780.922,462.506,780.716,462.816,780.716z M462.816,762.135h11.374c0.31,0,0.516,0.206,0.516,0.518v3.089
			c0,0.309-0.206,0.515-0.516,0.515h-11.374c-0.312,0-0.518-0.206-0.518-0.515v-3.089
			C462.302,762.341,462.506,762.135,462.816,762.135z M462.816,768.312h11.374c0.31,0,0.516,0.203,0.516,0.515v3.089
			c0,0.309-0.206,0.515-0.516,0.515h-11.374c-0.312,0-0.518-0.206-0.518-0.515v-3.089
			C462.302,768.568,462.506,768.312,462.816,768.312z"/>
		<path id="b01Bat3" d="M462.249,778.143v-3.089c0-0.309,0.206-0.515,0.516-0.515h11.375c0.311,0,0.517,0.206,0.517,0.515v3.089
			c0,0.312-0.206,0.518-0.517,0.518h-11.375C462.455,778.657,462.249,778.4,462.249,778.143z M474.653,784.319v-3.089
			c0-0.312-0.206-0.518-0.517-0.518h-11.375c-0.31,0-0.516,0.206-0.516,0.518v3.089c0,0.309,0.206,0.515,0.516,0.515h11.375
			C474.396,784.834,474.653,784.577,474.653,784.319z M474.653,771.915v-3.089c0-0.312-0.206-0.518-0.517-0.518h-11.375
			c-0.31,0-0.516,0.206-0.516,0.518v3.089c0,0.309,0.206,0.515,0.516,0.515h11.375C474.396,772.43,474.653,772.224,474.653,771.915z
			 M462.249,756.988v1.025h-2.059c-1.136,0-2.062,0.93-2.062,2.062v26.813c0,1.136,0.927,2.062,2.062,2.062h16.521
			c1.132,0,2.062-0.927,2.062-2.062v-26.766c0-1.133-0.93-2.059-2.062-2.059h-2.06v-1.029c0-0.566-0.464-1.03-1.028-1.03h-10.346
			C462.712,755.958,462.249,756.421,462.249,756.988z M475.684,760.076c0.565,0,1.029,0.463,1.029,1.025v24.761
			c0,0.564-0.464,1.027-1.029,1.027h-14.463c-0.564,0-1.027-0.463-1.027-1.027v-24.761c0-0.562,0.463-1.025,1.027-1.025H475.684z"/>
		<path id="b01Bat2" fill-opacity="0" d="M462.249,778.143v-3.089c0-0.309,0.206-0.515,0.516-0.515h11.375
			c0.311,0,0.517,0.206,0.517,0.515v3.089c0,0.312-0.206,0.518-0.517,0.518h-11.375C462.455,778.657,462.249,778.4,462.249,778.143z
			 M474.653,784.319v-3.089c0-0.312-0.206-0.518-0.517-0.518h-11.375c-0.31,0-0.516,0.206-0.516,0.518v3.089
			c0,0.309,0.206,0.515,0.516,0.515h11.375C474.396,784.834,474.653,784.577,474.653,784.319z M462.249,756.988v1.025h-2.059
			c-1.136,0-2.062,0.93-2.062,2.062v26.813c0,1.136,0.927,2.062,2.062,2.062h16.521c1.132,0,2.062-0.927,2.062-2.062v-26.766
			c0-1.133-0.93-2.059-2.062-2.059h-2.06v-1.029c0-0.566-0.464-1.03-1.028-1.03h-10.346
			C462.712,755.958,462.249,756.421,462.249,756.988z M475.684,760.076c0.565,0,1.029,0.463,1.029,1.025v24.761
			c0,0.564-0.464,1.027-1.029,1.027h-14.463c-0.564,0-1.027-0.463-1.027-1.027v-24.761c0-0.562,0.463-1.025,1.027-1.025H475.684z"/>
		<path id="b01Bat1" fill-opacity="0" d="M474.653,784.319v-3.089c0-0.312-0.206-0.518-0.517-0.518h-11.375
			c-0.31,0-0.516,0.206-0.516,0.518v3.089c0,0.309,0.206,0.515,0.516,0.515h11.375C474.447,784.834,474.653,784.577,474.653,784.319
			z M462.249,756.988v1.025h-2.059c-1.136,0-2.062,0.93-2.062,2.062v26.813c0,1.136,0.927,2.062,2.062,2.062h16.521
			c1.132,0,2.062-0.927,2.062-2.062v-26.766c0-1.133-0.93-2.059-2.062-2.059h-2.06v-1.029c0-0.566-0.464-1.03-1.028-1.03h-10.346
			C462.765,755.958,462.249,756.421,462.249,756.988z M475.684,760.076c0.565,0,1.029,0.463,1.029,1.025v24.761
			c0,0.564-0.464,1.027-1.029,1.027h-14.463c-0.564,0-1.027-0.463-1.027-1.027v-24.761c0-0.562,0.463-1.025,1.027-1.025H475.684z"/>
		<path id="b01Bat0" fill-opacity="0" d="M462.249,756.988v1.025h-2.059c-1.136,0-2.062,0.93-2.062,2.062v26.813
			c0,1.136,0.927,2.062,2.062,2.062h16.521c1.132,0,2.062-0.927,2.062-2.062v-26.766c0-1.133-0.93-2.059-2.062-2.059h-2.06v-1.029
			c0-0.566-0.464-1.03-1.028-1.03h-10.346C462.765,755.958,462.249,756.421,462.249,756.988z M475.684,760.076
			c0.565,0,1.029,0.463,1.029,1.025v24.761c0,0.564-0.464,1.027-1.029,1.027h-14.463c-0.564,0-1.027-0.463-1.027-1.027v-24.761
			c0-0.562,0.463-1.025,1.027-1.025H475.684z"/>
	</g>
	<g id="BatSens02">
		<path id="b02Bat4" fill-opacity="0" d="M505.125,756.936v1.03h-2.059c-1.136,0-2.062,0.927-2.062,2.062v26.92
			c-0.052,1.132,0.875,2.059,2.008,2.059h16.522c1.132,0,2.059-0.927,2.059-2.059V760.13c0-1.133-0.927-2.059-2.059-2.059h-2.062
			v-1.029c0-0.566-0.463-1.03-1.027-1.03h-10.349C505.589,755.907,505.125,756.37,505.125,756.936z M518.508,760.076
			c0.566,0,1.03,0.463,1.03,1.025v24.761c0,0.564-0.464,1.027-1.03,1.027h-14.463c-0.566,0-1.029-0.463-1.029-1.027v-24.812
			c0-0.562,0.463-1.027,1.029-1.027h14.463V760.076z M516.965,780.716c0.311,0,0.514,0.206,0.514,0.518v3.089
			c0,0.309-0.203,0.515-0.514,0.515H505.64c-0.309,0-0.515-0.206-0.515-0.515v-3.089c0-0.312,0.206-0.518,0.515-0.518H516.965z
			 M516.965,774.488c0.311,0,0.514,0.206,0.514,0.515v3.087c0,0.312-0.203,0.52-0.514,0.52H505.64c-0.309,0-0.515-0.206-0.515-0.52
			v-3.087c0-0.309,0.206-0.515,0.515-0.515H516.965z M516.965,768.312c0.311,0,0.514,0.203,0.514,0.515v3.089
			c0,0.309-0.203,0.515-0.514,0.515H505.64c-0.309,0-0.515-0.206-0.515-0.515v-3.089c0-0.312,0.206-0.515,0.515-0.515H516.965z
			 M516.965,762.135c0.311,0,0.514,0.206,0.514,0.518v3.089c0,0.309-0.203,0.515-0.514,0.515H505.64
			c-0.309,0-0.515-0.206-0.515-0.515v-3.089c0-0.312,0.206-0.518,0.515-0.518H516.965z M505.64,774.488h11.376
			c0.312,0,0.518,0.206,0.518,0.515v3.087c0,0.312-0.206,0.52-0.518,0.52H505.64c-0.309,0-0.515-0.206-0.515-0.52v-3.087
			C505.125,774.745,505.331,774.488,505.64,774.488z M505.64,780.716h11.376c0.312,0,0.518,0.206,0.518,0.518v3.089
			c0,0.309-0.206,0.515-0.518,0.515H505.64c-0.309,0-0.515-0.206-0.515-0.515v-3.089
			C505.125,780.922,505.331,780.716,505.64,780.716z M505.64,762.135h11.376c0.312,0,0.518,0.206,0.518,0.518v3.089
			c0,0.309-0.206,0.515-0.518,0.515H505.64c-0.309,0-0.515-0.206-0.515-0.515v-3.089
			C505.125,762.341,505.331,762.135,505.64,762.135z M505.64,768.312h11.376c0.312,0,0.518,0.203,0.518,0.515v3.089
			c0,0.309-0.206,0.515-0.518,0.515H505.64c-0.309,0-0.515-0.206-0.515-0.515v-3.089
			C505.125,768.568,505.331,768.312,505.64,768.312z"/>
		<path id="b02Bat3" d="M505.074,778.143v-3.089c0-0.309,0.206-0.515,0.515-0.515h11.376c0.311,0,0.514,0.206,0.514,0.515v3.089
			c0,0.312-0.203,0.518-0.514,0.518h-11.376C505.28,778.657,505.074,778.4,505.074,778.143z M517.479,784.319v-3.089
			c0-0.312-0.203-0.518-0.514-0.518h-11.376c-0.309,0-0.515,0.206-0.515,0.518v3.089c0,0.309,0.206,0.515,0.515,0.515h11.376
			C517.222,784.834,517.479,784.577,517.479,784.319z M517.479,771.915v-3.089c0-0.312-0.203-0.518-0.514-0.518h-11.376
			c-0.309,0-0.515,0.206-0.515,0.518v3.089c0,0.309,0.206,0.515,0.515,0.515h11.376C517.222,772.43,517.479,772.224,517.479,771.915
			z M505.074,756.988v1.025h-2.062c-1.133,0-2.06,0.93-2.06,2.062v26.813c0,1.136,0.927,2.062,2.06,2.062h16.522
			c1.132,0,2.059-0.927,2.059-2.062v-26.766c0-1.133-0.927-2.059-2.059-2.059h-2.062v-1.029c0-0.566-0.463-1.03-1.027-1.03h-10.349
			C505.537,755.958,505.074,756.421,505.074,756.988z M518.508,760.076c0.566,0,1.03,0.463,1.03,1.025v24.761
			c0,0.564-0.464,1.027-1.03,1.027h-14.463c-0.566,0-1.029-0.463-1.029-1.027v-24.761c0-0.562,0.463-1.025,1.029-1.025H518.508z"/>
		<path id="b02Bat2" fill-opacity="0" d="M505.074,778.143v-3.089c0-0.309,0.206-0.515,0.515-0.515h11.376
			c0.311,0,0.514,0.206,0.514,0.515v3.089c0,0.312-0.203,0.518-0.514,0.518h-11.376C505.28,778.657,505.074,778.4,505.074,778.143z
			 M517.479,784.319v-3.089c0-0.312-0.203-0.518-0.514-0.518h-11.376c-0.309,0-0.515,0.206-0.515,0.518v3.089
			c0,0.309,0.206,0.515,0.515,0.515h11.376C517.222,784.834,517.479,784.577,517.479,784.319z M505.074,756.988v1.025h-2.062
			c-1.133,0-2.06,0.93-2.06,2.062v26.813c0,1.136,0.927,2.062,2.06,2.062h16.522c1.132,0,2.059-0.927,2.059-2.062v-26.766
			c0-1.133-0.927-2.059-2.059-2.059h-2.062v-1.029c0-0.566-0.463-1.03-1.027-1.03h-10.349
			C505.537,755.958,505.074,756.421,505.074,756.988z M518.508,760.076c0.566,0,1.03,0.463,1.03,1.025v24.761
			c0,0.564-0.464,1.027-1.03,1.027h-14.463c-0.566,0-1.029-0.463-1.029-1.027v-24.761c0-0.562,0.463-1.025,1.029-1.025H518.508z"/>
		<path id="b02Bat1" fill-opacity="0" d="M517.479,784.319v-3.089c0-0.312-0.203-0.518-0.514-0.518h-11.376
			c-0.309,0-0.515,0.206-0.515,0.518v3.089c0,0.309,0.206,0.515,0.515,0.515h11.376
			C517.271,784.834,517.479,784.577,517.479,784.319z M505.074,756.988v1.025h-2.062c-1.133,0-2.06,0.93-2.06,2.062v26.813
			c0,1.136,0.927,2.062,2.06,2.062h16.522c1.132,0,2.059-0.927,2.059-2.062v-26.766c0-1.133-0.927-2.059-2.059-2.059h-2.062v-1.029
			c0-0.566-0.463-1.03-1.027-1.03h-10.349C505.589,755.958,505.074,756.421,505.074,756.988z M518.508,760.076
			c0.566,0,1.03,0.463,1.03,1.025v24.761c0,0.564-0.464,1.027-1.03,1.027h-14.463c-0.566,0-1.029-0.463-1.029-1.027v-24.761
			c0-0.562,0.463-1.025,1.029-1.025H518.508z"/>
		<path id="b02Bat0" fill-opacity="0" d="M505.074,756.988v1.025h-2.062c-1.133,0-2.06,0.93-2.06,2.062v26.813
			c0,1.136,0.927,2.062,2.06,2.062h16.522c1.132,0,2.059-0.927,2.059-2.062v-26.766c0-1.133-0.927-2.059-2.059-2.059h-2.062v-1.029
			c0-0.566-0.463-1.03-1.027-1.03h-10.349C505.589,755.958,505.074,756.421,505.074,756.988z M518.508,760.076
			c0.566,0,1.03,0.463,1.03,1.025v24.761c0,0.564-0.464,1.027-1.03,1.027h-14.463c-0.566,0-1.029-0.463-1.029-1.027v-24.761
			c0-0.562,0.463-1.025,1.029-1.025H518.508z"/>
	</g>
	<g id="BatSens03">
		<path id="b03Bat4" fill-opacity="0" d="M547.847,756.936v1.03h-2.059c-1.133,0-2.062,0.927-2.062,2.062v26.92
			c-0.051,1.132,0.876,2.059,2.011,2.059h16.521c1.133,0,2.062-0.927,2.062-2.059V760.13c0-1.133-0.93-2.059-2.062-2.059H560.2
			v-1.029c0-0.566-0.463-1.03-1.03-1.03h-10.346C548.31,755.907,547.847,756.37,547.847,756.936z M561.229,760.076
			c0.567,0,1.03,0.463,1.03,1.025v24.761c0,0.564-0.463,1.027-1.03,1.027h-14.462c-0.563,0-1.027-0.463-1.027-1.027v-24.812
			c0-0.562,0.464-1.027,1.027-1.027h14.462V760.076z M559.686,780.716c0.312,0,0.518,0.206,0.518,0.518v3.089
			c0,0.309-0.206,0.515-0.518,0.515h-11.321c-0.312,0-0.518-0.206-0.518-0.515v-3.089c0-0.312,0.206-0.518,0.518-0.518H559.686z
			 M559.686,774.488c0.312,0,0.518,0.206,0.518,0.515v3.087c0,0.312-0.206,0.52-0.518,0.52h-11.321c-0.312,0-0.518-0.206-0.518-0.52
			v-3.087c0-0.309,0.206-0.515,0.518-0.515H559.686z M559.686,768.312c0.312,0,0.518,0.203,0.518,0.515v3.089
			c0,0.309-0.206,0.515-0.518,0.515h-11.321c-0.312,0-0.518-0.206-0.518-0.515v-3.089c0-0.312,0.206-0.515,0.518-0.515H559.686z
			 M559.686,762.135c0.312,0,0.518,0.206,0.518,0.518v3.089c0,0.309-0.206,0.515-0.518,0.515h-11.321
			c-0.312,0-0.518-0.206-0.518-0.515v-3.089c0-0.312,0.206-0.518,0.518-0.518H559.686z M548.361,774.488h11.376
			c0.308,0,0.514,0.206,0.514,0.515v3.087c0,0.312-0.206,0.52-0.514,0.52h-11.376c-0.312,0-0.518-0.206-0.518-0.52v-3.087
			C547.847,774.745,548.053,774.488,548.361,774.488z M548.361,780.716h11.376c0.308,0,0.514,0.206,0.514,0.518v3.089
			c0,0.309-0.206,0.515-0.514,0.515h-11.376c-0.312,0-0.518-0.206-0.518-0.515v-3.089
			C547.847,780.922,548.053,780.716,548.361,780.716z M548.361,762.135h11.376c0.308,0,0.514,0.206,0.514,0.518v3.089
			c0,0.309-0.206,0.515-0.514,0.515h-11.376c-0.312,0-0.518-0.206-0.518-0.515v-3.089
			C547.847,762.341,548.053,762.135,548.361,762.135z M548.361,768.312h11.376c0.308,0,0.514,0.203,0.514,0.515v3.089
			c0,0.309-0.206,0.515-0.514,0.515h-11.376c-0.312,0-0.518-0.206-0.518-0.515v-3.089
			C547.847,768.568,548.053,768.312,548.361,768.312z"/>
		<path id="b03Bat3" d="M547.796,778.143v-3.089c0-0.309,0.206-0.515,0.514-0.515h11.376c0.312,0,0.518,0.206,0.518,0.515v3.089
			c0,0.312-0.206,0.518-0.518,0.518H548.31C548.002,778.657,547.796,778.4,547.796,778.143z M560.2,784.319v-3.089
			c0-0.312-0.206-0.518-0.518-0.518H548.31c-0.308,0-0.514,0.206-0.514,0.518v3.089c0,0.309,0.206,0.515,0.514,0.515h11.376
			C559.943,784.834,560.2,784.577,560.2,784.319z M560.2,771.915v-3.089c0-0.312-0.206-0.518-0.518-0.518H548.31
			c-0.308,0-0.514,0.206-0.514,0.518v3.089c0,0.309,0.206,0.515,0.514,0.515h11.376C559.943,772.43,560.2,772.224,560.2,771.915z
			 M547.796,756.988v1.025h-2.06c-1.133,0-2.062,0.93-2.062,2.062v26.813c0,1.136,0.929,2.062,2.062,2.062h16.521
			c1.133,0,2.062-0.927,2.062-2.062v-26.766c0-1.133-0.93-2.059-2.062-2.059H560.2v-1.029c0-0.566-0.463-1.03-1.03-1.03h-10.346
			C548.259,755.958,547.796,756.421,547.796,756.988z M561.229,760.076c0.567,0,1.03,0.463,1.03,1.025v24.761
			c0,0.564-0.463,1.027-1.03,1.027h-14.462c-0.563,0-1.027-0.463-1.027-1.027v-24.761c0-0.562,0.464-1.025,1.027-1.025H561.229z"/>
		<path id="b03Bat2" fill-opacity="0" d="M547.796,778.143v-3.089c0-0.309,0.206-0.515,0.514-0.515h11.376
			c0.312,0,0.518,0.206,0.518,0.515v3.089c0,0.312-0.206,0.518-0.518,0.518H548.31C548.002,778.657,547.796,778.4,547.796,778.143z
			 M560.2,784.319v-3.089c0-0.312-0.206-0.518-0.518-0.518H548.31c-0.308,0-0.514,0.206-0.514,0.518v3.089
			c0,0.309,0.206,0.515,0.514,0.515h11.376C559.943,784.834,560.2,784.577,560.2,784.319z M547.796,756.988v1.025h-2.06
			c-1.133,0-2.062,0.93-2.062,2.062v26.813c0,1.136,0.929,2.062,2.062,2.062h16.521c1.133,0,2.062-0.927,2.062-2.062v-26.766
			c0-1.133-0.93-2.059-2.062-2.059H560.2v-1.029c0-0.566-0.463-1.03-1.03-1.03h-10.346
			C548.259,755.958,547.796,756.421,547.796,756.988z M561.229,760.076c0.567,0,1.03,0.463,1.03,1.025v24.761
			c0,0.564-0.463,1.027-1.03,1.027h-14.462c-0.563,0-1.027-0.463-1.027-1.027v-24.761c0-0.562,0.464-1.025,1.027-1.025H561.229z"/>
		<path id="b03Bat1" fill-opacity="0" d="M560.2,784.319v-3.089c0-0.312-0.206-0.518-0.518-0.518H548.31
			c-0.308,0-0.514,0.206-0.514,0.518v3.089c0,0.309,0.206,0.515,0.514,0.515h11.376C559.994,784.834,560.2,784.577,560.2,784.319z
			 M547.796,756.988v1.025h-2.06c-1.133,0-2.062,0.93-2.062,2.062v26.813c0,1.136,0.929,2.062,2.062,2.062h16.521
			c1.133,0,2.062-0.927,2.062-2.062v-26.766c0-1.133-0.93-2.059-2.062-2.059H560.2v-1.029c0-0.566-0.463-1.03-1.03-1.03h-10.346
			C548.31,755.958,547.796,756.421,547.796,756.988z M561.229,760.076c0.567,0,1.03,0.463,1.03,1.025v24.761
			c0,0.564-0.463,1.027-1.03,1.027h-14.462c-0.563,0-1.027-0.463-1.027-1.027v-24.761c0-0.562,0.464-1.025,1.027-1.025H561.229z"/>
		<path id="b03Bat0" d="M547.796,756.988v1.025h-2.06c-1.133,0-2.062,0.93-2.062,2.062v26.813c0,1.136,0.929,2.062,2.062,2.062
			h16.521c1.133,0,2.062-0.927,2.062-2.062v-26.766c0-1.133-0.93-2.059-2.062-2.059H560.2v-1.029c0-0.566-0.463-1.03-1.03-1.03
			h-10.346C548.31,755.958,547.796,756.421,547.796,756.988z M561.229,760.076c0.567,0,1.03,0.463,1.03,1.025v24.761
			c0,0.564-0.463,1.027-1.03,1.027h-14.462c-0.563,0-1.027-0.463-1.027-1.027v-24.761c0-0.562,0.464-1.025,1.027-1.025H561.229z"/>
	</g>
	<g id="BatSens04">
		<path id="b04Bat4" fill-opacity="0" d="M589.898,756.936v1.03h-2.062c-1.133,0-2.059,0.927-2.059,2.062v26.92
			c-0.055,1.132,0.875,2.059,2.008,2.059h16.521c1.135,0,2.062-0.927,2.062-2.059V760.13c0-1.133-0.927-2.059-2.062-2.059h-2.06
			v-1.029c0-0.566-0.463-1.03-1.029-1.03h-10.345C590.362,755.907,589.898,756.37,589.898,756.936z M603.281,760.076
			c0.563,0,1.027,0.463,1.027,1.025v24.761c0,0.564-0.464,1.027-1.027,1.027h-14.462c-0.567,0-1.03-0.463-1.03-1.027v-24.812
			c0-0.562,0.463-1.027,1.03-1.027h14.462V760.076z M601.738,780.716c0.309,0,0.514,0.206,0.514,0.518v3.089
			c0,0.309-0.205,0.515-0.514,0.515h-11.325c-0.312,0-0.515-0.206-0.515-0.515v-3.089c0-0.312,0.203-0.518,0.515-0.518H601.738z
			 M601.738,774.488c0.309,0,0.514,0.206,0.514,0.515v3.087c0,0.312-0.205,0.52-0.514,0.52h-11.325c-0.312,0-0.515-0.206-0.515-0.52
			v-3.087c0-0.309,0.203-0.515,0.515-0.515H601.738z M601.738,768.312c0.309,0,0.514,0.203,0.514,0.515v3.089
			c0,0.309-0.205,0.515-0.514,0.515h-11.325c-0.312,0-0.515-0.206-0.515-0.515v-3.089c0-0.312,0.203-0.515,0.515-0.515H601.738z
			 M601.738,762.135c0.309,0,0.514,0.206,0.514,0.518v3.089c0,0.309-0.205,0.515-0.514,0.515h-11.325
			c-0.312,0-0.515-0.206-0.515-0.515v-3.089c0-0.312,0.203-0.518,0.515-0.518H601.738z M590.413,774.488h11.376
			c0.309,0,0.515,0.206,0.515,0.515v3.087c0,0.312-0.206,0.52-0.515,0.52h-11.376c-0.31,0-0.515-0.206-0.515-0.52v-3.087
			C589.898,774.745,590.104,774.488,590.413,774.488z M590.413,780.716h11.376c0.309,0,0.515,0.206,0.515,0.518v3.089
			c0,0.309-0.206,0.515-0.515,0.515h-11.376c-0.31,0-0.515-0.206-0.515-0.515v-3.089
			C589.898,780.922,590.104,780.716,590.413,780.716z M590.413,762.135h11.376c0.309,0,0.515,0.206,0.515,0.518v3.089
			c0,0.309-0.206,0.515-0.515,0.515h-11.376c-0.31,0-0.515-0.206-0.515-0.515v-3.089
			C589.898,762.341,590.104,762.135,590.413,762.135z M590.413,768.312h11.376c0.309,0,0.515,0.203,0.515,0.515v3.089
			c0,0.309-0.206,0.515-0.515,0.515h-11.376c-0.31,0-0.515-0.206-0.515-0.515v-3.089
			C589.898,768.568,590.104,768.312,590.413,768.312z"/>
		<path id="b04Bat3" d="M589.848,778.143v-3.089c0-0.309,0.206-0.515,0.518-0.515h11.376c0.309,0,0.514,0.206,0.514,0.515v3.089
			c0,0.312-0.205,0.518-0.514,0.518h-11.376C590.054,778.657,589.848,778.4,589.848,778.143z M602.252,784.319v-3.089
			c0-0.312-0.205-0.518-0.514-0.518h-11.376c-0.312,0-0.518,0.206-0.518,0.518v3.089c0,0.309,0.206,0.515,0.518,0.515h11.376
			C601.995,784.834,602.252,784.577,602.252,784.319z M602.252,771.915v-3.089c0-0.312-0.205-0.518-0.514-0.518h-11.376
			c-0.312,0-0.518,0.206-0.518,0.518v3.089c0,0.309,0.206,0.515,0.518,0.515h11.376C601.995,772.43,602.252,772.224,602.252,771.915
			z M589.848,756.988v1.025h-2.059c-1.133,0-2.061,0.93-2.061,2.062v26.813c0,1.136,0.928,2.062,2.061,2.062h16.521
			c1.135,0,2.062-0.927,2.062-2.062v-26.766c0-1.133-0.927-2.059-2.062-2.059h-2.06v-1.029c0-0.566-0.463-1.03-1.029-1.03h-10.345
			C590.311,755.958,589.848,756.421,589.848,756.988z M603.281,760.076c0.563,0,1.027,0.463,1.027,1.025v24.761
			c0,0.564-0.464,1.027-1.027,1.027h-14.462c-0.567,0-1.03-0.463-1.03-1.027v-24.761c0-0.562,0.463-1.025,1.03-1.025H603.281z"/>
		<path id="b04Bat2" fill-opacity="0" d="M589.848,778.143v-3.089c0-0.309,0.206-0.515,0.518-0.515h11.376
			c0.309,0,0.514,0.206,0.514,0.515v3.089c0,0.312-0.205,0.518-0.514,0.518h-11.376C590.054,778.657,589.848,778.4,589.848,778.143z
			 M602.252,784.319v-3.089c0-0.312-0.205-0.518-0.514-0.518h-11.376c-0.312,0-0.518,0.206-0.518,0.518v3.089
			c0,0.309,0.206,0.515,0.518,0.515h11.376C601.995,784.834,602.252,784.577,602.252,784.319z M589.848,756.988v1.025h-2.059
			c-1.133,0-2.061,0.93-2.061,2.062v26.813c0,1.136,0.928,2.062,2.061,2.062h16.521c1.135,0,2.062-0.927,2.062-2.062v-26.766
			c0-1.133-0.927-2.059-2.062-2.059h-2.06v-1.029c0-0.566-0.463-1.03-1.029-1.03h-10.345
			C590.311,755.958,589.848,756.421,589.848,756.988z M603.281,760.076c0.563,0,1.027,0.463,1.027,1.025v24.761
			c0,0.564-0.464,1.027-1.027,1.027h-14.462c-0.567,0-1.03-0.463-1.03-1.027v-24.761c0-0.562,0.463-1.025,1.03-1.025H603.281z"/>
		<path id="b04Bat1" fill-opacity="0" d="M602.252,784.319v-3.089c0-0.312-0.205-0.518-0.514-0.518h-11.376
			c-0.312,0-0.518,0.206-0.518,0.518v3.089c0,0.309,0.206,0.515,0.518,0.515h11.376
			C602.047,784.834,602.252,784.577,602.252,784.319z M589.848,756.988v1.025h-2.059c-1.133,0-2.061,0.93-2.061,2.062v26.813
			c0,1.136,0.928,2.062,2.061,2.062h16.521c1.135,0,2.062-0.927,2.062-2.062v-26.766c0-1.133-0.927-2.059-2.062-2.059h-2.06v-1.029
			c0-0.566-0.463-1.03-1.029-1.03h-10.345C590.362,755.958,589.848,756.421,589.848,756.988z M603.281,760.076
			c0.563,0,1.027,0.463,1.027,1.025v24.761c0,0.564-0.464,1.027-1.027,1.027h-14.462c-0.567,0-1.03-0.463-1.03-1.027v-24.761
			c0-0.562,0.463-1.025,1.03-1.025H603.281z"/>
		<path id="b04Bat0" fill-opacity="0" d="M589.848,756.988v1.025h-2.059c-1.133,0-2.061,0.93-2.061,2.062v26.813
			c0,1.136,0.928,2.062,2.061,2.062h16.521c1.135,0,2.062-0.927,2.062-2.062v-26.766c0-1.133-0.927-2.059-2.062-2.059h-2.06v-1.029
			c0-0.566-0.463-1.03-1.029-1.03h-10.345C590.362,755.958,589.848,756.421,589.848,756.988z M603.281,760.076
			c0.563,0,1.027,0.463,1.027,1.025v24.761c0,0.564-0.464,1.027-1.027,1.027h-14.462c-0.567,0-1.03-0.463-1.03-1.027v-24.761
			c0-0.562,0.463-1.025,1.03-1.025H603.281z"/>
	</g>
</g>
<g id="wind_x5F_display">
	<g id="Windmill_x5F_Gfx">
		<circle cx="49.567" cy="545.33" r="5.146"/>
		<path d="M58.287,540.183c14.012-25.165,16.299-35.172,15.013-36.032c-1.289-0.714-8.868,6.292-23.587,30.887
			C53.281,535.181,56.573,537.182,58.287,540.183z"/>
		<path d="M39.414,545.332c0-1.858,0.433-3.573,1.289-5.005c-28.736,0.572-38.604,3.43-38.604,5.005
			c0,1.571,9.868,4.43,38.604,5.001C39.847,548.762,39.414,547.044,39.414,545.332z"/>
		<path d="M58.287,550.333c-1.714,3.007-5.01,5.009-8.574,5.009c14.863,24.589,22.298,31.737,23.587,30.882
			C74.586,585.646,72.154,575.495,58.287,550.333z"/>
		<path d="M44.421,556.624v2.146v67.764h10.148v-53.755C51.709,568.491,48.279,563.199,44.421,556.624z"/>
	</g>
	<text transform="matrix(1 0 0 1 200.5601 540.9971)" font-family="'ArialMT'" font-size="60">WSP</text>
	<text transform="matrix(1 0 0 1 200.5601 583.0234)" font-family="'ArialMT'" font-size="48">WGUS</text>
	<text transform="matrix(1 0 0 1 85.1328 540.7207)" font-family="'ArialMT'" font-size="19.7363">Wind (mph):</text>
	<text transform="matrix(1 0 0 1 87.1328 582.0234)" font-family="'ArialMT'" font-size="19.7363">Gust (mph):</text>
	<text transform="matrix(1 0 0 1 87.1328 620.9854)" font-family="'ArialMT'" font-size="19.7363">Direction:</text>
	<text transform="matrix(1 0 0 1 200.5601 620.9854)" font-family="'ArialMT'" font-size="48">WDIRECT</text>
</g>
<g id="temp_x5F_display">
	<path id="ple" fill-opacity="0" d="M429.255,737.997l15.345-15.345c0,0,0,0,0.103,0c0.594-0.597,0.891-1.188,1.089-1.979
		c0,0,0,0,0-0.1c0.099-0.297,0.099-0.495,0.099-0.792l0,0l0,0c0-0.297,0-0.495-0.099-0.792c0,0,0,0,0-0.102
		c-0.198-0.69-0.495-1.386-1.089-1.979c0,0,0,0-0.103,0l-15.345-15.345c-1.584-1.584-4.059-1.584-5.643,0s-1.584,4.059,0,5.644
		l8.609,8.612h-27.023c-2.182,0-3.96,1.781-3.96,3.96s1.778,3.96,3.96,3.96h27.023l-8.609,8.613c-1.584,1.584-1.584,4.059,0,5.644
		C425.196,739.581,427.671,739.581,429.255,737.997z"/>
	<path id="pup" fill-opacity="0" d="M441.828,714.139l-15.345-15.345c0,0,0,0,0-0.1c-0.598-0.597-1.188-0.894-1.98-1.089
		c0,0,0,0-0.099,0c-0.297-0.102-0.495-0.102-0.792-0.102l0,0l0,0c-0.297,0-0.495,0-0.792,0.102c0,0,0,0-0.103,0
		c-0.689,0.195-1.386,0.492-1.979,1.089c0,0,0,0,0,0.1l-15.347,15.345c-1.585,1.584-1.585,4.062,0,5.646
		c1.584,1.584,4.061,1.584,5.645,0l8.613-8.612v27.026c0,2.178,1.778,3.96,3.96,3.96c2.178,0,3.96-1.782,3.96-3.96V711.17
		l8.61,8.612c1.584,1.584,4.062,1.584,5.646,0S443.412,715.723,441.828,714.139z"/>
	<path id="pdn" fill-opacity="0" d="M405.396,725.523l15.345,15.345c0,0,0,0,0,0.1c0.594,0.594,1.188,0.894,1.979,1.089
		c0,0,0,0,0.103,0c0.297,0.102,0.495,0.102,0.792,0.102l0,0l0,0c0.297,0,0.495,0,0.792-0.102c0,0,0,0,0.099,0
		c0.693-0.195,1.386-0.495,1.98-1.089c0,0,0,0,0-0.1l15.345-15.345c1.584-1.584,1.584-4.062,0-5.646s-4.062-1.584-5.646,0
		l-8.609,8.612v-27.026c0-2.179-1.782-3.96-3.96-3.96c-2.182,0-3.96,1.781-3.96,3.96v27.026l-8.613-8.612
		c-1.584-1.584-4.061-1.584-5.645,0S403.812,723.939,405.396,725.523z"/>
	<text transform="matrix(1 0 0 1 16.9199 253.9111)" font-family="'ArialMT'" font-size="17.82">TMP1LABEL (F)</text>
	<text transform="matrix(1 0 0 1 401.04 281.9238)" font-family="'ArialMT'" font-size="17.82">TMP4LABEL (F)</text>
	<text transform="matrix(1 0 0 1 401.04 329.5498)" font-family="'ArialMT'" font-size="55">TMP4TMP</text>
	<text transform="matrix(1 0 0 1 399.0234 644.0459)" font-family="'ArialMT'" font-size="14">Dew Point (F)</text>
	<text transform="matrix(1 0 0 1 396.0234 683.6523)" font-family="'ArialMT'" font-size="48">DWPNT</text>
	<text transform="matrix(1 0 0 1 396.04 587.0449)" font-family="'ArialMT'" font-size="14">Rel Hum (%)</text>
	<text transform="matrix(1 0 0 1 395.1992 626.9854)" font-family="'ArialMT'" font-size="48">RELHUM</text>
	<text transform="matrix(1 0 0 1 456 706.6641)" font-family="'ArialMT'" font-size="17.82">Pressure (hPa)</text>
	<text transform="matrix(1 0 0 1 452 743.8857)" font-family="'ArialMT'" font-size="44">PRESS</text>
	<text transform="matrix(1 0 0 1 38.3433 474.4336)" font-family="'ArialMT'" font-size="60">FORHI</text>
	<text transform="matrix(1 0 0 1 226.1475 474.4336)" font-family="'ArialMT'" font-size="60">FORLO</text>
	<text transform="matrix(1 0 0 1 16.9199 70.6914)" font-family="'ArialMT'" font-size="17.82">TMP0LABEL (F)</text>
	<text transform="matrix(1 0 0 1 16.9199 201.3916)" font-family="'ArialMT'" font-size="17.82">TMP0TIME</text>
	<text transform="matrix(1 0 0 1 16.9199 225.1318)" font-family="'ArialMT'" font-size="23.76">H:</text>
	<text transform="matrix(1 0 0 1 46.6201 225.1318)" font-family="'ArialMT'" font-size="23.76">TMP0HI</text>
	<text transform="matrix(1 0 0 1 205.02 225.1318)" font-family="'ArialMT'" font-size="23.76">L:</text>
	<text transform="matrix(1 0 0 1 234.7202 225.1318)" font-family="'ArialMT'" font-size="23.76">TMP0LO</text>
	<text transform="matrix(1 0 0 1 405 344.2129)" font-family="'ArialMT'" font-size="13.86">TMP4TIME</text>
	<text transform="matrix(1 0 0 1 405 358.0732)" font-family="'ArialMT'" font-size="13.86">H:</text>
	<text transform="matrix(1 0 0 1 419.8496 358.0732)" font-family="'ArialMT'" font-size="13.86">TMP4HI</text>
	<text transform="matrix(1 0 0 1 507.96 358.0732)" font-family="'ArialMT'" font-size="13.86">L:</text>
	<text transform="matrix(1 0 0 1 520.8301 358.0732)" font-family="'ArialMT'" font-size="13.86">TMP4LO</text>
	<text transform="matrix(1 0 0 1 401.04 386.292)" font-family="'ArialMT'" font-size="17.82">TMP5LABEL (F)</text>
	<text transform="matrix(1 0 0 1 401.04 433.918)" font-family="'ArialMT'" font-size="55">TMP5TMP</text>
	<text transform="matrix(1 0 0 1 405 448.5811)" font-family="'ArialMT'" font-size="13.86">TMP5TIME</text>
	<text transform="matrix(1 0 0 1 405 462.4414)" font-family="'ArialMT'" font-size="13.86">H:</text>
	<text transform="matrix(1 0 0 1 419.8496 462.4414)" font-family="'ArialMT'" font-size="13.86">TMP5HI</text>
	<text transform="matrix(1 0 0 1 507.96 462.4414)" font-family="'ArialMT'" font-size="13.86">L:</text>
	<text transform="matrix(1 0 0 1 520.8301 462.4414)" font-family="'ArialMT'" font-size="13.86">TMP5LO</text>
	<text transform="matrix(1 0 0 1 401.04 490.8047)" font-family="'ArialMT'" font-size="17.82">TMP6LABEL (F)</text>
	<text transform="matrix(1 0 0 1 401.04 539.4307)" font-family="'ArialMT'" font-size="55">TMP6TMP</text>
	<text transform="matrix(1 0 0 1 405 554.0938)" font-family="'ArialMT'" font-size="13.86">TMP6TIME</text>
	<text transform="matrix(1 0 0 1 405 567.9541)" font-family="'ArialMT'" font-size="13.86">H:</text>
	<text transform="matrix(1 0 0 1 419.8496 567.9541)" font-family="'ArialMT'" font-size="13.86">TMP6HI</text>
	<text transform="matrix(1 0 0 1 507.96 567.9541)" font-family="'ArialMT'" font-size="13.86">L:</text>
	<text transform="matrix(1 0 0 1 520.8301 567.9541)" font-family="'ArialMT'" font-size="13.86">TMP6LO</text>
	<text transform="matrix(1 0 0 1 401.04 181.9639)" font-family="'ArialMT'" font-size="17.82">TMP3LABEL (F)</text>
	<text transform="matrix(1 0 0 1 401.04 229.5898)" font-family="'ArialMT'" font-size="55">TMP3TMP</text>
	<text transform="matrix(1 0 0 1 405 244.2529)" font-family="'ArialMT'" font-size="13.86">TMP3TIME</text>
	<text transform="matrix(1 0 0 1 405 258.1133)" font-family="'ArialMT'" font-size="13.86">H:</text>
	<text transform="matrix(1 0 0 1 419.8496 258.1133)" font-family="'ArialMT'" font-size="13.86">TMP3HI</text>
	<text transform="matrix(1 0 0 1 507.96 258.1133)" font-family="'ArialMT'" font-size="13.86">L:</text>
	<text transform="matrix(1 0 0 1 520.8301 258.1133)" font-family="'ArialMT'" font-size="13.86">TMP3LO</text>
	<text transform="matrix(1 0 0 1 401.04 72.043)" font-family="'ArialMT'" font-size="17.82">TMP2LABEL (F)</text>
	<text transform="matrix(1 0 0 1 8.0098 426.6914)" font-family="'ArialMT'" font-size="17.82">Forcast High:</text>
	<text transform="matrix(1 0 0 1 195.1475 426.6914)" font-family="'ArialMT'" font-size="17.82">Forcast Low:</text>
	<text transform="matrix(1 0 0 1 401.04 120.6699)" font-family="'ArialMT'" font-size="55">TMP2TMP</text>
	<text transform="matrix(1 0 0 1 405 135.333)" font-family="'ArialMT'" font-size="13.86">TMP2TIME</text>
	<text transform="matrix(1 0 0 1 405 149.1934)" font-family="'ArialMT'" font-size="13.86">H:</text>
	<text transform="matrix(1 0 0 1 419.8496 149.1934)" font-family="'ArialMT'" font-size="13.86">TMP2HI</text>
	<text transform="matrix(1 0 0 1 507.96 149.1934)" font-family="'ArialMT'" font-size="13.86">L:</text>
	<text transform="matrix(1 0 0 1 520.8301 149.1934)" font-family="'ArialMT'" font-size="13.86">TMP2LO</text>
	<text transform="matrix(1 0 0 1 16.9199 365.7812)" font-family="'ArialMT'" font-size="17.82">TMP1TIME</text>
	<text transform="matrix(1 0 0 1 16.9199 391.5215)" font-family="'ArialMT'" font-size="23.76">H:</text>
	<text transform="matrix(1 0 0 1 46.6201 391.5215)" font-family="'ArialMT'" font-size="23.76">TMP1HI</text>
	<text transform="matrix(1 0 0 1 205.02 391.5215)" font-family="'ArialMT'" font-size="23.76">L:</text>
	<text transform="matrix(1 0 0 1 234.7202 391.5215)" font-family="'ArialMT'" font-size="23.76">TMP1LO</text>
	<text transform="matrix(1 0 0 1 8.0098 177.1777)" font-family="'ArialMT'" font-size="133.65">TMP0TMP</text>
	<text transform="matrix(1 0 0 1 8.0098 344.835)" font-family="'ArialMT'" font-size="113.85">TMP1TMP</text>
	<g>
		<rect x="365.994" y="323.612" width="5.445" height="1.485"/>
		<rect x="365.994" y="337.571" width="5.445" height="1.485"/>
		<rect x="365.994" y="351.629" width="5.445" height="1.485"/>
		<path d="M378.963,364.697V316.88c0-5.643-4.554-10.296-10.296-10.296c-5.643,0-10.692,4.554-10.692,10.296v48.213
			c-3.562,3.069-5.841,7.524-5.841,12.573c0,9.107,7.425,16.434,16.438,16.434c9.104,0,16.434-7.425,16.434-16.434
			C385.2,372.419,382.725,367.766,378.963,364.697z M368.766,388.557c-6.039,0-10.89-4.852-10.89-10.891
			c0-4.059,2.277-7.524,5.544-9.405V318.86c0-2.97,2.475-5.346,5.445-5.346c2.97,0,5.441,2.376,5.441,5.346v49.401
			c3.271,1.881,5.445,5.346,5.445,9.405C379.656,383.705,374.805,388.557,368.766,388.557z"/>
		<path d="M371.637,370.439v-10.593h-5.841v10.593c-2.871,1.188-4.851,3.96-4.851,7.127c0,4.258,3.465,7.723,7.722,7.723
			s7.722-3.465,7.722-7.723C376.488,374.399,374.508,371.627,371.637,370.439z"/>
	</g>
</g>
<g id="time_x5F_display">
	<text transform="matrix(1 0 0 1 363.5225 38.8564)" font-family="'ArialMT'" font-size="32.67">SNRISE</text>
	<text transform="matrix(1 0 0 1 16.9199 39.4531)" font-family="'ArialMT'" font-size="35.64">CURTIME</text>
	<text transform="matrix(1 0 0 1 127.5522 36.4834)" font-family="'ArialMT'" font-size="29.7">CURDATE</text>
	<text transform="matrix(1 0 0 1 508.9502 38.8564)" font-family="'ArialMT'" font-size="32.67">SNSET</text>
	<path d="M496.179,29.304c-0.594,0-1.287,0-1.979,0.297c-0.693-4.752-4.854-8.316-9.604-8.316c-0.986,0-1.881,0.198-2.771,0.495
		c0-0.495,0.099-0.891,0.099-1.386c0-4.95-3.168-9.999-7.623-12.375c-0.396-0.198-0.689-0.099-0.99,0.099
		c-0.297,0.297-0.396,0.594-0.297,0.99c0,0,0.792,2.079,0.792,4.158c0,5.841-5.346,10.692-11.583,10.692
		c-2.871,0-5.841-1.584-5.841-1.683c-0.297-0.198-0.69-0.198-0.99,0.099c-0.297,0.198-0.491,0.495-0.396,0.891
		c0.792,3.168,2.97,6.138,5.841,8.118c-1.386,1.485-2.277,3.465-2.277,5.643c0,4.059,3.271,7.623,7.132,7.623h30.393
		c3.861,0,7.128-3.564,7.128-7.623C503.406,32.769,500.04,29.304,496.179,29.304z M457.569,24.75c1.287,0.495,2.97,0.99,4.752,0.99
		c7.227,0,13.361-5.742,13.361-12.474c0-0.792-0.099-1.584-0.297-2.277c2.871,2.277,4.752,5.94,4.752,9.504
		c0,0.693-0.099,1.386-0.194,2.079c-1.39,0.693-2.479,1.683-3.366,2.97c-0.792-0.396-1.687-0.594-2.673-0.594
		c-2.974,0-5.35,1.979-6.039,4.752c-0.597-0.099-1.287-0.198-1.98-0.198c-1.287,0-2.273,0.396-3.365,0.891
		C460.341,28.908,458.559,26.928,457.569,24.75z M496.179,42.669h-30.393c-2.871,0-5.346-2.673-5.346-5.841s2.475-5.841,5.346-5.841
		c0.792,0,1.584,0.198,2.273,0.495c0.301,0.099,0.598,0.099,0.796,0c0.297-0.198,0.491-0.495,0.491-0.693
		c0.103-2.277,2.079-4.158,4.455-4.158c0.895,0,1.782,0.297,2.479,0.693c0.194,0.099,0.495,0.099,0.689,0.099
		c0.297-0.099,0.495-0.198,0.495-0.495c1.386-2.475,4.158-4.059,6.934-4.059c4.257,0,7.817,3.564,8.019,7.821
		c0,0.396,0.198,0.594,0.495,0.792c0.297,0.198,0.594,0.099,0.891-0.099c0.495-0.396,1.089-0.495,2.182-0.495
		c2.867,0,5.346,2.673,5.346,5.841S499.05,42.669,496.179,42.669z"/>
	<g>
		<path d="M355.599,35.442h-8.312c0.099-0.693,0.099-1.287,0.099-1.98c0-8.712-7.025-15.741-15.741-15.741
			c-8.712,0-15.737,7.029-15.737,15.741c0,0.693,0,1.287,0.099,1.98h-8.613c-0.396,0-0.689,0.297-0.689,0.693
			c0,0.396,0.297,0.693,0.689,0.693h48.214c0.396,0,0.692-0.297,0.692-0.693C356.193,35.739,355.896,35.442,355.599,35.442z
			 M317.286,35.442c-0.103-0.693-0.103-1.287-0.103-1.98c0-7.92,6.438-14.454,14.454-14.454c7.92,0,14.454,6.435,14.454,14.454
			c0,0.693,0,1.287-0.099,1.98H317.286z"/>
		<path d="M351.045,39.303h-39.501c-0.396,0-0.693,0.297-0.693,0.693s0.301,0.693,0.693,0.693h39.501
			c0.396,0,0.693-0.297,0.693-0.693C351.639,39.6,351.342,39.303,351.045,39.303z"/>
		<path d="M344.115,43.263H318.87c-0.396,0-0.693,0.297-0.693,0.693s0.297,0.693,0.693,0.693h25.245
			c0.396,0,0.689-0.297,0.689-0.693C344.709,43.56,344.412,43.263,344.115,43.263z"/>
		<path d="M331.443,15.939c0.396,0,0.689-0.297,0.689-0.693V8.613c0-0.396-0.297-0.693-0.689-0.693
			c-0.396,0-0.693,0.297-0.693,0.693v6.732C330.849,15.642,331.146,15.939,331.443,15.939z"/>
		<path d="M356.49,30.888h-5.841c-0.396,0-0.693,0.297-0.693,0.693s0.297,0.693,0.693,0.693h5.841c0.396,0,0.689-0.297,0.689-0.693
			S356.886,30.888,356.49,30.888z"/>
		<path d="M312.93,31.581c0-0.396-0.297-0.693-0.689-0.693h-5.841c-0.396,0-0.693,0.297-0.693,0.693s0.297,0.693,0.693,0.693h5.841
			C312.633,32.175,312.93,31.878,312.93,31.581z"/>
		<path d="M344.709,21.186c0.198,0,0.297-0.099,0.495-0.198l4.752-4.752c0.297-0.297,0.297-0.693,0-0.891
			c-0.297-0.297-0.693-0.297-0.891,0l-4.752,4.752c-0.301,0.297-0.301,0.693,0,0.891C344.412,21.087,344.61,21.186,344.709,21.186z"
			/>
		<path d="M317.88,20.988c0.099,0.099,0.297,0.198,0.495,0.198s0.297-0.099,0.495-0.198c0.297-0.297,0.297-0.693,0-0.891
			l-4.752-4.752c-0.297-0.297-0.693-0.297-0.895,0c-0.297,0.297-0.297,0.693,0,0.891L317.88,20.988z"/>
		<path d="M324.018,16.731c0.103,0.198,0.301,0.396,0.598,0.396c0.099,0,0.194,0,0.297-0.099c0.297-0.198,0.495-0.594,0.297-0.891
			l-2.079-4.158c-0.198-0.297-0.594-0.495-0.891-0.297c-0.297,0.198-0.495,0.594-0.297,0.891L324.018,16.731z"/>
		<path d="M338.274,17.028c0.099,0,0.194,0.099,0.297,0.099c0.194,0,0.495-0.099,0.594-0.396l2.079-4.158
			c0.198-0.297,0-0.693-0.297-0.891c-0.297-0.198-0.693,0-0.895,0.297l-2.079,4.158C337.779,16.533,337.878,16.929,338.274,17.028z"
			/>
		<path d="M348.273,26.136c0.099,0.297,0.396,0.396,0.594,0.396c0.099,0,0.198,0,0.198,0l4.354-1.584
			c0.297-0.099,0.495-0.495,0.396-0.792c-0.103-0.297-0.495-0.495-0.792-0.396l-4.356,1.584
			C348.372,25.443,348.174,25.839,348.273,26.136z"/>
		<path d="M309.663,24.948l4.354,1.584c0.103,0,0.103,0,0.198,0c0.297,0,0.495-0.198,0.594-0.396
			c0.103-0.297-0.099-0.693-0.396-0.792l-4.356-1.584c-0.297-0.099-0.689,0.099-0.792,0.396
			C309.168,24.453,309.366,24.849,309.663,24.948z"/>
	</g>
</g>
</svg>
