<?xml version="1.0" encoding="utf-8"?>
<!-- Generator: Adobe Illustrator 16.0.0, SVG Export Plug-In . SVG Version: 6.00 Build 0)  -->
<!DOCTYPE svg PUBLIC "-//W3C//DTD SVG 1.1//EN" "http://www.w3.org/Graphics/SVG/1.1/DTD/svg11.dtd">
<svg version="1.1" id="Layer_1" xmlns="http://www.w3.org/2000/svg" xmlns:xlink="http://www.w3.org/1999/xlink" x="0px" y="0px"
	 width="612px" height="792px" viewBox="0 0 612 792" enable-background="new 0 0 612 792" xml:space="preserve">
<g id="layout">
	<line fill="none" stroke="#000000" stroke-width="3" stroke-miterlimit="10" x1="393.12" y1="51.48" x2="393.12" y2="796.5"/>
	<line fill="none" stroke="#000000" stroke-width="3" stroke-miterlimit="10" x1="393.12" y1="436.5" x2="9" y2="436.5"/>
	<line fill="none" stroke="#000000" stroke-width="3" stroke-miterlimit="10" x1="9" y1="51.48" x2="603" y2="51.48"/>
</g>
<g id="battery_x5F_display">
	<text id="Sensor00" transform="matrix(0.9091 0 0 1 398.0234 765.5967)" font-family="'ArialMT'" font-size="13.5885">00</text>
	<text id="Sensor01" transform="matrix(0.9091 0 0 1 440.0547 765.5967)" font-family="'ArialMT'" font-size="13.5885">01</text>
	<text id="Sensor02" transform="matrix(0.9091 0 0 1 482.9473 765.5967)" font-family="'ArialMT'" font-size="13.5885">02</text>
	<text id="Sensor03" transform="matrix(0.9091 0 0 1 525.6738 765.5967)" font-family="'ArialMT'" font-size="13.5885">03</text>
	<text id="Sensor04" transform="matrix(0.9091 0 0 1 568.4141 765.5967)" font-family="'ArialMT'" font-size="13.5885">04</text>
	<g id="BatSens00">
		<path id="b00Bat4" fill-opacity="0" d="M419.683,756.936v1.03h-2.06c-1.132,0-2.059,0.927-2.059,2.061v26.92
			c-0.053,1.132,0.875,2.059,2.008,2.059h16.521c1.133,0,2.061-0.927,2.061-2.059v-26.817c0-1.133-0.928-2.059-2.061-2.059h-2.059
			v-1.029c0-0.566-0.464-1.03-1.03-1.03H420.66C420.146,755.907,419.683,756.37,419.683,756.936z M433.064,760.076
			c0.565,0,1.028,0.463,1.028,1.026v24.76c0,0.565-0.463,1.028-1.028,1.028H418.6c-0.563,0-1.026-0.463-1.026-1.028v-24.811
			c0-0.563,0.463-1.028,1.026-1.028h14.466L433.064,760.076L433.064,760.076z M431.521,780.716c0.309,0,0.515,0.206,0.515,0.517
			v3.089c0,0.309-0.206,0.515-0.515,0.515h-11.325c-0.31,0-0.516-0.206-0.516-0.515v-3.089c0-0.311,0.206-0.517,0.516-0.517H431.521
			z M431.521,774.488c0.309,0,0.515,0.206,0.515,0.515v3.087c0,0.312-0.206,0.519-0.515,0.519h-11.325
			c-0.31,0-0.516-0.206-0.516-0.519v-3.087c0-0.309,0.206-0.515,0.516-0.515H431.521z M431.521,768.312
			c0.309,0,0.515,0.204,0.515,0.515v3.089c0,0.309-0.206,0.515-0.515,0.515h-11.325c-0.31,0-0.516-0.206-0.516-0.515v-3.089
			c0-0.311,0.206-0.515,0.516-0.515H431.521z M431.521,762.135c0.309,0,0.515,0.206,0.515,0.517v3.089
			c0,0.309-0.206,0.515-0.515,0.515h-11.325c-0.31,0-0.516-0.206-0.516-0.515v-3.089c0-0.311,0.206-0.517,0.516-0.517H431.521z
			 M420.196,774.488h11.376c0.309,0,0.515,0.206,0.515,0.515v3.087c0,0.312-0.206,0.519-0.515,0.519h-11.376
			c-0.31,0-0.516-0.206-0.516-0.519v-3.087C419.683,774.745,419.889,774.488,420.196,774.488z M420.196,780.716h11.376
			c0.309,0,0.515,0.206,0.515,0.517v3.089c0,0.309-0.206,0.515-0.515,0.515h-11.376c-0.31,0-0.516-0.206-0.516-0.515v-3.089
			C419.683,780.922,419.889,780.716,420.196,780.716z M420.196,762.135h11.376c0.309,0,0.515,0.206,0.515,0.517v3.089
			c0,0.309-0.206,0.515-0.515,0.515h-11.376c-0.31,0-0.516-0.206-0.516-0.515v-3.089
			C419.683,762.341,419.889,762.135,420.196,762.135z M420.196,768.312h11.376c0.309,0,0.515,0.204,0.515,0.515v3.089
			c0,0.309-0.206,0.515-0.515,0.515h-11.376c-0.31,0-0.516-0.206-0.516-0.515v-3.089
			C419.683,768.568,419.889,768.312,420.196,768.312z"/>
		<path id="b00Bat3" d="M419.631,778.143v-3.089c0-0.309,0.206-0.515,0.517-0.515h11.376c0.309,0,0.515,0.206,0.515,0.515v3.089
			c0,0.311-0.206,0.517-0.515,0.517h-11.376C419.837,778.657,419.631,778.4,419.631,778.143z M432.036,784.319v-3.089
			c0-0.311-0.206-0.517-0.515-0.517h-11.378c-0.309,0-0.515,0.206-0.515,0.517v3.089c0,0.309,0.206,0.515,0.515,0.515h11.378
			C431.778,784.834,432.036,784.577,432.036,784.319z M432.036,771.915v-3.089c0-0.311-0.206-0.517-0.515-0.517h-11.378
			c-0.309,0-0.515,0.206-0.515,0.517v3.089c0,0.309,0.206,0.515,0.515,0.515h11.378C431.778,772.43,432.036,772.224,432.036,771.915
			z M419.631,756.988v1.026h-2.059c-1.133,0-2.061,0.929-2.061,2.062v26.814c0,1.135,0.928,2.062,2.061,2.062h16.521
			c1.133,0,2.061-0.927,2.061-2.062v-26.766c0-1.133-0.928-2.059-2.061-2.059h-2.059v-1.029c0-0.566-0.464-1.03-1.03-1.03H420.66
			C420.095,755.958,419.631,756.421,419.631,756.988z M433.064,760.076c0.565,0,1.028,0.463,1.028,1.026v24.76
			c0,0.565-0.463,1.028-1.028,1.028H418.6c-0.563,0-1.026-0.463-1.026-1.028v-24.76c0-0.563,0.463-1.026,1.026-1.026H433.064z"/>
		<path id="b00Bat2" fill-opacity="0" d="M419.631,778.143v-3.089c0-0.309,0.206-0.515,0.517-0.515h11.376
			c0.309,0,0.515,0.206,0.515,0.515v3.089c0,0.311-0.206,0.517-0.515,0.517h-11.376C419.837,778.657,419.631,778.4,419.631,778.143z
			 M432.036,784.319v-3.089c0-0.311-0.206-0.517-0.515-0.517h-11.378c-0.309,0-0.515,0.206-0.515,0.517v3.089
			c0,0.309,0.206,0.515,0.515,0.515h11.378C431.778,784.834,432.036,784.577,432.036,784.319z M419.631,756.988v1.026h-2.059
			c-1.133,0-2.061,0.929-2.061,2.062v26.814c0,1.135,0.928,2.062,2.061,2.062h16.521c1.133,0,2.061-0.927,2.061-2.062v-26.766
			c0-1.133-0.928-2.059-2.061-2.059h-2.059v-1.029c0-0.566-0.464-1.03-1.03-1.03H420.66
			C420.095,755.958,419.631,756.421,419.631,756.988z M433.064,760.076c0.565,0,1.028,0.463,1.028,1.026v24.76
			c0,0.565-0.463,1.028-1.028,1.028H418.6c-0.563,0-1.026-0.463-1.026-1.028v-24.76c0-0.563,0.463-1.026,1.026-1.026H433.064z"/>
		<path id="b00Bat1" fill-opacity="0" d="M432.036,784.319v-3.089c0-0.311-0.206-0.517-0.515-0.517h-11.378
			c-0.309,0-0.515,0.206-0.515,0.517v3.089c0,0.309,0.206,0.515,0.515,0.515h11.378C431.83,784.834,432.036,784.577,432.036,784.319
			z M419.631,756.988v1.026h-2.059c-1.133,0-2.061,0.929-2.061,2.062v26.814c0,1.135,0.928,2.062,2.061,2.062h16.521
			c1.133,0,2.061-0.927,2.061-2.062v-26.766c0-1.133-0.928-2.059-2.061-2.059h-2.059v-1.029c0-0.566-0.464-1.03-1.03-1.03H420.66
			C420.146,755.958,419.631,756.421,419.631,756.988z M433.064,760.076c0.565,0,1.028,0.463,1.028,1.026v24.76
			c0,0.565-0.463,1.028-1.028,1.028H418.6c-0.563,0-1.026-0.463-1.026-1.028v-24.76c0-0.563,0.463-1.026,1.026-1.026H433.064z"/>
		<path id="b00Bat0" fill-opacity="0" d="M419.631,756.988v1.026h-2.059c-1.133,0-2.061,0.929-2.061,2.062v26.814
			c0,1.135,0.928,2.062,2.061,2.062h16.521c1.133,0,2.061-0.927,2.061-2.062v-26.766c0-1.133-0.928-2.059-2.061-2.059h-2.059v-1.029
			c0-0.566-0.464-1.03-1.03-1.03H420.66C420.146,755.958,419.631,756.421,419.631,756.988z M433.064,760.076
			c0.565,0,1.028,0.463,1.028,1.026v24.76c0,0.565-0.463,1.028-1.028,1.028H418.6c-0.563,0-1.026-0.463-1.026-1.028v-24.76
			c0-0.563,0.463-1.026,1.026-1.026H433.064z"/>
	</g>
	<g id="BatSens01">
		<path id="b01Bat4" fill-opacity="0" d="M462.302,756.936v1.03h-2.06c-1.132,0-2.061,0.927-2.061,2.061v26.92
			c-0.053,1.132,0.874,2.059,2.009,2.059h16.521c1.132,0,2.061-0.927,2.061-2.059v-26.817c0-1.133-0.929-2.059-2.061-2.059h-2.06
			v-1.029c0-0.566-0.464-1.03-1.028-1.03h-10.346C462.765,755.907,462.302,756.37,462.302,756.936z M475.684,760.076
			c0.565,0,1.029,0.463,1.029,1.026v24.76c0,0.565-0.464,1.028-1.029,1.028h-14.463c-0.565,0-1.028-0.463-1.028-1.028v-24.811
			c0-0.563,0.463-1.028,1.028-1.028h14.463V760.076z M474.14,780.716c0.31,0,0.516,0.206,0.516,0.517v3.089
			c0,0.309-0.206,0.515-0.516,0.515h-11.321c-0.312,0-0.517-0.206-0.517-0.515v-3.089c0-0.311,0.204-0.517,0.517-0.517H474.14z
			 M474.14,774.488c0.31,0,0.516,0.206,0.516,0.515v3.087c0,0.312-0.206,0.519-0.516,0.519h-11.321
			c-0.312,0-0.517-0.206-0.517-0.519v-3.087c0-0.309,0.204-0.515,0.517-0.515H474.14z M474.14,768.312
			c0.31,0,0.516,0.204,0.516,0.515v3.089c0,0.309-0.206,0.515-0.516,0.515h-11.321c-0.312,0-0.517-0.206-0.517-0.515v-3.089
			c0-0.311,0.204-0.515,0.517-0.515H474.14z M474.14,762.135c0.31,0,0.516,0.206,0.516,0.517v3.089c0,0.309-0.206,0.515-0.516,0.515
			h-11.321c-0.312,0-0.517-0.206-0.517-0.515v-3.089c0-0.311,0.204-0.517,0.517-0.517H474.14z M462.816,774.488h11.374
			c0.31,0,0.516,0.206,0.516,0.515v3.087c0,0.312-0.206,0.519-0.516,0.519h-11.374c-0.312,0-0.517-0.206-0.517-0.519v-3.087
			C462.302,774.745,462.506,774.488,462.816,774.488z M462.816,780.716h11.374c0.31,0,0.516,0.206,0.516,0.517v3.089
			c0,0.309-0.206,0.515-0.516,0.515h-11.374c-0.312,0-0.517-0.206-0.517-0.515v-3.089
			C462.302,780.922,462.506,780.716,462.816,780.716z M462.816,762.135h11.374c0.31,0,0.516,0.206,0.516,0.517v3.089
			c0,0.309-0.206,0.515-0.516,0.515h-11.374c-0.312,0-0.517-0.206-0.517-0.515v-3.089
			C462.302,762.341,462.506,762.135,462.816,762.135z M462.816,768.312h11.374c0.31,0,0.516,0.204,0.516,0.515v3.089
			c0,0.309-0.206,0.515-0.516,0.515h-11.374c-0.312,0-0.517-0.206-0.517-0.515v-3.089
			C462.302,768.568,462.506,768.312,462.816,768.312z"/>
		<path id="b01Bat3" d="M462.249,778.143v-3.089c0-0.309,0.206-0.515,0.516-0.515h11.375c0.31,0,0.516,0.206,0.516,0.515v3.089
			c0,0.311-0.206,0.517-0.516,0.517h-11.375C462.455,778.657,462.249,778.4,462.249,778.143z M474.653,784.319v-3.089
			c0-0.311-0.206-0.517-0.516-0.517h-11.375c-0.31,0-0.516,0.206-0.516,0.517v3.089c0,0.309,0.206,0.515,0.516,0.515h11.375
			C474.396,784.834,474.653,784.577,474.653,784.319z M474.653,771.915v-3.089c0-0.311-0.206-0.517-0.516-0.517h-11.375
			c-0.31,0-0.516,0.206-0.516,0.517v3.089c0,0.309,0.206,0.515,0.516,0.515h11.375C474.396,772.43,474.653,772.224,474.653,771.915z
			 M462.249,756.988v1.026h-2.059c-1.135,0-2.062,0.929-2.062,2.062v26.814c0,1.135,0.927,2.062,2.062,2.062h16.521
			c1.132,0,2.061-0.927,2.061-2.062v-26.766c0-1.133-0.929-2.059-2.061-2.059h-2.06v-1.029c0-0.566-0.464-1.03-1.028-1.03h-10.346
			C462.712,755.958,462.249,756.421,462.249,756.988z M475.684,760.076c0.565,0,1.029,0.463,1.029,1.026v24.76
			c0,0.565-0.464,1.028-1.029,1.028h-14.463c-0.565,0-1.028-0.463-1.028-1.028v-24.76c0-0.563,0.463-1.026,1.028-1.026H475.684z"/>
		<path id="b01Bat2" fill-opacity="0" d="M462.249,778.143v-3.089c0-0.309,0.206-0.515,0.516-0.515h11.375
			c0.31,0,0.516,0.206,0.516,0.515v3.089c0,0.311-0.206,0.517-0.516,0.517h-11.375C462.455,778.657,462.249,778.4,462.249,778.143z
			 M474.653,784.319v-3.089c0-0.311-0.206-0.517-0.516-0.517h-11.375c-0.31,0-0.516,0.206-0.516,0.517v3.089
			c0,0.309,0.206,0.515,0.516,0.515h11.375C474.396,784.834,474.653,784.577,474.653,784.319z M462.249,756.988v1.026h-2.059
			c-1.135,0-2.062,0.929-2.062,2.062v26.814c0,1.135,0.927,2.062,2.062,2.062h16.521c1.132,0,2.061-0.927,2.061-2.062v-26.766
			c0-1.133-0.929-2.059-2.061-2.059h-2.06v-1.029c0-0.566-0.464-1.03-1.028-1.03h-10.346
			C462.712,755.958,462.249,756.421,462.249,756.988z M475.684,760.076c0.565,0,1.029,0.463,1.029,1.026v24.76
			c0,0.565-0.464,1.028-1.029,1.028h-14.463c-0.565,0-1.028-0.463-1.028-1.028v-24.76c0-0.563,0.463-1.026,1.028-1.026H475.684z"/>
		<path id="b01Bat1" fill-opacity="0" d="M474.653,784.319v-3.089c0-0.311-0.206-0.517-0.516-0.517h-11.375
			c-0.31,0-0.516,0.206-0.516,0.517v3.089c0,0.309,0.206,0.515,0.516,0.515h11.375C474.447,784.834,474.653,784.577,474.653,784.319
			z M462.249,756.988v1.026h-2.059c-1.135,0-2.062,0.929-2.062,2.062v26.814c0,1.135,0.927,2.062,2.062,2.062h16.521
			c1.132,0,2.061-0.927,2.061-2.062v-26.766c0-1.133-0.929-2.059-2.061-2.059h-2.06v-1.029c0-0.566-0.464-1.03-1.028-1.03h-10.346
			C462.765,755.958,462.249,756.421,462.249,756.988z M475.684,760.076c0.565,0,1.029,0.463,1.029,1.026v24.76
			c0,0.565-0.464,1.028-1.029,1.028h-14.463c-0.565,0-1.028-0.463-1.028-1.028v-24.76c0-0.563,0.463-1.026,1.028-1.026H475.684z"/>
		<path id="b01Bat0" fill-opacity="0" d="M462.249,756.988v1.026h-2.059c-1.135,0-2.062,0.929-2.062,2.062v26.814
			c0,1.135,0.927,2.062,2.062,2.062h16.521c1.132,0,2.061-0.927,2.061-2.062v-26.766c0-1.133-0.929-2.059-2.061-2.059h-2.06v-1.029
			c0-0.566-0.464-1.03-1.028-1.03h-10.346C462.765,755.958,462.249,756.421,462.249,756.988z M475.684,760.076
			c0.565,0,1.029,0.463,1.029,1.026v24.76c0,0.565-0.464,1.028-1.029,1.028h-14.463c-0.565,0-1.028-0.463-1.028-1.028v-24.76
			c0-0.563,0.463-1.026,1.028-1.026H475.684z"/>
	</g>
	<g id="BatSens02">
		<path id="b02Bat4" fill-opacity="0" d="M505.125,756.936v1.03h-2.059c-1.135,0-2.061,0.927-2.061,2.061v26.92
			c-0.052,1.132,0.875,2.059,2.008,2.059h16.522c1.132,0,2.059-0.927,2.059-2.059v-26.817c0-1.133-0.927-2.059-2.059-2.059h-2.062
			v-1.029c0-0.566-0.463-1.03-1.028-1.03h-10.348C505.589,755.907,505.125,756.37,505.125,756.936z M518.508,760.076
			c0.566,0,1.03,0.463,1.03,1.026v24.76c0,0.565-0.464,1.028-1.03,1.028h-14.463c-0.566,0-1.029-0.463-1.029-1.028v-24.811
			c0-0.563,0.463-1.028,1.029-1.028h14.463V760.076z M516.965,780.716c0.31,0,0.514,0.206,0.514,0.517v3.089
			c0,0.309-0.204,0.515-0.514,0.515H505.64c-0.309,0-0.515-0.206-0.515-0.515v-3.089c0-0.311,0.206-0.517,0.515-0.517H516.965z
			 M516.965,774.488c0.31,0,0.514,0.206,0.514,0.515v3.087c0,0.312-0.204,0.519-0.514,0.519H505.64
			c-0.309,0-0.515-0.206-0.515-0.519v-3.087c0-0.309,0.206-0.515,0.515-0.515H516.965z M516.965,768.312
			c0.31,0,0.514,0.204,0.514,0.515v3.089c0,0.309-0.204,0.515-0.514,0.515H505.64c-0.309,0-0.515-0.206-0.515-0.515v-3.089
			c0-0.311,0.206-0.515,0.515-0.515H516.965z M516.965,762.135c0.31,0,0.514,0.206,0.514,0.517v3.089
			c0,0.309-0.204,0.515-0.514,0.515H505.64c-0.309,0-0.515-0.206-0.515-0.515v-3.089c0-0.311,0.206-0.517,0.515-0.517H516.965z
			 M505.64,774.488h11.376c0.311,0,0.517,0.206,0.517,0.515v3.087c0,0.312-0.206,0.519-0.517,0.519H505.64
			c-0.309,0-0.515-0.206-0.515-0.519v-3.087C505.125,774.745,505.331,774.488,505.64,774.488z M505.64,780.716h11.376
			c0.311,0,0.517,0.206,0.517,0.517v3.089c0,0.309-0.206,0.515-0.517,0.515H505.64c-0.309,0-0.515-0.206-0.515-0.515v-3.089
			C505.125,780.922,505.331,780.716,505.64,780.716z M505.64,762.135h11.376c0.311,0,0.517,0.206,0.517,0.517v3.089
			c0,0.309-0.206,0.515-0.517,0.515H505.64c-0.309,0-0.515-0.206-0.515-0.515v-3.089
			C505.125,762.341,505.331,762.135,505.64,762.135z M505.64,768.312h11.376c0.311,0,0.517,0.204,0.517,0.515v3.089
			c0,0.309-0.206,0.515-0.517,0.515H505.64c-0.309,0-0.515-0.206-0.515-0.515v-3.089
			C505.125,768.568,505.331,768.312,505.64,768.312z"/>
		<path id="b02Bat3" d="M505.074,778.143v-3.089c0-0.309,0.206-0.515,0.515-0.515h11.376c0.31,0,0.514,0.206,0.514,0.515v3.089
			c0,0.311-0.204,0.517-0.514,0.517h-11.376C505.28,778.657,505.074,778.4,505.074,778.143z M517.479,784.319v-3.089
			c0-0.311-0.204-0.517-0.514-0.517h-11.376c-0.309,0-0.515,0.206-0.515,0.517v3.089c0,0.309,0.206,0.515,0.515,0.515h11.376
			C517.222,784.834,517.479,784.577,517.479,784.319z M517.479,771.915v-3.089c0-0.311-0.204-0.517-0.514-0.517h-11.376
			c-0.309,0-0.515,0.206-0.515,0.517v3.089c0,0.309,0.206,0.515,0.515,0.515h11.376C517.222,772.43,517.479,772.224,517.479,771.915
			z M505.074,756.988v1.026h-2.061c-1.133,0-2.06,0.929-2.06,2.062v26.814c0,1.135,0.927,2.062,2.06,2.062h16.522
			c1.132,0,2.059-0.927,2.059-2.062v-26.766c0-1.133-0.927-2.059-2.059-2.059h-2.062v-1.029c0-0.566-0.463-1.03-1.028-1.03h-10.348
			C505.537,755.958,505.074,756.421,505.074,756.988z M518.508,760.076c0.566,0,1.03,0.463,1.03,1.026v24.76
			c0,0.565-0.464,1.028-1.03,1.028h-14.463c-0.566,0-1.029-0.463-1.029-1.028v-24.76c0-0.563,0.463-1.026,1.029-1.026H518.508z"/>
		<path id="b02Bat2" fill-opacity="0" d="M505.074,778.143v-3.089c0-0.309,0.206-0.515,0.515-0.515h11.376
			c0.31,0,0.514,0.206,0.514,0.515v3.089c0,0.311-0.204,0.517-0.514,0.517h-11.376C505.28,778.657,505.074,778.4,505.074,778.143z
			 M517.479,784.319v-3.089c0-0.311-0.204-0.517-0.514-0.517h-11.376c-0.309,0-0.515,0.206-0.515,0.517v3.089
			c0,0.309,0.206,0.515,0.515,0.515h11.376C517.222,784.834,517.479,784.577,517.479,784.319z M505.074,756.988v1.026h-2.061
			c-1.133,0-2.06,0.929-2.06,2.062v26.814c0,1.135,0.927,2.062,2.06,2.062h16.522c1.132,0,2.059-0.927,2.059-2.062v-26.766
			c0-1.133-0.927-2.059-2.059-2.059h-2.062v-1.029c0-0.566-0.463-1.03-1.028-1.03h-10.348
			C505.537,755.958,505.074,756.421,505.074,756.988z M518.508,760.076c0.566,0,1.03,0.463,1.03,1.026v24.76
			c0,0.565-0.464,1.028-1.03,1.028h-14.463c-0.566,0-1.029-0.463-1.029-1.028v-24.76c0-0.563,0.463-1.026,1.029-1.026H518.508z"/>
		<path id="b02Bat1" fill-opacity="0" d="M517.479,784.319v-3.089c0-0.311-0.204-0.517-0.514-0.517h-11.376
			c-0.309,0-0.515,0.206-0.515,0.517v3.089c0,0.309,0.206,0.515,0.515,0.515h11.376
			C517.271,784.834,517.479,784.577,517.479,784.319z M505.074,756.988v1.026h-2.061c-1.133,0-2.06,0.929-2.06,2.062v26.814
			c0,1.135,0.927,2.062,2.06,2.062h16.522c1.132,0,2.059-0.927,2.059-2.062v-26.766c0-1.133-0.927-2.059-2.059-2.059h-2.062v-1.029
			c0-0.566-0.463-1.03-1.028-1.03h-10.348C505.589,755.958,505.074,756.421,505.074,756.988z M518.508,760.076
			c0.566,0,1.03,0.463,1.03,1.026v24.76c0,0.565-0.464,1.028-1.03,1.028h-14.463c-0.566,0-1.029-0.463-1.029-1.028v-24.76
			c0-0.563,0.463-1.026,1.029-1.026H518.508z"/>
		<path id="b02Bat0" fill-opacity="0" d="M505.074,756.988v1.026h-2.061c-1.133,0-2.06,0.929-2.06,2.062v26.814
			c0,1.135,0.927,2.062,2.06,2.062h16.522c1.132,0,2.059-0.927,2.059-2.062v-26.766c0-1.133-0.927-2.059-2.059-2.059h-2.062v-1.029
			c0-0.566-0.463-1.03-1.028-1.03h-10.348C505.589,755.958,505.074,756.421,505.074,756.988z M518.508,760.076
			c0.566,0,1.03,0.463,1.03,1.026v24.76c0,0.565-0.464,1.028-1.03,1.028h-14.463c-0.566,0-1.029-0.463-1.029-1.028v-24.76
			c0-0.563,0.463-1.026,1.029-1.026H518.508z"/>
	</g>
	<g id="BatSens03">
		<path id="b03Bat4" fill-opacity="0" d="M547.847,756.936v1.03h-2.059c-1.133,0-2.062,0.927-2.062,2.061v26.92
			c-0.051,1.132,0.876,2.059,2.01,2.059h16.521c1.133,0,2.062-0.927,2.062-2.059v-26.817c0-1.133-0.929-2.059-2.062-2.059H560.2
			v-1.029c0-0.566-0.463-1.03-1.03-1.03h-10.346C548.31,755.907,547.847,756.37,547.847,756.936z M561.229,760.076
			c0.567,0,1.03,0.463,1.03,1.026v24.76c0,0.565-0.463,1.028-1.03,1.028h-14.462c-0.564,0-1.028-0.463-1.028-1.028v-24.811
			c0-0.563,0.464-1.028,1.028-1.028h14.462V760.076z M559.686,780.716c0.311,0,0.517,0.206,0.517,0.517v3.089
			c0,0.309-0.206,0.515-0.517,0.515h-11.322c-0.311,0-0.517-0.206-0.517-0.515v-3.089c0-0.311,0.206-0.517,0.517-0.517H559.686z
			 M559.686,774.488c0.311,0,0.517,0.206,0.517,0.515v3.087c0,0.312-0.206,0.519-0.517,0.519h-11.322
			c-0.311,0-0.517-0.206-0.517-0.519v-3.087c0-0.309,0.206-0.515,0.517-0.515H559.686z M559.686,768.312
			c0.311,0,0.517,0.204,0.517,0.515v3.089c0,0.309-0.206,0.515-0.517,0.515h-11.322c-0.311,0-0.517-0.206-0.517-0.515v-3.089
			c0-0.311,0.206-0.515,0.517-0.515H559.686z M559.686,762.135c0.311,0,0.517,0.206,0.517,0.517v3.089
			c0,0.309-0.206,0.515-0.517,0.515h-11.322c-0.311,0-0.517-0.206-0.517-0.515v-3.089c0-0.311,0.206-0.517,0.517-0.517H559.686z
			 M548.361,774.488h11.376c0.308,0,0.514,0.206,0.514,0.515v3.087c0,0.312-0.206,0.519-0.514,0.519h-11.376
			c-0.311,0-0.517-0.206-0.517-0.519v-3.087C547.847,774.745,548.053,774.488,548.361,774.488z M548.361,780.716h11.376
			c0.308,0,0.514,0.206,0.514,0.517v3.089c0,0.309-0.206,0.515-0.514,0.515h-11.376c-0.311,0-0.517-0.206-0.517-0.515v-3.089
			C547.847,780.922,548.053,780.716,548.361,780.716z M548.361,762.135h11.376c0.308,0,0.514,0.206,0.514,0.517v3.089
			c0,0.309-0.206,0.515-0.514,0.515h-11.376c-0.311,0-0.517-0.206-0.517-0.515v-3.089
			C547.847,762.341,548.053,762.135,548.361,762.135z M548.361,768.312h11.376c0.308,0,0.514,0.204,0.514,0.515v3.089
			c0,0.309-0.206,0.515-0.514,0.515h-11.376c-0.311,0-0.517-0.206-0.517-0.515v-3.089
			C547.847,768.568,548.053,768.312,548.361,768.312z"/>
		<path id="b03Bat3" d="M547.796,778.143v-3.089c0-0.309,0.206-0.515,0.514-0.515h11.376c0.311,0,0.517,0.206,0.517,0.515v3.089
			c0,0.311-0.206,0.517-0.517,0.517H548.31C548.002,778.657,547.796,778.4,547.796,778.143z M560.2,784.319v-3.089
			c0-0.311-0.206-0.517-0.517-0.517H548.31c-0.308,0-0.514,0.206-0.514,0.517v3.089c0,0.309,0.206,0.515,0.514,0.515h11.376
			C559.943,784.834,560.2,784.577,560.2,784.319z M560.2,771.915v-3.089c0-0.311-0.206-0.517-0.517-0.517H548.31
			c-0.308,0-0.514,0.206-0.514,0.517v3.089c0,0.309,0.206,0.515,0.514,0.515h11.376C559.943,772.43,560.2,772.224,560.2,771.915z
			 M547.796,756.988v1.026h-2.06c-1.133,0-2.061,0.929-2.061,2.062v26.814c0,1.135,0.928,2.062,2.061,2.062h16.521
			c1.133,0,2.062-0.927,2.062-2.062v-26.766c0-1.133-0.929-2.059-2.062-2.059H560.2v-1.029c0-0.566-0.463-1.03-1.03-1.03h-10.346
			C548.259,755.958,547.796,756.421,547.796,756.988z M561.229,760.076c0.567,0,1.03,0.463,1.03,1.026v24.76
			c0,0.565-0.463,1.028-1.03,1.028h-14.462c-0.564,0-1.028-0.463-1.028-1.028v-24.76c0-0.563,0.464-1.026,1.028-1.026H561.229z"/>
		<path id="b03Bat2" fill-opacity="0" d="M547.796,778.143v-3.089c0-0.309,0.206-0.515,0.514-0.515h11.376
			c0.311,0,0.517,0.206,0.517,0.515v3.089c0,0.311-0.206,0.517-0.517,0.517H548.31C548.002,778.657,547.796,778.4,547.796,778.143z
			 M560.2,784.319v-3.089c0-0.311-0.206-0.517-0.517-0.517H548.31c-0.308,0-0.514,0.206-0.514,0.517v3.089
			c0,0.309,0.206,0.515,0.514,0.515h11.376C559.943,784.834,560.2,784.577,560.2,784.319z M547.796,756.988v1.026h-2.06
			c-1.133,0-2.061,0.929-2.061,2.062v26.814c0,1.135,0.928,2.062,2.061,2.062h16.521c1.133,0,2.062-0.927,2.062-2.062v-26.766
			c0-1.133-0.929-2.059-2.062-2.059H560.2v-1.029c0-0.566-0.463-1.03-1.03-1.03h-10.346
			C548.259,755.958,547.796,756.421,547.796,756.988z M561.229,760.076c0.567,0,1.03,0.463,1.03,1.026v24.76
			c0,0.565-0.463,1.028-1.03,1.028h-14.462c-0.564,0-1.028-0.463-1.028-1.028v-24.76c0-0.563,0.464-1.026,1.028-1.026H561.229z"/>
		<path id="b03Bat1" fill-opacity="0" d="M560.2,784.319v-3.089c0-0.311-0.206-0.517-0.517-0.517H548.31
			c-0.308,0-0.514,0.206-0.514,0.517v3.089c0,0.309,0.206,0.515,0.514,0.515h11.376C559.994,784.834,560.2,784.577,560.2,784.319z
			 M547.796,756.988v1.026h-2.06c-1.133,0-2.061,0.929-2.061,2.062v26.814c0,1.135,0.928,2.062,2.061,2.062h16.521
			c1.133,0,2.062-0.927,2.062-2.062v-26.766c0-1.133-0.929-2.059-2.062-2.059H560.2v-1.029c0-0.566-0.463-1.03-1.03-1.03h-10.346
			C548.31,755.958,547.796,756.421,547.796,756.988z M561.229,760.076c0.567,0,1.03,0.463,1.03,1.026v24.76
			c0,0.565-0.463,1.028-1.03,1.028h-14.462c-0.564,0-1.028-0.463-1.028-1.028v-24.76c0-0.563,0.464-1.026,1.028-1.026H561.229z"/>
		<path id="b03Bat0" d="M547.796,756.988v1.026h-2.06c-1.133,0-2.061,0.929-2.061,2.062v26.814c0,1.135,0.928,2.062,2.061,2.062
			h16.521c1.133,0,2.062-0.927,2.062-2.062v-26.766c0-1.133-0.929-2.059-2.062-2.059H560.2v-1.029c0-0.566-0.463-1.03-1.03-1.03
			h-10.346C548.31,755.958,547.796,756.421,547.796,756.988z M561.229,760.076c0.567,0,1.03,0.463,1.03,1.026v24.76
			c0,0.565-0.463,1.028-1.03,1.028h-14.462c-0.564,0-1.028-0.463-1.028-1.028v-24.76c0-0.563,0.464-1.026,1.028-1.026H561.229z"/>
	</g>
	<g id="BatSens04">
		<path id="b04Bat4" fill-opacity="0" d="M589.898,756.936v1.03h-2.061c-1.133,0-2.059,0.927-2.059,2.061v26.92
			c-0.054,1.132,0.875,2.059,2.008,2.059h16.521c1.134,0,2.061-0.927,2.061-2.059v-26.817c0-1.133-0.927-2.059-2.061-2.059h-2.06
			v-1.029c0-0.566-0.463-1.03-1.029-1.03h-10.345C590.362,755.907,589.898,756.37,589.898,756.936z M603.281,760.076
			c0.564,0,1.028,0.463,1.028,1.026v24.76c0,0.565-0.464,1.028-1.028,1.028h-14.462c-0.567,0-1.03-0.463-1.03-1.028v-24.811
			c0-0.563,0.463-1.028,1.03-1.028h14.462V760.076z M601.738,780.716c0.309,0,0.514,0.206,0.514,0.517v3.089
			c0,0.309-0.205,0.515-0.514,0.515h-11.325c-0.311,0-0.515-0.206-0.515-0.515v-3.089c0-0.311,0.204-0.517,0.515-0.517H601.738z
			 M601.738,774.488c0.309,0,0.514,0.206,0.514,0.515v3.087c0,0.312-0.205,0.519-0.514,0.519h-11.325
			c-0.311,0-0.515-0.206-0.515-0.519v-3.087c0-0.309,0.204-0.515,0.515-0.515H601.738z M601.738,768.312
			c0.309,0,0.514,0.204,0.514,0.515v3.089c0,0.309-0.205,0.515-0.514,0.515h-11.325c-0.311,0-0.515-0.206-0.515-0.515v-3.089
			c0-0.311,0.204-0.515,0.515-0.515H601.738z M601.738,762.135c0.309,0,0.514,0.206,0.514,0.517v3.089
			c0,0.309-0.205,0.515-0.514,0.515h-11.325c-0.311,0-0.515-0.206-0.515-0.515v-3.089c0-0.311,0.204-0.517,0.515-0.517H601.738z
			 M590.413,774.488h11.376c0.309,0,0.515,0.206,0.515,0.515v3.087c0,0.312-0.206,0.519-0.515,0.519h-11.376
			c-0.31,0-0.515-0.206-0.515-0.519v-3.087C589.898,774.745,590.104,774.488,590.413,774.488z M590.413,780.716h11.376
			c0.309,0,0.515,0.206,0.515,0.517v3.089c0,0.309-0.206,0.515-0.515,0.515h-11.376c-0.31,0-0.515-0.206-0.515-0.515v-3.089
			C589.898,780.922,590.104,780.716,590.413,780.716z M590.413,762.135h11.376c0.309,0,0.515,0.206,0.515,0.517v3.089
			c0,0.309-0.206,0.515-0.515,0.515h-11.376c-0.31,0-0.515-0.206-0.515-0.515v-3.089
			C589.898,762.341,590.104,762.135,590.413,762.135z M590.413,768.312h11.376c0.309,0,0.515,0.204,0.515,0.515v3.089
			c0,0.309-0.206,0.515-0.515,0.515h-11.376c-0.31,0-0.515-0.206-0.515-0.515v-3.089
			C589.898,768.568,590.104,768.312,590.413,768.312z"/>
		<path id="b04Bat3" d="M589.848,778.143v-3.089c0-0.309,0.206-0.515,0.517-0.515h11.376c0.309,0,0.514,0.206,0.514,0.515v3.089
			c0,0.311-0.205,0.517-0.514,0.517h-11.376C590.054,778.657,589.848,778.4,589.848,778.143z M602.252,784.319v-3.089
			c0-0.311-0.205-0.517-0.514-0.517h-11.376c-0.311,0-0.517,0.206-0.517,0.517v3.089c0,0.309,0.206,0.515,0.517,0.515h11.376
			C601.995,784.834,602.252,784.577,602.252,784.319z M602.252,771.915v-3.089c0-0.311-0.205-0.517-0.514-0.517h-11.376
			c-0.311,0-0.517,0.206-0.517,0.517v3.089c0,0.309,0.206,0.515,0.517,0.515h11.376C601.995,772.43,602.252,772.224,602.252,771.915
			z M589.848,756.988v1.026h-2.059c-1.133,0-2.061,0.929-2.061,2.062v26.814c0,1.135,0.928,2.062,2.061,2.062h16.521
			c1.134,0,2.061-0.927,2.061-2.062v-26.766c0-1.133-0.927-2.059-2.061-2.059h-2.06v-1.029c0-0.566-0.463-1.03-1.029-1.03h-10.345
			C590.311,755.958,589.848,756.421,589.848,756.988z M603.281,760.076c0.564,0,1.028,0.463,1.028,1.026v24.76
			c0,0.565-0.464,1.028-1.028,1.028h-14.462c-0.567,0-1.03-0.463-1.03-1.028v-24.76c0-0.563,0.463-1.026,1.03-1.026H603.281z"/>
		<path id="b04Bat2" fill-opacity="0" d="M589.848,778.143v-3.089c0-0.309,0.206-0.515,0.517-0.515h11.376
			c0.309,0,0.514,0.206,0.514,0.515v3.089c0,0.311-0.205,0.517-0.514,0.517h-11.376C590.054,778.657,589.848,778.4,589.848,778.143z
			 M602.252,784.319v-3.089c0-0.311-0.205-0.517-0.514-0.517h-11.376c-0.311,0-0.517,0.206-0.517,0.517v3.089
			c0,0.309,0.206,0.515,0.517,0.515h11.376C601.995,784.834,602.252,784.577,602.252,784.319z M589.848,756.988v1.026h-2.059
			c-1.133,0-2.061,0.929-2.061,2.062v26.814c0,1.135,0.928,2.062,2.061,2.062h16.521c1.134,0,2.061-0.927,2.061-2.062v-26.766
			c0-1.133-0.927-2.059-2.061-2.059h-2.06v-1.029c0-0.566-0.463-1.03-1.029-1.03h-10.345
			C590.311,755.958,589.848,756.421,589.848,756.988z M603.281,760.076c0.564,0,1.028,0.463,1.028,1.026v24.76
			c0,0.565-0.464,1.028-1.028,1.028h-14.462c-0.567,0-1.03-0.463-1.03-1.028v-24.76c0-0.563,0.463-1.026,1.03-1.026H603.281z"/>
		<path id="b04Bat1" fill-opacity="0" d="M602.252,784.319v-3.089c0-0.311-0.205-0.517-0.514-0.517h-11.376
			c-0.311,0-0.517,0.206-0.517,0.517v3.089c0,0.309,0.206,0.515,0.517,0.515h11.376
			C602.047,784.834,602.252,784.577,602.252,784.319z M589.848,756.988v1.026h-2.059c-1.133,0-2.061,0.929-2.061,2.062v26.814
			c0,1.135,0.928,2.062,2.061,2.062h16.521c1.134,0,2.061-0.927,2.061-2.062v-26.766c0-1.133-0.927-2.059-2.061-2.059h-2.06v-1.029
			c0-0.566-0.463-1.03-1.029-1.03h-10.345C590.362,755.958,589.848,756.421,589.848,756.988z M603.281,760.076
			c0.564,0,1.028,0.463,1.028,1.026v24.76c0,0.565-0.464,1.028-1.028,1.028h-14.462c-0.567,0-1.03-0.463-1.03-1.028v-24.76
			c0-0.563,0.463-1.026,1.03-1.026H603.281z"/>
		<path id="b04Bat0" fill-opacity="0" d="M589.848,756.988v1.026h-2.059c-1.133,0-2.061,0.929-2.061,2.062v26.814
			c0,1.135,0.928,2.062,2.061,2.062h16.521c1.134,0,2.061-0.927,2.061-2.062v-26.766c0-1.133-0.927-2.059-2.061-2.059h-2.06v-1.029
			c0-0.566-0.463-1.03-1.029-1.03h-10.345C590.362,755.958,589.848,756.421,589.848,756.988z M603.281,760.076
			c0.564,0,1.028,0.463,1.028,1.026v24.76c0,0.565-0.464,1.028-1.028,1.028h-14.462c-0.567,0-1.03-0.463-1.03-1.028v-24.76
			c0-0.563,0.463-1.026,1.03-1.026H603.281z"/>
	</g>
</g>
<g id="wind_x5F_display">
	<g id="Windmill_x5F_Gfx">
		<circle cx="368.838" cy="729.721" r="3.947"/>
		<path d="M375.525,725.773c10.746-19.299,12.5-26.974,11.514-27.634c-0.988-0.547-6.801,4.826-18.09,23.688
			C371.686,721.938,374.211,723.472,375.525,725.773z"/>
		<path d="M361.051,729.723c0-1.425,0.332-2.741,0.988-3.838c-22.039,0.438-29.607,2.63-29.607,3.838
			c0,1.205,7.568,3.397,29.607,3.836C361.383,732.354,361.051,731.036,361.051,729.723z"/>
		<path d="M375.525,733.559c-1.314,2.305-3.842,3.84-6.576,3.84c11.4,18.859,17.102,24.341,18.09,23.685
			C388.025,760.642,386.16,752.856,375.525,733.559z"/>
		<path d="M364.891,738.383v1.646V792h7.783v-41.227C370.48,747.484,367.85,743.426,364.891,738.383z"/>
	</g>
	<path id="wdno" fill-opacity="0" d="M213.687,474.684l-16.995-16.992c0,0,0,0,0-0.109c-0.657-0.659-1.315-0.987-2.192-1.208
		c0,0,0,0-0.11,0c-0.329-0.107-0.548-0.107-0.876-0.107l0,0l0,0c-0.329,0-0.549,0-0.876,0.107c0,0,0,0-0.111,0
		c-0.767,0.221-1.535,0.549-2.193,1.208c0,0,0,0,0,0.109l-16.995,16.992c-1.755,1.758-1.755,4.496,0,6.25
		c1.754,1.759,4.496,1.759,6.25,0l9.54-9.54v29.937c0,2.413,1.973,4.386,4.386,4.386c2.412,0,4.385-1.973,4.385-4.386v-29.937
		l9.539,9.54c1.754,1.759,4.497,1.759,6.25,0C215.442,479.18,215.332,476.439,213.687,474.684z"/>
	<path id="wdso" fill-opacity="0" d="M173.338,764.808l16.995,16.995c0,0,0,0,0,0.11c0.659,0.657,1.315,0.986,2.193,1.205
		c0,0,0,0,0.111,0c0.327,0.109,0.547,0.109,0.876,0.109l0,0l0,0c0.329,0,0.548,0,0.876-0.109c0,0,0,0,0.11,0
		c0.767-0.219,1.535-0.548,2.192-1.205c0,0,0,0,0-0.11l16.995-16.995c1.755-1.754,1.755-4.495,0-6.248
		c-1.753-1.757-4.495-1.755-6.25,0l-9.539,9.536v-29.933c0-2.412-1.974-4.386-4.385-4.386c-2.413,0-4.386,1.974-4.386,4.386v29.933
		l-9.54-9.536c-1.753-1.755-4.495-1.755-6.25,0C171.693,760.312,171.693,763.054,173.338,764.808z"/>
	<path id="wdse" fill-opacity="0" d="M280.351,733.777h24.016c0,0,0,0,0.107,0c0.879,0,1.646-0.221,2.303-0.657c0,0,0,0,0.105,0
		c0.223-0.11,0.441-0.329,0.66-0.55l0,0l0,0c0.219-0.22,0.439-0.438,0.547-0.655c0,0,0,0,0-0.11
		c0.441-0.658,0.658-1.533,0.658-2.304c0,0,0,0,0-0.108v-24.12c0-2.412-1.973-4.388-4.383-4.388c-2.415,0-4.39,1.976-4.39,4.388
		v13.484l-21.159-21.162c-1.756-1.753-4.496-1.753-6.251,0c-1.755,1.754-1.755,4.497,0,6.25l21.161,21.162H280.24
		c-2.411,0-4.384,1.975-4.384,4.386C275.966,731.805,277.94,733.777,280.351,733.777z"/>
	<path id="wdnw" fill-opacity="0" d="M106.672,504.399H82.661c0,0,0,0-0.11,0c-0.876,0-1.644,0.218-2.303,0.655c0,0,0,0-0.11,0
		c-0.22,0.11-0.439,0.328-0.658,0.548l0,0l0,0c-0.219,0.223-0.438,0.439-0.548,0.657c0,0,0,0,0,0.111
		c-0.439,0.657-0.659,1.533-0.659,2.302c0,0,0,0,0,0.11v24.01c0,2.415,1.974,4.388,4.387,4.388c2.412,0,4.385-1.973,4.385-4.388
		V519.31l21.162,21.159c1.754,1.756,4.496,1.756,6.25,0c1.755-1.754,1.755-4.494,0-6.247L93.296,513.06h13.485
		c2.413,0,4.387-1.972,4.387-4.386C111.058,506.373,109.084,504.399,106.672,504.399z"/>
	<path id="wdsw" fill-opacity="0" d="M78.056,706.804v24.017c0,0,0,0,0,0.107c0,0.877,0.218,1.645,0.657,2.305c0,0,0,0,0,0.105
		c0.11,0.221,0.33,0.439,0.549,0.658l0,0l0,0c0.219,0.221,0.438,0.439,0.657,0.549c0,0,0,0,0.11,0
		c0.659,0.439,1.535,0.659,2.302,0.659c0,0,0,0,0.11,0h24.012c2.413,0,4.387-1.974,4.387-4.386c0-2.413-1.974-4.389-4.387-4.389
		H92.966l21.162-21.16c1.754-1.757,1.754-4.497,0-6.25c-1.754-1.758-4.495-1.758-6.25,0l-21.162,21.16v-13.484
		c0-2.412-1.974-4.387-4.386-4.387C80.029,702.419,78.056,704.393,78.056,706.804z"/>
	<path id="wdea" fill-opacity="0" d="M338.574,639.921l16.996-16.996c0,0,0,0,0.105,0c0.658-0.658,0.986-1.313,1.207-2.189
		c0,0,0,0,0-0.109c0.111-0.328,0.111-0.55,0.111-0.877l0,0l0,0c0-0.33,0-0.55-0.111-0.878c0,0,0,0,0-0.111
		c-0.221-0.764-0.549-1.531-1.207-2.19c0,0,0,0-0.105,0l-16.996-16.993c-1.754-1.757-4.494-1.757-6.25,0
		c-1.752,1.755-1.752,4.493,0,6.249l9.539,9.538H311.93c-2.416,0-4.387,1.975-4.387,4.388c0,2.412,1.971,4.386,4.387,4.386h29.934
		l-9.539,9.538c-1.752,1.755-1.752,4.497,0,6.25C334.08,641.565,336.82,641.565,338.574,639.921z"/>
	<path id="wdwe" fill-opacity="0" d="M48.451,599.572l-16.995,16.993c0,0,0,0-0.11,0c-0.658,0.658-0.987,1.316-1.207,2.19
		c0,0,0,0,0,0.111c-0.109,0.328-0.109,0.548-0.109,0.878l0,0l0,0c0,0.327,0,0.547,0.109,0.877c0,0,0,0,0,0.109
		c0.22,0.767,0.549,1.531,1.207,2.189c0,0,0,0,0.11,0l16.995,16.996c1.755,1.755,4.496,1.755,6.25,0c1.754-1.753,1.754-4.495,0-6.25
		l-9.539-9.538h29.934c2.412,0,4.385-1.974,4.385-4.386c0-2.413-1.974-4.388-4.385-4.388H45.162l9.539-9.538
		c1.754-1.758,1.754-4.497,0-6.249C52.946,597.927,50.206,597.927,48.451,599.572z"/>
	<path id="wdne" fill-opacity="0" d="M308.861,532.907v-24.017c0,0,0,0,0-0.105c0-0.879-0.223-1.647-0.66-2.305c0,0,0,0,0-0.107
		c-0.109-0.22-0.328-0.439-0.545-0.659l0,0l0,0c-0.225-0.219-0.441-0.438-0.658-0.547c0,0,0,0-0.113,0
		c-0.658-0.438-1.532-0.66-2.299-0.66c0,0,0,0-0.111,0h-24.012c-2.412,0-4.387,1.976-4.387,4.386c0,2.413,1.975,4.391,4.387,4.391
		h13.486l-21.163,21.159c-1.753,1.756-1.753,4.493,0,6.25c1.756,1.756,4.496,1.756,6.249,0l21.164-21.161v13.484
		c0,2.411,1.973,4.387,4.387,4.387C306.885,537.293,308.861,535.319,308.861,532.907z"/>
	<text transform="matrix(1 0 0 1 188.6909 611.8887)" font-family="'ArialMT'" font-size="85.524">WSP</text>
	<text transform="matrix(1 0 0 1 188.6909 688.6562)" font-family="'ArialMT'" font-size="85.524">WGUS</text>
	<text transform="matrix(1 0 0 1 149.0122 541.8838)" font-family="'ArialMT'" font-size="19.7363">Wind (mph)</text>
	<text transform="matrix(1 0 0 1 150.314 707.8525)" font-family="'ArialMT'" font-size="19.7363">Gust (mph)</text>
	<text transform="matrix(1 0 0 1 34.0073 625.5752)" font-family="'ArialMT'" font-size="15.3505">W</text>
	<text transform="matrix(1 0 0 1 188.6909 779.124)" font-family="'ArialMT'" font-size="15.3505">S</text>
	<text transform="matrix(1 0 0 1 187.8911 473.1475)" font-family="'ArialMT'" font-size="15.3505">N</text>
	<text transform="matrix(1 0 0 1 342.1934 625.6182)" font-family="'ArialMT'" font-size="15.3505">E</text>
	<line fill="none" stroke="#000000" stroke-width="2" stroke-miterlimit="10" x1="101.958" y1="619.747" x2="290.11" y2="619.747"/>
	
		<circle id="Wind_x5F_Circle" fill="none" stroke="#000000" stroke-width="3" stroke-miterlimit="10" cx="193.513" cy="619.745" r="163.373"/>
	<text transform="matrix(1 0 0 1 6.2637 782.0234)" font-family="'ArialMT'" font-size="32">WDIRECT</text>
</g>
<g id="temp_x5F_display">
	<path id="ple" fill-opacity="0" d="M429.255,732.997l15.345-15.345c0,0,0,0,0.102,0c0.594-0.596,0.891-1.188,1.089-1.979
		c0,0,0,0,0-0.1c0.099-0.297,0.099-0.495,0.099-0.792l0,0l0,0c0-0.297,0-0.495-0.099-0.792c0,0,0,0,0-0.101
		c-0.198-0.691-0.495-1.386-1.089-1.979c0,0,0,0-0.102,0l-15.345-15.345c-1.584-1.584-4.059-1.584-5.643,0s-1.584,4.059,0,5.644
		l8.61,8.612h-27.024c-2.181,0-3.96,1.782-3.96,3.96c0,2.179,1.779,3.96,3.96,3.96h27.024l-8.61,8.613
		c-1.584,1.584-1.584,4.059,0,5.644C425.196,734.581,427.671,734.581,429.255,732.997z"/>
	<path id="pup" fill-opacity="0" d="M441.828,709.139l-15.345-15.345c0,0,0,0,0-0.1c-0.597-0.596-1.188-0.893-1.98-1.089
		c0,0,0,0-0.099,0c-0.297-0.101-0.495-0.101-0.792-0.101l0,0l0,0c-0.297,0-0.495,0-0.792,0.101c0,0,0,0-0.102,0
		c-0.69,0.196-1.386,0.493-1.979,1.089c0,0,0,0,0,0.1l-15.346,15.345c-1.585,1.584-1.585,4.061,0,5.645
		c1.584,1.584,4.06,1.584,5.644,0l8.613-8.612v27.026c0,2.178,1.779,3.96,3.96,3.96c2.178,0,3.96-1.782,3.96-3.96V706.17
		l8.611,8.612c1.584,1.584,4.061,1.584,5.645,0S443.412,710.723,441.828,709.139z"/>
	<path id="pdn" fill-opacity="0" d="M405.396,720.523l15.345,15.345c0,0,0,0,0,0.1c0.594,0.594,1.188,0.893,1.979,1.089
		c0,0,0,0,0.102,0c0.297,0.101,0.495,0.101,0.792,0.101l0,0l0,0c0.297,0,0.495,0,0.792-0.101c0,0,0,0,0.099,0
		c0.693-0.196,1.386-0.495,1.98-1.089c0,0,0,0,0-0.1l15.345-15.345c1.584-1.584,1.584-4.061,0-5.645s-4.062-1.584-5.646,0
		l-8.61,8.612v-27.026c0-2.179-1.782-3.96-3.96-3.96c-2.181,0-3.96,1.781-3.96,3.96v27.026l-8.613-8.612
		c-1.584-1.584-4.061-1.584-5.645,0S403.812,718.939,405.396,720.523z"/>
	<text transform="matrix(1 0 0 1 16.9199 275.9111)" font-family="'ArialMT'" font-size="17.82">TMP1LABEL (F)</text>
	<text transform="matrix(1 0 0 1 401.04 341.9238)" font-family="'ArialMT'" font-size="17.82">TMP4LABEL (F)</text>
	<text transform="matrix(1 0 0 1 401.04 386.5498)" font-family="'ArialMT'" font-size="55">TMP4TMP</text>
	<text transform="matrix(1 0 0 1 504.376 643.3789)" font-family="'ArialMT'" font-size="14">Dew Point (F)</text>
	<text transform="matrix(1 0 0 1 502.376 673.9854)" font-family="'ArialMT'" font-size="33">DWPNT</text>
	<text transform="matrix(1 0 0 1 396.04 643.3789)" font-family="'ArialMT'" font-size="14">Rel Hum (%)</text>
	<text transform="matrix(1 0 0 1 395.1992 673.9854)" font-family="'ArialMT'" font-size="33">RELHUM</text>
	<text transform="matrix(1 0 0 1 456 701.6641)" font-family="'ArialMT'" font-size="17.82">Pressure (hPa)</text>
	<text transform="matrix(1 0 0 1 452 738.8857)" font-family="'ArialMT'" font-size="44">PRESS</text>
	<text transform="matrix(1 0 0 1 401.2383 116.4346)" font-family="'ArialMT'" font-size="48">FORHI</text>
	<text transform="matrix(1 0 0 1 511.376 116.4346)" font-family="'ArialMT'" font-size="48">FORLO</text>
	<text transform="matrix(1 0 0 1 16.9199 79.6914)" font-family="'ArialMT'" font-size="17.82">TMP0LABEL (F)</text>
	<text transform="matrix(1 0 0 1 16.9199 208.3916)" font-family="'ArialMT'" font-size="17.82">TMP0TIME</text>
	<text transform="matrix(1 0 0 1 16.9199 234.1318)" font-family="'ArialMT'" font-size="23.76">H:</text>
	<text transform="matrix(1 0 0 1 46.6201 234.1318)" font-family="'ArialMT'" font-size="23.76">TMP0HI</text>
	<text transform="matrix(1 0 0 1 205.02 234.1318)" font-family="'ArialMT'" font-size="23.76">L:</text>
	<text transform="matrix(1 0 0 1 234.7202 234.1318)" font-family="'ArialMT'" font-size="23.76">TMP0LO</text>
	<text transform="matrix(1 0 0 1 405 401.2129)" font-family="'ArialMT'" font-size="13.86">TMP4TIME</text>
	<text transform="matrix(1 0 0 1 405 415.0732)" font-family="'ArialMT'" font-size="13.86">H:</text>
	<text transform="matrix(1 0 0 1 419.8496 415.0732)" font-family="'ArialMT'" font-size="13.86">TMP4HI</text>
	<text transform="matrix(1 0 0 1 507.96 415.0732)" font-family="'ArialMT'" font-size="13.86">L:</text>
	<text transform="matrix(1 0 0 1 520.8301 415.0732)" font-family="'ArialMT'" font-size="13.86">TMP4LO</text>
	<text transform="matrix(1 0 0 1 401.04 442.292)" font-family="'ArialMT'" font-size="17.82">TMP5LABEL (F)</text>
	<text transform="matrix(1 0 0 1 401.04 487.918)" font-family="'ArialMT'" font-size="55">TMP5TMP</text>
	<text transform="matrix(1 0 0 1 405 502.5811)" font-family="'ArialMT'" font-size="13.86">TMP5TIME</text>
	<text transform="matrix(1 0 0 1 405 516.4414)" font-family="'ArialMT'" font-size="13.86">H:</text>
	<text transform="matrix(1 0 0 1 419.8496 516.4414)" font-family="'ArialMT'" font-size="13.86">TMP5HI</text>
	<text transform="matrix(1 0 0 1 507.96 516.4414)" font-family="'ArialMT'" font-size="13.86">L:</text>
	<text transform="matrix(1 0 0 1 520.8301 516.4414)" font-family="'ArialMT'" font-size="13.86">TMP5LO</text>
	<text transform="matrix(1 0 0 1 401.04 543.4717)" font-family="'ArialMT'" font-size="17.82">TMP6LABEL (F)</text>
	<text transform="matrix(1 0 0 1 401.04 589.0977)" font-family="'ArialMT'" font-size="55">TMP6TMP</text>
	<text transform="matrix(1 0 0 1 405 603.7607)" font-family="'ArialMT'" font-size="13.86">TMP6TIME</text>
	<text transform="matrix(1 0 0 1 405 617.6211)" font-family="'ArialMT'" font-size="13.86">H:</text>
	<text transform="matrix(1 0 0 1 419.8496 617.6211)" font-family="'ArialMT'" font-size="13.86">TMP6HI</text>
	<text transform="matrix(1 0 0 1 507.96 617.6211)" font-family="'ArialMT'" font-size="13.86">L:</text>
	<text transform="matrix(1 0 0 1 520.8301 617.6211)" font-family="'ArialMT'" font-size="13.86">TMP6LO</text>
	<text transform="matrix(1 0 0 1 401.04 241.9639)" font-family="'ArialMT'" font-size="17.82">TMP3LABEL (F)</text>
	<text transform="matrix(1 0 0 1 401.04 286.5898)" font-family="'ArialMT'" font-size="55">TMP3TMP</text>
	<text transform="matrix(1 0 0 1 405 301.2529)" font-family="'ArialMT'" font-size="13.86">TMP3TIME</text>
	<text transform="matrix(1 0 0 1 405 315.1133)" font-family="'ArialMT'" font-size="13.86">H:</text>
	<text transform="matrix(1 0 0 1 419.8496 315.1133)" font-family="'ArialMT'" font-size="13.86">TMP3HI</text>
	<text transform="matrix(1 0 0 1 507.96 315.1133)" font-family="'ArialMT'" font-size="13.86">L:</text>
	<text transform="matrix(1 0 0 1 520.8301 315.1133)" font-family="'ArialMT'" font-size="13.86">TMP3LO</text>
	<text transform="matrix(1 0 0 1 401.04 142.043)" font-family="'ArialMT'" font-size="17.82">TMP2LABEL (F)</text>
	<text transform="matrix(1 0 0 1 401.2383 72.6914)" font-family="'ArialMT'" font-size="17.82">Fcst H:</text>
	<text transform="matrix(1 0 0 1 499.376 72.6914)" font-family="'ArialMT'" font-size="17.82">Fcst L:</text>
	<text transform="matrix(1 0 0 1 401.04 187.6699)" font-family="'ArialMT'" font-size="55">TMP2TMP</text>
	<text transform="matrix(1 0 0 1 405 202.333)" font-family="'ArialMT'" font-size="13.86">TMP2TIME</text>
	<text transform="matrix(1 0 0 1 405 216.1934)" font-family="'ArialMT'" font-size="13.86">H:</text>
	<text transform="matrix(1 0 0 1 419.8496 216.1934)" font-family="'ArialMT'" font-size="13.86">TMP2HI</text>
	<text transform="matrix(1 0 0 1 507.96 216.1934)" font-family="'ArialMT'" font-size="13.86">L:</text>
	<text transform="matrix(1 0 0 1 520.8301 216.1934)" font-family="'ArialMT'" font-size="13.86">TMP2LO</text>
	<text transform="matrix(1 0 0 1 16.9199 387.7812)" font-family="'ArialMT'" font-size="17.82">TMP1TIME</text>
	<text transform="matrix(1 0 0 1 16.9199 413.5215)" font-family="'ArialMT'" font-size="23.76">H:</text>
	<text transform="matrix(1 0 0 1 46.6201 413.5215)" font-family="'ArialMT'" font-size="23.76">TMP1HI</text>
	<text transform="matrix(1 0 0 1 205.02 413.5215)" font-family="'ArialMT'" font-size="23.76">L:</text>
	<text transform="matrix(1 0 0 1 234.7202 413.5215)" font-family="'ArialMT'" font-size="23.76">TMP1LO</text>
	<text transform="matrix(1 0 0 1 8.0098 186.1777)" font-family="'ArialMT'" font-size="133.65">TMP0TMP</text>
	<text transform="matrix(1 0 0 1 8.0098 366.835)" font-family="'ArialMT'" font-size="113.85">TMP1TMP</text>
	<g>
		<rect x="365.994" y="342.612" width="5.445" height="1.485"/>
		<rect x="365.994" y="356.571" width="5.445" height="1.485"/>
		<rect x="365.994" y="370.629" width="5.445" height="1.485"/>
		<path d="M378.963,383.697V335.88c0-5.643-4.554-10.296-10.296-10.296c-5.643,0-10.692,4.554-10.692,10.296v48.213
			c-3.562,3.069-5.841,7.524-5.841,12.573c0,9.107,7.425,16.434,16.437,16.434c9.105,0,16.434-7.425,16.434-16.434
			C385.2,391.419,382.725,386.766,378.963,383.697z M368.766,407.557c-6.039,0-10.89-4.852-10.89-10.891
			c0-4.059,2.277-7.524,5.544-9.405V337.86c0-2.97,2.475-5.346,5.445-5.346c2.97,0,5.442,2.376,5.442,5.346v49.401
			c3.27,1.881,5.445,5.346,5.445,9.405C379.656,402.705,374.805,407.557,368.766,407.557z"/>
		<path d="M371.637,389.439v-10.593h-5.841v10.593c-2.871,1.188-4.851,3.96-4.851,7.127c0,4.258,3.465,7.723,7.722,7.723
			s7.722-3.465,7.722-7.723C376.488,393.399,374.508,390.627,371.637,389.439z"/>
	</g>
</g>
<g id="time_x5F_display">
	<text transform="matrix(1 0 0 1 363.5225 38.8564)" font-family="'ArialMT'" font-size="32.67">SNRISE</text>
	<text transform="matrix(1 0 0 1 16.9199 39.4531)" font-family="'ArialMT'" font-size="35.64">CURTIME</text>
	<text transform="matrix(1 0 0 1 127.5522 36.4834)" font-family="'ArialMT'" font-size="29.7">CURDATE</text>
	<text transform="matrix(1 0 0 1 508.9502 38.8564)" font-family="'ArialMT'" font-size="32.67">SNSET</text>
	<path d="M496.179,29.304c-0.594,0-1.287,0-1.979,0.297c-0.693-4.752-4.854-8.316-9.604-8.316c-0.987,0-1.881,0.198-2.771,0.495
		c0-0.495,0.099-0.891,0.099-1.386c0-4.95-3.168-9.999-7.623-12.375c-0.396-0.198-0.69-0.099-0.99,0.099
		c-0.297,0.297-0.396,0.594-0.297,0.99c0,0,0.792,2.079,0.792,4.158c0,5.841-5.346,10.692-11.583,10.692
		c-2.871,0-5.841-1.584-5.841-1.683c-0.297-0.198-0.691-0.198-0.99,0.099c-0.297,0.198-0.492,0.495-0.396,0.891
		c0.792,3.168,2.97,6.138,5.841,8.118c-1.386,1.485-2.277,3.465-2.277,5.643c0,4.059,3.27,7.623,7.131,7.623h30.393
		c3.861,0,7.128-3.564,7.128-7.623C503.406,32.769,500.04,29.304,496.179,29.304z M457.569,24.75c1.287,0.495,2.97,0.99,4.752,0.99
		c7.227,0,13.362-5.742,13.362-12.474c0-0.792-0.099-1.584-0.297-2.277c2.871,2.277,4.752,5.94,4.752,9.504
		c0,0.693-0.099,1.386-0.195,2.079c-1.389,0.693-2.478,1.683-3.366,2.97c-0.792-0.396-1.686-0.594-2.673-0.594
		c-2.973,0-5.349,1.979-6.039,4.752c-0.596-0.099-1.287-0.198-1.98-0.198c-1.287,0-2.274,0.396-3.365,0.891
		C460.341,28.908,458.559,26.928,457.569,24.75z M496.179,42.669h-30.393c-2.871,0-5.346-2.673-5.346-5.841s2.475-5.841,5.346-5.841
		c0.792,0,1.584,0.198,2.274,0.495c0.3,0.099,0.597,0.099,0.795,0c0.297-0.198,0.492-0.495,0.492-0.693
		c0.102-2.277,2.079-4.158,4.455-4.158c0.894,0,1.782,0.297,2.478,0.693c0.195,0.099,0.495,0.099,0.69,0.099
		c0.297-0.099,0.495-0.198,0.495-0.495c1.386-2.475,4.158-4.059,6.933-4.059c4.257,0,7.818,3.564,8.019,7.821
		c0,0.396,0.198,0.594,0.495,0.792c0.297,0.198,0.594,0.099,0.891-0.099c0.495-0.396,1.089-0.495,2.181-0.495
		c2.868,0,5.346,2.673,5.346,5.841S499.05,42.669,496.179,42.669z"/>
	<g>
		<path d="M355.599,35.442h-8.313c0.099-0.693,0.099-1.287,0.099-1.98c0-8.712-7.026-15.741-15.741-15.741
			c-8.712,0-15.738,7.029-15.738,15.741c0,0.693,0,1.287,0.099,1.98h-8.613c-0.396,0-0.69,0.297-0.69,0.693
			c0,0.396,0.297,0.693,0.69,0.693h48.213c0.396,0,0.693-0.297,0.693-0.693C356.193,35.739,355.896,35.442,355.599,35.442z
			 M317.286,35.442c-0.102-0.693-0.102-1.287-0.102-1.98c0-7.92,6.438-14.454,14.454-14.454c7.92,0,14.454,6.435,14.454,14.454
			c0,0.693,0,1.287-0.099,1.98H317.286z"/>
		<path d="M351.045,39.303h-39.501c-0.396,0-0.693,0.297-0.693,0.693s0.3,0.693,0.693,0.693h39.501c0.396,0,0.693-0.297,0.693-0.693
			C351.639,39.6,351.342,39.303,351.045,39.303z"/>
		<path d="M344.115,43.263H318.87c-0.396,0-0.693,0.297-0.693,0.693s0.297,0.693,0.693,0.693h25.245c0.396,0,0.69-0.297,0.69-0.693
			C344.709,43.56,344.412,43.263,344.115,43.263z"/>
		<path d="M331.443,15.939c0.396,0,0.69-0.297,0.69-0.693V8.613c0-0.396-0.297-0.693-0.69-0.693c-0.396,0-0.693,0.297-0.693,0.693
			v6.732C330.849,15.642,331.146,15.939,331.443,15.939z"/>
		<path d="M356.49,30.888h-5.841c-0.396,0-0.693,0.297-0.693,0.693s0.297,0.693,0.693,0.693h5.841c0.396,0,0.69-0.297,0.69-0.693
			S356.886,30.888,356.49,30.888z"/>
		<path d="M312.93,31.581c0-0.396-0.297-0.693-0.69-0.693h-5.841c-0.396,0-0.693,0.297-0.693,0.693s0.297,0.693,0.693,0.693h5.841
			C312.633,32.175,312.93,31.878,312.93,31.581z"/>
		<path d="M344.709,21.186c0.198,0,0.297-0.099,0.495-0.198l4.752-4.752c0.297-0.297,0.297-0.693,0-0.891
			c-0.297-0.297-0.693-0.297-0.891,0l-4.752,4.752c-0.3,0.297-0.3,0.693,0,0.891C344.412,21.087,344.61,21.186,344.709,21.186z"/>
		<path d="M317.88,20.988c0.099,0.099,0.297,0.198,0.495,0.198s0.297-0.099,0.495-0.198c0.297-0.297,0.297-0.693,0-0.891
			l-4.752-4.752c-0.297-0.297-0.693-0.297-0.894,0c-0.297,0.297-0.297,0.693,0,0.891L317.88,20.988z"/>
		<path d="M324.018,16.731c0.102,0.198,0.3,0.396,0.597,0.396c0.099,0,0.195,0,0.297-0.099c0.297-0.198,0.495-0.594,0.297-0.891
			l-2.079-4.158c-0.198-0.297-0.594-0.495-0.891-0.297c-0.297,0.198-0.495,0.594-0.297,0.891L324.018,16.731z"/>
		<path d="M338.274,17.028c0.099,0,0.195,0.099,0.297,0.099c0.195,0,0.495-0.099,0.594-0.396l2.079-4.158
			c0.198-0.297,0-0.693-0.297-0.891c-0.297-0.198-0.693,0-0.894,0.297l-2.079,4.158C337.779,16.533,337.878,16.929,338.274,17.028z"
			/>
		<path d="M348.273,26.136c0.099,0.297,0.396,0.396,0.594,0.396c0.099,0,0.198,0,0.198,0l4.354-1.584
			c0.297-0.099,0.495-0.495,0.396-0.792c-0.102-0.297-0.495-0.495-0.792-0.396l-4.356,1.584
			C348.372,25.443,348.174,25.839,348.273,26.136z"/>
		<path d="M309.663,24.948l4.354,1.584c0.102,0,0.102,0,0.198,0c0.297,0,0.495-0.198,0.594-0.396
			c0.102-0.297-0.099-0.693-0.396-0.792l-4.356-1.584c-0.297-0.099-0.69,0.099-0.792,0.396
			C309.168,24.453,309.366,24.849,309.663,24.948z"/>
	</g>
</g>
</svg>
